<svg xmlns="http://www.w3.org/2000/svg" width="245" height="207.223" viewBox="0 0 245 207.223">
  <g id="undraw_Active_support_re_b7sj" transform="translate(0.001 0)">
    <path id="Path_17266" data-name="Path 17266" d="M593.992,241.622c8.128-6,19.571-8.306,28.524-3.622a46.557,46.557,0,0,0-23.168,22.022c-1.869,3.8-3.552,8.229-7.408,9.987a10.407,10.407,0,0,1-7.716,0,30.905,30.905,0,0,1-6.874-3.868l-.654-.079C580.576,256.73,585.865,247.626,593.992,241.622Z" transform="translate(-462.957 -212.515)" fill="#f0f0f0"/>
    <path id="Path_17267" data-name="Path 17267" d="M622.679,241.939A39.794,39.794,0,0,0,599.63,250.2a17.135,17.135,0,0,0-3.755,3.838,9.828,9.828,0,0,0-1.62,4.912,20.341,20.341,0,0,1-.564,4.892,6.018,6.018,0,0,1-3.359,3.6,15.637,15.637,0,0,1-6.133,1.049c-2.312.057-4.713.08-6.816,1.168-.255.132-.444-.271-.19-.4,3.658-1.894,7.932-.658,11.776-1.785a6.1,6.1,0,0,0,4.16-3.385,15.782,15.782,0,0,0,.667-4.955,10.489,10.489,0,0,1,1.405-4.862,15.841,15.841,0,0,1,3.594-3.968,38.606,38.606,0,0,1,10.447-6.039,40.5,40.5,0,0,1,13.476-2.761c.286-.009.245.435-.039.444Z" transform="translate(-463.191 -216.255)" fill="#fff"/>
    <path id="Path_17268" data-name="Path 17268" d="M641.183,247.228a5.97,5.97,0,0,1,1.4-7.6c.223-.18.513.157.29.338a5.528,5.528,0,0,0-1.29,7.075C641.73,247.285,641.326,247.474,641.183,247.228Z" transform="translate(-502.708 -215.055)" fill="#fff"/>
    <path id="Path_17269" data-name="Path 17269" d="M622.161,284.263a11.507,11.507,0,0,0,8.344-.841c.255-.131.445.272.19.4a11.969,11.969,0,0,1-8.684.857C621.735,284.6,621.886,284.185,622.161,284.263Z" transform="translate(-491.147 -242.406)" fill="#fff"/>
    <path id="Path_17270" data-name="Path 17270" d="M673.346,245.725a3.38,3.38,0,0,0,2.324,2.209c.277.075.125.493-.151.419a3.787,3.787,0,0,1-2.576-2.439.23.23,0,0,1,.106-.3A.224.224,0,0,1,673.346,245.725Z" transform="translate(-523.014 -218.815)" fill="#fff"/>
    <path id="Path_17271" data-name="Path 17271" d="M628.687,307.471c-.175-.042-.349-.083-.526-.122a44.514,44.514,0,0,0-7.141-1.064c-.186-.015-.374-.028-.56-.038a46.92,46.92,0,0,0-17.131,2.223,45.555,45.555,0,0,0-6.4,2.639c-2.85,1.438-5.825,3.223-8.892,3.624a7.825,7.825,0,0,1-.964.076l-11.349-11.942c-.012-.04-.027-.078-.04-.118l-.475-.456c.1-.061.21-.122.313-.183.059-.036.121-.069.181-.1.04-.023.081-.046.116-.069l.038-.02c.035-.023.07-.041.1-.061q.9-.515,1.815-1.02s0,0,.008,0a67,67,0,0,1,14.613-6.11c.153-.041.308-.085.466-.121a43.483,43.483,0,0,1,6.984-1.25,38.439,38.439,0,0,1,3.886-.162,31.962,31.962,0,0,1,9.853,1.67c6.332,2.134,11.911,6.269,14.88,12.159C628.54,307.169,628.613,307.317,628.687,307.471Z" transform="translate(-462.028 -248.517)" fill="#f0f0f0"/>
    <path id="Path_17272" data-name="Path 17272" d="M628.969,318.661a39.794,39.794,0,0,0-23.375-7.284,17.135,17.135,0,0,0-5.309.8,9.828,9.828,0,0,0-4.251,2.947,20.346,20.346,0,0,1-3.4,3.566,6.018,6.018,0,0,1-4.848.85,15.637,15.637,0,0,1-5.528-2.855c-1.88-1.346-3.812-2.774-6.145-3.171-.283-.048-.192-.484.091-.436,4.06.69,6.729,4.25,10.477,5.664a6.094,6.094,0,0,0,5.36-.2,15.784,15.784,0,0,0,3.516-3.555,10.488,10.488,0,0,1,4.049-3.036,15.843,15.843,0,0,1,5.258-1,38.607,38.607,0,0,1,11.977,1.468,40.5,40.5,0,0,1,12.422,5.909c.234.165-.066.495-.3.331Z" transform="translate(-462.487 -259.591)" fill="#fff"/>
    <path id="Path_17273" data-name="Path 17273" d="M661.982,302.945a5.97,5.97,0,0,1,5.7-5.226.223.223,0,0,1,.028.445,5.528,5.528,0,0,0-5.29,4.872c-.034.285-.47.192-.436-.091Z" transform="translate(-516.184 -251.346)" fill="#fff"/>
    <path id="Path_17274" data-name="Path 17274" d="M629.932,320.093a11.507,11.507,0,0,0,7.168,4.352c.283.049.192.485-.091.436a11.969,11.969,0,0,1-7.45-4.544c-.174-.229.2-.472.372-.244Z" transform="translate(-495.921 -265.253)" fill="#fff"/>
    <path id="Path_17275" data-name="Path 17275" d="M694.555,318.993a3.379,3.379,0,0,0,.525,3.163c.177.226-.2.469-.372.244a3.787,3.787,0,0,1-.589-3.5.23.23,0,0,1,.263-.173A.224.224,0,0,1,694.555,318.993Z" transform="translate(-536.122 -264.457)" fill="#fff"/>
    <path id="Path_17276" data-name="Path 17276" d="M484.474,212.384h-.88V188.29a13.945,13.945,0,0,0-13.945-13.945H418.6a13.945,13.945,0,0,0-13.945,13.945V320.47A13.945,13.945,0,0,0,418.6,334.415H469.65a13.945,13.945,0,0,0,13.945-13.945V229.534h.88Z" transform="translate(-355.583 -174.345)" fill="#3f3d56"/>
    <path id="Path_17277" data-name="Path 17277" d="M476.6,184h-6.663a4.948,4.948,0,0,1-4.581,6.816H436.115A4.948,4.948,0,0,1,431.534,184H425.31A10.414,10.414,0,0,0,414.9,194.411V326.4a10.414,10.414,0,0,0,10.414,10.414H476.6A10.414,10.414,0,0,0,487.016,326.4h0V194.411A10.414,10.414,0,0,0,476.6,184Z" transform="translate(-361.973 -180.369)" fill="#fff"/>
    <path id="Path_17278" data-name="Path 17278" d="M465.708,382.262A28.758,28.758,0,1,1,494.075,358.2a28.728,28.728,0,0,1-28.367,24.059Zm0-56.381a27.321,27.321,0,0,0-12.546,3.009,27.648,27.648,0,1,0,12.546-3.009Z" transform="translate(-375.74 -268.218)" fill="#f0f0f0"/>
    <path id="Path_17279" data-name="Path 17279" d="M337.417,333.282a5.441,5.441,0,0,1,4.519,7.013l9.554,7.958-3.42,6.985-13.334-11.428a5.471,5.471,0,0,1,2.681-10.529Z" transform="translate(-309.754 -273.512)" fill="#ffb6b6"/>
    <path id="Path_17280" data-name="Path 17280" d="M436.358,380.735A28.644,28.644,0,0,0,434.7,373.6c-2.066-5.408-15.417-9.853-17.209-10.426l-.455-5.056-18.549-2-2.353,6.465-6.653,2.5a3.268,3.268,0,0,0-1.947,2h0l-5.969,1.725-5.89,1.7-20.463-14.419-.966.631-6.457,4.214-1,.65,26.48,23.891,9.837-2.308,7.4-1.74.631,2.563L389.505,393a28.182,28.182,0,0,0,36.445,2.913l4.2-3.729a28.149,28.149,0,0,0,6.319-11.1Z" transform="translate(-319.469 -287.778)" fill="#444274"/>
    <circle id="Ellipse_354" data-name="Ellipse 354" cx="13.356" cy="13.356" r="13.356" transform="translate(73.048 43.054) rotate(-18.319)" fill="#ffb6b6"/>
    <path id="Path_17281" data-name="Path 17281" d="M480.87,264.614a9.015,9.015,0,0,1,5.458-3.636,8.606,8.606,0,0,1,6.347,1.164,13,13,0,0,1,6.43-1.095,6.855,6.855,0,0,1,5.3,3.489,9.54,9.54,0,0,0,.766,1.488c.885,1.181,2.53,1.334,3.982,1.391l-2.2,1.285,2.2,1.023-2.989,1.141c2.319,2.038,2.879,5.665,2,8.706a17.352,17.352,0,0,1-4.865,7.378c-.415-1.548.042-3.227.346-4.83.321-1.694.373-3.674-.813-4.87a5.528,5.528,0,0,0-3.08-1.246,149.477,149.477,0,0,0-16.872-2,4.774,4.774,0,0,0-2.249.23c-1.377.612-1.93,2.292-2.329,3.782a29.986,29.986,0,0,1,.454-7.819A14.323,14.323,0,0,1,480.87,264.614Z" transform="translate(-401.494 -228.305)" fill="#2f2e41"/>
    <path id="Path_17282" data-name="Path 17282" d="M501.808,506.93H486.021a2.067,2.067,0,0,1,0-4.135h15.787a2.067,2.067,0,1,1,0,4.135Z" transform="translate(-405.073 -379.339)" fill="#d83563"/>
    <path id="Path_17283" data-name="Path 17283" d="M319.026,214.454H275.6a1.51,1.51,0,0,1,0-3.021h43.423a1.51,1.51,0,1,1,0,3.021Z" transform="translate(-274.094 -197.493)" fill="#d83563"/>
    <path id="Path_17284" data-name="Path 17284" d="M344.1,240.118H275.6a1.51,1.51,0,0,1,0-3.02H344.1a1.51,1.51,0,1,1,0,3.02Z" transform="translate(-274.094 -213.51)" fill="#d83563"/>
    <path id="Path_17285" data-name="Path 17285" d="M330.936,264.295H275.6a1.51,1.51,0,0,1,0-3.02h55.331a1.51,1.51,0,0,1,0,3.02Z" transform="translate(-274.094 -228.6)" fill="#f8d7e1"/>
    <path id="Path_17286" data-name="Path 17286" d="M306.805,288.384H275.6a1.51,1.51,0,1,1,0-3.02h31.2a1.51,1.51,0,1,1,0,3.02Z" transform="translate(-274.094 -243.634)" fill="#f8d7e1"/>
    <path id="Path_17287" data-name="Path 17287" d="M324.04,312.47H275.6a1.51,1.51,0,1,1,0-3.02H324.04a1.51,1.51,0,1,1,0,3.02Z" transform="translate(-274.094 -258.667)" fill="#f8d7e1"/>
    <path id="Path_17288" data-name="Path 17288" d="M486.523,511.3h-3.892l-1.852-15.012h5.744Z" transform="translate(-300.068 -309.746)" fill="#9f616a"/>
    <path id="Path_17289" data-name="Path 17289" d="M749.555,711.566H734.7v-.188a5.784,5.784,0,0,1,5.783-5.783h0l2.714-2.059,5.064,2.059h1.3Z" transform="translate(-561.568 -504.626)" fill="#2f2e41"/>
    <path id="Path_17290" data-name="Path 17290" d="M759.032,472.308l-1.717-20.928-1.349-7.855,7.55-1.667,2.505,10.754-2.183,20.277a3.492,3.492,0,1,1-4.807-.581Z" transform="translate(-574.843 -341.306)" fill="#9f616a"/>
    <path id="Path_17291" data-name="Path 17291" d="M431.523,511.3h-3.892l-1.852-15.012h5.744Z" transform="translate(-265.741 -309.746)" fill="#9f616a"/>
    <path id="Path_17292" data-name="Path 17292" d="M693.392,534.691l-1.725,2.984s-1.9.518-1.276,6.7.646,42.793,3.645,47.3l.543,3.869,5.663.541.143-3.433,6.753-47.692s3.977,46.819,7.267,47.965l1.188,3.9,5.19,0-.306-4.6.335-58.02Z" transform="translate(-533.838 -398.944)" fill="#2f2e41"/>
    <path id="Path_17293" data-name="Path 17293" d="M693.339,447.317l-.119-.031c3.561-13.32,2.534-30.567.02-49.088v-.077l9.09-8.326h7.893l7.825,5.05a12.5,12.5,0,0,1,6.219,7.939l.008.038-3.1,10.819,2.335,31.289,0,.036L723.5,445c-.756,1.916-2.781,1.643-5.125,1.327s-10.966,2.57-13.611,2.57A53.511,53.511,0,0,1,693.339,447.317Z" transform="translate(-535.681 -308.813)" fill="#3f3d56"/>
    <path id="Path_17294" data-name="Path 17294" d="M753.379,412l3.391-1.475L761.237,416l3.621,17.552-12.4-1.879Z" transform="translate(-572.651 -321.75)" fill="#3f3d56"/>
    <path id="Path_17295" data-name="Path 17295" d="M608.829,467.287l15.5-14.165,5.387-5.874,5.939,4.951-6.972,8.563-17.373,10.683a3.492,3.492,0,1,1-2.483-4.157Z" transform="translate(-480.258 -344.67)" fill="#9f616a"/>
    <path id="Path_17296" data-name="Path 17296" d="M656.5,431.29l4.293-5.575c.036-.08,3.6-8.04,6.685-11.5,3.167-3.548,5.661-1.733,5.686-1.714l.062.047.172,13.1-11.888,14.205Z" transform="translate(-512.762 -322.684)" fill="#3f3d56"/>
    <circle id="Ellipse_355" data-name="Ellipse 355" cx="7.236" cy="7.236" r="7.236" transform="translate(161.509 77.963) rotate(-80.783)" fill="#9f616a"/>
    <path id="Path_17297" data-name="Path 17297" d="M706.428,346.79a21.05,21.05,0,0,0-.38-3.669c-.322-1.126-.965-2.09-.643-2.09s.482-.8.482-.8.322-.161.482,0,.322-1.126.322-1.126.161-.482.322-.161.161.161.322-.322.965-.8.965-.8,3.055.161,3.537-.482,5.95-.161,7.075.643,6.11,3.7,5.306,6.11-3.118,7.965-3.7,8.522c-.917.88-1.552,1.2-5.891,2.061-.849.169-5.184-2.6-5.184-3.086s.523-2.012-.317-2.222c-1.27-.317-1.413,1.288-1.734.806A22.974,22.974,0,0,1,706.428,346.79Z" transform="translate(-543.232 -275.883)" fill="#2f2e41"/>
    <path id="Path_17298" data-name="Path 17298" d="M694.555,711.566H679.7v-.188a5.784,5.784,0,0,1,5.783-5.783h0l2.714-2.059,5.064,2.059h1.3Z" transform="translate(-527.241 -504.626)" fill="#2f2e41"/>
    <path id="Path_17299" data-name="Path 17299" d="M519.98,724.169h-243.3a.448.448,0,1,1,0-.9h243.3a.448.448,0,1,1,0,.9Z" transform="translate(-275.428 -516.945)" fill="#d83563"/>
  </g>
</svg>
