<svg xmlns="http://www.w3.org/2000/svg" width="21.968" height="22.311" viewBox="0 0 21.968 22.311">
  <g id="Final" transform="translate(0.062 0.006)">
    <path id="Path_17507" data-name="Path 17507" d="M746.373,357h6.843c.474,0,.561-.087.608-.543.265-2.542.521-5.084.8-7.621.126-1.091.3-2.172.435-3.263a.4.4,0,0,1,.278-.343c.8-.343,1.594-.7,2.394-1.047.269-.122.365-.3.291-.517a.4.4,0,0,0-.556-.226c-.969.435-1.934.834-2.889,1.273a.539.539,0,0,0-.235.326,5.2,5.2,0,0,0-.2.9c-.03.256-.152.308-.408.308H737.11c-.435,0-.591.187-.5.6l2.242,9.724c.087.365.182.434.591.434Zm-8.255-7.451c-.191-.843-.382-1.668-.569-2.5h4.171v2.5Zm7.821,3.324h-3.363v-2.511h3.363Zm4.206-2.511v2.52H746.8v-2.52Zm-7.573-3.337H745.8c.052,0,.143.117.143.182v2.325h-3.385Zm3.359,6.669v2.5h-3.35v-2.5Zm.869-4.145v-2.5h3.346v2.5Zm3.346,6.643H746.8v-2.5h3.341Zm-8.425-3.333a.294.294,0,0,1-.07.026h-2.607c-.065,0-.169-.113-.191-.187-.117-.465-.222-.934-.326-1.4-.07-.3-.139-.608-.217-.934h3.411Zm12.27-5.822-.265,2.507h-2.72v-2.507Zm-.382,3.32a.682.682,0,0,1,0,.1c-.078.76-.148,1.525-.239,2.285,0,.061-.143.143-.222.148h-2.155V350.35Zm-11.888,3.337v2.49c-.035,0-.048.026-.065.026h-1.264c-.73,0-.734,0-.869-.669s-.282-1.221-.435-1.851Zm9.289,2.507v-2.5h2.268l-.265,2.5Z" transform="translate(-736.4 -343.15)" fill="#fff" stroke="#fff" stroke-miterlimit="10" stroke-width="0.5"/>
    <path id="Path_17508" data-name="Path 17508" d="M744.851,380.152c-.821,1.3-.734,2.437.222,3.237a2.368,2.368,0,0,0,2.972.03c.982-.782,1.082-1.89.274-3.25H753.1a2.251,2.251,0,0,0-.513,2.094,2.172,2.172,0,0,0,.869,1.23,2.351,2.351,0,0,0,2.9-.13,2.172,2.172,0,0,0,.773-1.612,2.211,2.211,0,0,0-.665-1.647c.169-.061.3-.1.435-.152a1.629,1.629,0,0,0,1.086-1.716,1.538,1.538,0,0,0-1.377-1.508,4.427,4.427,0,0,0-.83-.078H743.813a.382.382,0,0,0-.056.76,1.3,1.3,0,0,0,.291,0h11.544a4.928,4.928,0,0,1,.908.074.739.739,0,0,1,.678.73.791.791,0,0,1-.5.939,3.474,3.474,0,0,1-1.095.191H743.847a.391.391,0,1,0,0,.778A8.407,8.407,0,0,0,744.851,380.152Zm9.993,3a1.46,1.46,0,1,1,1.5-1.451,1.5,1.5,0,0,1-1.512,1.451ZM745.1,381.7a1.495,1.495,0,1,1,1.486,1.451,1.477,1.477,0,0,1-1.5-1.451Z" transform="translate(-740.261 -361.955)" fill="#fff" stroke="#fff" stroke-miterlimit="10" stroke-width="0.5"/>
  </g>
</svg>
