<svg id="Layer_1" data-name="Layer 1" xmlns="http://www.w3.org/2000/svg" width="21" height="24.5" viewBox="0 0 21 24.5">
  <path id="Path_17387" data-name="Path 17387" d="M32,5.812c.381.069.455.151.434.511a2.551,2.551,0,0,1-.851,2.018,1.508,1.508,0,0,0-.373.749,7.042,7.042,0,0,1-1.661,3.191,3.244,3.244,0,0,1-2.7,1.134,3.944,3.944,0,0,1-2.7-1.628,6.444,6.444,0,0,1-1.211-2.713,1.589,1.589,0,0,0-.473-.866,2.647,2.647,0,0,1-.8-1.648c-.056-.445.028-.59.432-.767a5.56,5.56,0,0,1-.018-2.213A1.812,1.812,0,0,1,23.067,2.1c.164-.072.2-.2.256-.376a1.262,1.262,0,0,1,.324-.652,4.221,4.221,0,0,1,2.3-1.022A6.1,6.1,0,0,1,29.7.607a4.469,4.469,0,0,1,2.356,4.911A2.593,2.593,0,0,0,32,5.812Z" transform="translate(-16.511 0.039)" fill="#fff"/>
  <path id="Path_17388" data-name="Path 17388" d="M61.987,69.622a.511.511,0,1,1,.52-.5A.511.511,0,0,1,61.987,69.622Z" transform="translate(-46.367 -51.278)" fill="#fff"/>
  <path id="Path_17389" data-name="Path 17389" d="M18.47,48.593a24.492,24.492,0,0,0-2.633-1.278,3.944,3.944,0,0,0-.4-.141c.034.12.047.181.069.235a7.485,7.485,0,0,1,.389,3.375c-.015.22,0,.34.212.455a.947.947,0,0,1-.565,1.748.937.937,0,0,1-.826-.828.953.953,0,0,1,.621-1.022l.286-.092c0-.687.025-1.359,0-2.044A3.939,3.939,0,0,0,15.11,47.2a.727.727,0,0,0-.246-.281,3.5,3.5,0,0,1-1.478-1.063l-.086.015q-.855,4.407-1.724,8.812c-.15-1.758-.222-3.5-.333-5.246a2.942,2.942,0,0,1,.313-1.674,4.947,4.947,0,0,0,.2-.46,7.631,7.631,0,0,1-1.168.187,7.644,7.644,0,0,1-1.165-.166c.067.151.148.3.2.457a3.412,3.412,0,0,1,.305,1.065C9.886,50.5,9.785,52.15,9.7,53.8c-.015.3-.037.608-.057.91H9.593L7.731,45.77a3.615,3.615,0,0,1-1.69,1.2.506.506,0,0,0-.34.411,2.2,2.2,0,0,0,.153,1.441c.266,0,.544-.023.815,0a2,2,0,0,1,1.855,1.789c.032.189.02.386.054.572.108.6.229,1.2.34,1.8a.72.72,0,0,1-.08.546.673.673,0,0,1-.438.315c-.167.051-.325.135-.493.187a.761.761,0,0,1-.36.033c-.039,0-.084-.256-.049-.281a.52.52,0,0,1,.35-.1c.64.13.985-.194.852-.843q-.246-1.221-.532-2.44A1.489,1.489,0,0,0,7.14,49.26a2.592,2.592,0,0,0-2.66.511,1.488,1.488,0,0,0-.542,1.367c.128.945.3,1.886.466,2.826a.463.463,0,0,0,.229.343.432.432,0,0,0,.4.012,3.224,3.224,0,0,1,.305-.164.438.438,0,0,1,.313.018.263.263,0,0,1,.052.256.438.438,0,0,1-.283.148c-.14,0-.286-.038-.429-.036-.493,0-.695-.161-.8-.664a17.413,17.413,0,0,0-.4-1.978,2.1,2.1,0,0,1,.914-2.667,6.881,6.881,0,0,1,.7-.345V47.211A12.739,12.739,0,0,0,2.366,48.7a5.452,5.452,0,0,0-2.2,3.362,13.225,13.225,0,0,0-.113,3.388.973.973,0,0,0,.431.767,10.653,10.653,0,0,0,3.5,1.727,22.442,22.442,0,0,0,7.535.884,21.39,21.39,0,0,0,6.008-1.071,10.281,10.281,0,0,0,2.939-1.533.839.839,0,0,0,.4-.611c.044-.733.138-1.467.128-2.2A5.43,5.43,0,0,0,18.47,48.593ZM16.3,57.853a2.122,2.122,0,1,1,2.044-2.121A2.084,2.084,0,0,1,16.3,57.853Z" transform="translate(0.005 -34.358)" fill="#fff"/>
  <rect id="Rectangle_3416" data-name="Rectangle 3416" width="0.519" height="3.327" transform="translate(16.044 19.711)" fill="#fff"/>
  <rect id="Rectangle_3417" data-name="Rectangle 3417" width="0.519" height="3.327" transform="translate(17.798 21.114) rotate(90)" fill="#fff"/>
</svg>
