<svg xmlns="http://www.w3.org/2000/svg" width="18.421" height="25.24" viewBox="0 0 18.421 25.24">
  <g id="Group_16713" data-name="Group 16713" transform="translate(0.401 0.192)">
    <path id="Path_17356" data-name="Path 17356" d="M10,69.144c-2.826-.036-5.807-.166-8-1-2.369-.907-2.873-1.611-2-4,.679-2.048,2.9-4.486,5-5,.375-.084.657.826,1,1a7.4,7.4,0,0,0,7,0c.343-.174.623-1.077,1-1,2.652.707,3.741,3.268,4,6a1.793,1.793,0,0,1-1,2,13.481,13.481,0,0,1-5,2A15.636,15.636,0,0,1,10,69.144Z" transform="translate(0.001 -44.144)" fill="#fff"/>
    <path id="Path_17357" data-name="Path 17357" d="M19.053,5.005c-.617.3-1.445.708-2,1-.065.031.013-.1,0,0-.1.811-.93,2.189-1,3-.011.11-.063-.091,0,0,.656.816.889,2.465,0,3-.189.128.06-.22,0,0a5.118,5.118,0,0,1-4,4,6.428,6.428,0,0,1-4-1c-.772-.642-.766-2.024-1-3-.078-.237-.785.127-1,0-.338-.173.071-.627,0-1a8.8,8.8,0,0,1,0-1c-.029-.164-.084.143,0,0,.535-.581.057-1.375,0-2-.041-.442,0-1.556,0-2,.011-.172.163.057,0,0-.8-.385-2.2-.6-3-1-.075-.034.071.042,0,0a.573.573,0,0,1,0-1c.473-.258.517-.762,1-1,2-.992,3.988-2,6-3a2.7,2.7,0,0,1,2,0c2.464,1.224,4.536,2.778,7,4,.176.085,1-.155,1,0a3.993,3.993,0,0,1-1,1c-.226.079-.043-.235,0,0,.018.491,0,1.509,0,2,0,.3-.243.739,0,1,.091.146.077-.154,0,0-.209.258-.041.742,0,1,.062.38-.054.618,0,1,0,.1.039,0,0,0a7.186,7.186,0,0,1-1,0c-.041,0-.013.1,0,0,.046-.372-.062-.631,0-1,.046-.279.217-.713,0-1-.08-.106-.044.183,0,0,.065-.152-.038-.839,0-1C18.071,6.4,19.053,5.671,19.053,5.005Z" transform="translate(-2.053 -0.005)" fill="#fff"/>
  </g>
</svg>
