<svg xmlns="http://www.w3.org/2000/svg" width="22.155" height="30.356" viewBox="0 0 22.155 30.356">
  <g id="Group_18224" data-name="Group 18224" transform="translate(-1629 -428)">
    <g id="Layer_2" data-name="Layer 2" transform="translate(1629 428)">
      <g id="Layer_1" data-name="Layer 1">
        <g id="Group_16713" data-name="Group 16713">
          <path id="Path_17356" data-name="Path 17356" d="M12.107,71.172c-3.4-.044-6.984-.2-9.621-1.2C-.363,68.879-.969,68.032.081,65.158.9,62.7,3.574,59.763,6.094,59.145c.451-.1.79.994,1.2,1.2a8.9,8.9,0,0,0,8.419,0c.412-.21.75-1.3,1.2-1.2,3.189.85,4.5,3.93,4.811,7.216a2.156,2.156,0,0,1-1.2,2.405,16.214,16.214,0,0,1-6.013,2.405A18.807,18.807,0,0,1,12.107,71.172Z" transform="translate(0.401 -40.873)" fill="#6c119c"/>
          <path id="Path_17357" data-name="Path 17357" d="M22.356,6.057c-.742.36-1.737.852-2.405,1.2-.078.037.016-.118,0,0-.115.975-1.119,2.633-1.2,3.608-.013.132-.075-.109,0,0,.789.982,1.069,2.965,0,3.608-.227.154.072-.265,0,0-.564,2.318-2.439,4.55-4.811,4.811a7.731,7.731,0,0,1-4.811-1.2c-.929-.772-.921-2.434-1.2-3.608-.094-.285-.944.153-1.2,0-.407-.208.085-.754,0-1.2a10.584,10.584,0,0,1,0-1.2c-.035-.2-.1.172,0,0,.643-.7.068-1.654,0-2.405-.05-.531,0-1.871,0-2.405.013-.207.2.068,0,0-.963-.463-2.648-.727-3.608-1.2-.091-.041.085.05,0,0a.689.689,0,0,1,0-1.2c.569-.311.622-.917,1.2-1.2,2.4-1.193,4.8-2.4,7.216-3.608a3.242,3.242,0,0,1,2.405,0c2.964,1.473,5.455,3.341,8.419,4.811.211.1,1.206-.186,1.2,0a4.8,4.8,0,0,1-1.2,1.2c-.271.095-.051-.283,0,0,.022.59,0,1.815,0,2.405,0,.36-.292.889,0,1.2.109.176.092-.185,0,0-.252.311-.05.892,0,1.2.075.457-.065.743,0,1.2,0,.115.047,0,0,0a8.642,8.642,0,0,1-1.2,0c-.05,0-.016.121,0,0,.056-.447-.075-.758,0-1.2.056-.336.261-.858,0-1.2-.1-.127-.053.221,0,0,.078-.183-.046-1.009,0-1.2C21.175,7.736,22.356,6.859,22.356,6.057Z" transform="translate(-1.428 0.187)" fill="#6c119c"/>
        </g>
      </g>
    </g>
  </g>
</svg>
