<svg xmlns="http://www.w3.org/2000/svg" width="28.437" height="20.416" viewBox="0 0 28.437 20.416">
  <g id="Group_18879" data-name="Group 18879" transform="translate(-786 -1151)">
    <path id="Subtraction_15" data-name="Subtraction 15" d="M6.109,12.207h0A6.1,6.1,0,0,1,6.086,0H6.1a6.1,6.1,0,0,1,6.126,6.1,6.108,6.108,0,0,1-6.1,6.111ZM6.125,1.429a4.7,4.7,0,1,0,4.7,4.7A4.7,4.7,0,0,0,6.125,1.429Z" transform="translate(794.167 1158.146)" fill="#fff"/>
    <g id="Untitled-1" transform="translate(786 1151)">
      <path id="Path_20278" data-name="Path 20278" d="M513.89,305.089c.176-.186.339-.37.512-.545a25.55,25.55,0,0,1,7.209-5.245,16.027,16.027,0,0,1,4.651-1.441,13.4,13.4,0,0,1,5.839.486,20.892,20.892,0,0,1,6.309,3.273,26.326,26.326,0,0,1,3.72,3.3c.049.053.1.106.159.176-.069.076-.131.147-.2.214a25.089,25.089,0,0,1-8.179,5.755,14.651,14.651,0,0,1-6.078,1.25,14.879,14.879,0,0,1-5.317-1.147,23.7,23.7,0,0,1-6.7-4.224c-.61-.533-1.178-1.117-1.764-1.678C514,305.214,513.951,305.156,513.89,305.089Zm.953-.01c.033.041.045.061.061.078a23.269,23.269,0,0,0,8.032,5.543,13.958,13.958,0,0,0,4.571,1.027,13.544,13.544,0,0,0,5.649-.992,23.119,23.119,0,0,0,8.028-5.484c.049-.049.094-.1.141-.159-.039-.043-.065-.076-.1-.106a23.485,23.485,0,0,0-7.413-5.029,14.963,14.963,0,0,0-5.012-1.192,14.259,14.259,0,0,0-5.888.99,23.174,23.174,0,0,0-7.119,4.43C515.47,304.476,515.16,304.783,514.844,305.079Z" transform="translate(-513.89 -291.9)" fill="#fff"/>
      <path id="Path_20279" data-name="Path 20279" d="M513.92,280.13a13.96,13.96,0,0,1,1.789-1.738c.643-.523,1.3-1.023,1.972-1.546a2.537,2.537,0,0,1-1.7-1.448c.1.125.192.255.3.374a2.2,2.2,0,0,0,1.668.837.47.47,0,0,0,.239-.063c.678-.388,1.352-.782,2.027-1.174a.531.531,0,0,0,.065-.053,3.243,3.243,0,0,1-2.113-2.3c.078.149.151.3.235.449a2.979,2.979,0,0,0,2.205,1.556.813.813,0,0,0,.435-.055,20.127,20.127,0,0,1,2.781-1.013c.045-.012.088-.031.159-.055a3.667,3.667,0,0,1-1.272-2.023,4.818,4.818,0,0,1-.074-1.866c.045.39.063.774.135,1.145a3.351,3.351,0,0,0,1.615,2.391,1.01,1.01,0,0,0,.7.129c.759-.118,1.525-.192,2.289-.282.065-.008.131-.012.208-.02a7.665,7.665,0,0,1,.449-4.2c-.041.294-.092.588-.12.882a7.327,7.327,0,0,0,.367,3.169.19.19,0,0,0,.2.155,16.724,16.724,0,0,1,2.9.355.521.521,0,0,0,.31-.035,3.17,3.17,0,0,0,1.789-2.352,12.909,12.909,0,0,0,.155-1.309,4.726,4.726,0,0,1-.1,2.085,3.638,3.638,0,0,1-1.2,1.827c.078.029.131.051.186.067a19.138,19.138,0,0,1,2.9,1.1.5.5,0,0,0,.292.037,2.791,2.791,0,0,0,2.111-2.019,2.483,2.483,0,0,1,.1-.286,3.074,3.074,0,0,1-1.844,2.579l.149.094c.686.41,1.376.815,2.054,1.235a.763.763,0,0,0,.5.122,2.328,2.328,0,0,0,1.658-.972c.063-.08.122-.163.192-.259a2.45,2.45,0,0,1-.7.951,2.407,2.407,0,0,1-1.084.525,22.17,22.17,0,0,1,3.514,3.058c-.382-.319-.755-.645-1.145-.956a25.775,25.775,0,0,0-7.448-4.249,16.934,16.934,0,0,0-5.639-1.031,17.259,17.259,0,0,0-6.278,1.219,26.01,26.01,0,0,0-7.785,4.837A1.438,1.438,0,0,1,513.92,280.13Z" transform="translate(-513.914 -269.18)" fill="#fff"/>
    </g>
    <circle id="Ellipse_691" data-name="Ellipse 691" cx="1.915" cy="1.915" r="1.915" transform="translate(798.125 1162.489)" fill="#fff"/>
  </g>
</svg>
