<svg xmlns="http://www.w3.org/2000/svg" width="18.626" height="24.884" viewBox="0 0 18.626 24.884">
  <g id="Group_16712" data-name="Group 16712" transform="translate(340 -1716)">
    <g id="Group_16254" data-name="Group 16254" transform="translate(-470 1432)">
      <g id="donation" transform="translate(121.947 286.792)">
        <path id="Path_9449" data-name="Path 9449" d="M209.858,106.454l.113,2.5h4.574a4.53,4.53,0,0,1,1.241-3.314,13.419,13.419,0,0,0,2.917-4.164,2.07,2.07,0,0,0,.141-.793V96.454a.819.819,0,0,0-.651-.793.768.768,0,0,0-.863.633l-.6,3.918a5.381,5.381,0,0,1-2.157,2.643c-.255.175-.538.368-.864.161a.53.53,0,0,1,.047-.7l1.336-1.057a1.14,1.14,0,0,0,.472-1.288.492.492,0,0,0-.765-.284l-2.69,1.921a3.519,3.519,0,0,0-1.19,1.081,5.938,5.938,0,0,0-1.062,3.762Z" transform="translate(-0.061 -221.91) rotate(60)" fill="#fff"/>
        <path id="Path_9450" data-name="Path 9450" d="M201.172,330.142h5.178a.332.332,0,0,1,.332.332v2.018a.332.332,0,0,1-.332.332h-5.178a.332.332,0,0,1-.332-.332v-2.018A.332.332,0,0,1,201.172,330.142Z" transform="translate(195.866 -325.211) rotate(60)" fill="#fff"/>
      </g>
    </g>
    <g id="Layer_2" data-name="Layer 2" transform="translate(-333 1715.992)">
      <g id="Layer_1" data-name="Layer 1" transform="translate(0 0.008)">
        <rect id="Rectangle_3359" data-name="Rectangle 3359" width="4.482" height="6.695" transform="translate(1.694 7.083)" fill="#fff"/>
        <rect id="Rectangle_3360" data-name="Rectangle 3360" width="5.235" height="1.196" rx="0.2" transform="translate(6.391 5.438)" fill="#fff"/>
        <rect id="Rectangle_3361" data-name="Rectangle 3361" width="4.482" height="6.695" transform="translate(6.391 7.083)" fill="#fff"/>
        <path id="Path_17337" data-name="Path 17337" d="M2.37,12.37H7.3a.088.088,0,0,1,.088.088v1.021a.088.088,0,0,1-.088.088H2.37a.22.22,0,0,1-.22-.22V12.59A.22.22,0,0,1,2.37,12.37Z" transform="translate(-1.204 -6.932)" fill="#fff"/>
        <path id="Path_17338" data-name="Path 17338" d="M10.593,5.138c-.29-.18-.589-.356-.88-.554a5.718,5.718,0,0,1-1.76-1.76,1.843,1.843,0,0,1-.246-1.548A1.83,1.83,0,0,1,9.137.053a1.658,1.658,0,0,1,1.694.6,2.578,2.578,0,0,1,.594,2.05,7.408,7.408,0,0,1-.779,2.384Zm-.053-.18h.044V4.3a13.774,13.774,0,0,0-.07-1.7,1.61,1.61,0,0,0-.6-1.148c-.264-.216-.44-.211-.792,0A.506.506,0,0,0,8.86,2.1a3.959,3.959,0,0,0,.348.88c.348.545.708,1.087,1.069,1.628A2.824,2.824,0,0,0,10.54,4.958Z" transform="translate(-4.276 -0.008)" fill="#fff"/>
        <path id="Path_17339" data-name="Path 17339" d="M15.21,7.653a6.125,6.125,0,0,1,1.412-2.547,2.257,2.257,0,0,1,1.021-.616,1.5,1.5,0,0,1,1.553.576,1.157,1.157,0,0,1,0,1.284,2.3,2.3,0,0,1-1.4,1.122,5.327,5.327,0,0,1-1.988.22ZM15.4,7.5l.123-.026c.343-.106.691-.207,1.029-.326a4.043,4.043,0,0,0,1.4-.748,1.346,1.346,0,0,0,.387-.607.172.172,0,0,0-.075-.224.607.607,0,0,0-.647-.07,5.155,5.155,0,0,0-.66.383,8.512,8.512,0,0,0-1.35,1.377Z" transform="translate(-8.519 -2.497)" fill="#fff"/>
        <path id="Path_17340" data-name="Path 17340" d="M0,5.834a1.271,1.271,0,0,1,1.183-1,1.821,1.821,0,0,1,1.456.594c.5.5,1.012.985,1.509,1.487a2.894,2.894,0,0,0,1.57.827.974.974,0,0,1,.238.07v.053a1.319,1.319,0,0,1-.216.088A2.2,2.2,0,0,1,4.21,7.722a7.7,7.7,0,0,1-.88-.554c-.44-.326-.88-.664-1.32-1A2.037,2.037,0,0,0,.128,5.826H.04A.039.039,0,0,1,0,5.834Z" transform="translate(0 -2.711)" fill="#fff"/>
      </g>
    </g>
  </g>
</svg>
