<svg xmlns="http://www.w3.org/2000/svg" width="7.921" height="10" viewBox="0 0 7.921 10">
  <g id="groceries" transform="translate(-5.902 0)">
    <path id="Path_9133" data-name="Path 9133" d="M35.718,20.935a.192.192,0,0,0,.244-.12.339.339,0,0,1,.429-.212.724.724,0,0,0,.917-.452.192.192,0,1,0-.364-.124.339.339,0,0,1-.429.212.725.725,0,0,0-.917.452A.193.193,0,0,0,35.718,20.935Z" transform="translate(-24.71 -16.429)" fill="#73cf31"/>
    <path id="Path_9134" data-name="Path 9134" d="M38.084,13.965a.192.192,0,0,0,.244-.12.338.338,0,0,1,.429-.212.724.724,0,0,0,.917-.453.192.192,0,1,0-.364-.124.339.339,0,0,1-.429.212.723.723,0,0,0-.917.452A.192.192,0,0,0,38.084,13.965Z" transform="translate(-26.621 -10.673)" fill="#73cf31"/>
    <path id="Path_9135" data-name="Path 9135" d="M40.449,7.463a.192.192,0,0,0,.244-.12.25.25,0,0,1,.317-.156.634.634,0,0,0,.805-.4.192.192,0,1,0-.364-.124.249.249,0,0,1-.317.156.636.636,0,0,0-.805.4A.193.193,0,0,0,40.449,7.463Z" transform="translate(-28.531 -5.278)" fill="#73cf31"/>
    <path id="Path_9136" data-name="Path 9136" d="M13.254,4.4a12.388,12.388,0,0,0,.569-3.312,1.261,1.261,0,0,0-.329-.86A.733.733,0,0,0,12.589.1a3.743,3.743,0,0,0-1.2,1.711l-.051.109a1.019,1.019,0,0,0-.558-.706.84.84,0,0,0-.653-.649A.545.545,0,0,0,10.11.508a.607.607,0,0,0-.5-.429.591.591,0,0,0-.374.077A.64.64,0,0,0,8.921.074a.649.649,0,0,0-.63.5.793.793,0,0,0-.583.755.881.881,0,0,0-.6,1.172.693.693,0,0,0-.1.711.935.935,0,0,0-.7-.338.176.176,0,0,0,.005.352h.017a.611.611,0,0,1,.43.236,1.2,1.2,0,0,0-.773.507.9.9,0,0,0-.043.646A.3.3,0,0,0,5.9,4.79l.3,4.257A1,1,0,0,0,7.2,10h4.941a1,1,0,0,0,1-.949l.307-4.408a.232.232,0,0,0-.063-.171A.227.227,0,0,0,13.254,4.4ZM11.477,2.421c.07-.13.146-.291.226-.462A3.654,3.654,0,0,1,12.75.411a.38.38,0,0,1,.492.066.915.915,0,0,1,.23.605,12.055,12.055,0,0,1-.565,3.255c-.011.037-.037.111-.073.213l-.3.133-.019.01a.55.55,0,0,1-.562,0l-.125-.075a.911.911,0,0,0-.468-.13.994.994,0,0,0-.48.13l-.125.075a.55.55,0,0,1-.225.07l.012-.039c.049-.166.1-.33.156-.492.02-.059.041-.118.062-.177q.069-.194.144-.384c.021-.054.042-.109.064-.162A11.554,11.554,0,0,1,11.477,2.421ZM9.444,4.5l-.058.011a.9.9,0,0,0-.17.054l-.034-.155c.051,0,.1.008.149.008a1.361,1.361,0,0,0,.838-.293,2.157,2.157,0,0,1,.244-.152c-.016.046-.032.092-.048.138s-.023.066-.034.1q-.078.235-.147.474l-.117-.07a.911.911,0,0,0-.468-.13.893.893,0,0,0-.127.01Zm-.28-2.379a.073.073,0,1,1-.031-.142l.987-.214a.073.073,0,0,1,.071.057.072.072,0,0,1-.01.055.073.073,0,0,1-.045.032Zm.069.714.06-.078A.434.434,0,0,0,9.33,2.7a.377.377,0,0,0,.033-.262l.735-.161a.4.4,0,0,0,.019.066.4.4,0,0,0,.174.194l.084.045.071.039.034.019c.021.012.041.025.062.038l.052.034c.02.014.038.029.057.044s.032.028.048.043.033.033.049.051a.605.605,0,0,1,.074.106c-.075.165-.145.333-.213.5-.011.026-.022.052-.032.078a1.8,1.8,0,0,0-.61.3,1.036,1.036,0,0,1-.862.209L9,3.563A.8.8,0,0,1,9.233,2.838ZM8.191,7.215a.176.176,0,1,1,0,.352H6.959a.176.176,0,1,1,0-.352Zm-1.232.7H8.543a.176.176,0,0,1,0,.352H6.959a.176.176,0,0,1,0-.352Zm.473-5.247.115-.1-.075-.129a.529.529,0,0,1,.437-.795l.214-.009-.05-.208a.434.434,0,0,1-.013-.1A.438.438,0,0,1,8.464.9L8.626.887V.712a.3.3,0,0,1,.3-.285.291.291,0,0,1,.2.077l.123.111L9.36.5a.244.244,0,0,1,.205-.07.254.254,0,0,1,.207.179A.229.229,0,0,1,9.78.7L9.76.9h.2a.485.485,0,0,1,.482.45l.008.116.109.038a.671.671,0,0,1,.45.648.635.635,0,0,1-.115.349,1.862,1.862,0,0,0-.351-.224l-.081-.044a.038.038,0,0,1-.02-.03.1.1,0,0,1,.024-.078.378.378,0,0,0,.083-.325l-.021-.1a.381.381,0,0,0-.447-.286l-.047.01h0l-.517.113-.5.11a.375.375,0,0,0-.286.447l.011.048h0l.01.048a.374.374,0,0,0,.218.263.107.107,0,0,1,.058.057c0,.013,0,.02-.008.037l-.055.072L8.9,2.7l-.019.025-.045.063-.023.034c-.014.021-.027.042-.04.065l-.021.038c-.013.025-.026.051-.037.078,0,.011-.01.022-.015.033a1.014,1.014,0,0,0-.04.121c0,.006,0,.013,0,.02a.971.971,0,0,0-.02.113c0,.015,0,.032,0,.048s0,.041,0,.062L8.61,3.379l-.035-.043c-.026-.032-.052-.063-.079-.092L8.458,3.2c-.028-.028-.056-.054-.083-.078L8.344,3.1a1.064,1.064,0,0,0-.112-.08L8.2,3a.856.856,0,0,0-.082-.041L8.069,2.94a.711.711,0,0,0-.076-.022l-.046-.01a.685.685,0,0,0-.1-.009l-.022,0a.914.914,0,0,0-.5.168.335.335,0,0,1-.025-.127A.341.341,0,0,1,7.432,2.672ZM6.3,4.133A.878.878,0,0,1,6.87,3.8a.95.95,0,0,0,.394-.226c.049-.047.1-.088.14-.124a1.426,1.426,0,0,1,.116-.086l0,0a.7.7,0,0,1,.206-.1l.008,0a.4.4,0,0,1,.091-.012c.221,0,.459.221.706.657a1.336,1.336,0,0,1,.116.859l-.039-.005a.548.548,0,0,1-.179-.065l-.125-.075a.911.911,0,0,0-.468-.13.994.994,0,0,0-.48.13L7.3,4.655a.674.674,0,0,1-.69,0l-.237-.142a.3.3,0,0,0-.1-.038A.505.505,0,0,1,6.3,4.133ZM8.9,8.975H6.959a.176.176,0,1,1,0-.352H8.9a.176.176,0,1,1,0,.352Zm1.056,0H9.6a.176.176,0,1,1,0-.352h.352a.176.176,0,1,1,0,.352Z" transform="translate(0 0)" fill="#73cf31"/>
  </g>
</svg>
