<svg xmlns="http://www.w3.org/2000/svg" width="20.323" height="24.51" viewBox="0 0 20.323 24.51">
  <g id="Layer_2" data-name="Layer 2" transform="translate(-0.001 -0.001)">
    <g id="Layer_1" data-name="Layer 1" transform="translate(0.001 0.001)">
      <path id="Path_17402" data-name="Path 17402" d="M91.58,29.73a6.622,6.622,0,0,1,1.726-2.222,5.537,5.537,0,0,1,1.57-.969,4.923,4.923,0,0,1,.9-.214,1.489,1.489,0,0,1,1.347.387,2.4,2.4,0,0,0,1.016.5.307.307,0,0,1,.127.537.257.257,0,0,1-.19,0,3.114,3.114,0,0,0-2.649.347,5.191,5.191,0,0,0-1.57,1.484.377.377,0,0,1-.345.173H91.825C91.754,29.75,91.686,29.74,91.58,29.73Z" transform="translate(-78.059 -22.418)" fill="#fff"/>
      <path id="Path_17403" data-name="Path 17403" d="M111.469,37.62c-.319.26-.7.54-1.034.858a2.8,2.8,0,0,0-.527.682.452.452,0,0,1-.568.219A4.242,4.242,0,0,1,111.469,37.62Z" transform="translate(-93.196 -32.066)" fill="#fff"/>
      <path id="Path_17404" data-name="Path 17404" d="M41.52,7.348H39.5a.148.148,0,0,1-.162-.1c-.165-.354-.338-.7-.5-1.059-.148-.307-.278-.617-.408-.927-.148-.348-.283-.7-.419-1.053-.077-.2-.148-.4-.214-.605-.075-.229-.148-.456-.217-.687-.072-.255-.128-.515-.205-.769A4.927,4.927,0,0,1,37.194.895a2.314,2.314,0,0,1,.03-.443c.069-.475.424-.561.827-.319a2.805,2.805,0,0,1,.692.573c.282.326.565.653.836.986.155.19.3.393.428.591.21.314.416.632.616.952.148.244.3.495.443.738.157.272.309.545.459.818a.131.131,0,0,1,.01.063V7.3A.218.218,0,0,1,41.52,7.348Zm-1.884-.963c.015.2.019.35.038.5,0,.044.05.086.077.128a1.421,1.421,0,0,0,.148-.09.224.224,0,0,0,.052-.087,6.709,6.709,0,0,0,.319-.8,6.254,6.254,0,0,0,.254-1.546,1.763,1.763,0,0,0-.031-.329.161.161,0,0,0-.094-.1c-.024-.009-.087.032-.108.063a3.552,3.552,0,0,0-.269.484,4.1,4.1,0,0,0-.2.688C39.74,5.669,39.689,6.055,39.636,6.386Zm-.3-3.9c-.013-.148-.021-.3-.044-.452a.161.161,0,0,0-.09-.112.168.168,0,0,0-.13.072,3.331,3.331,0,0,0-.3.614,7.435,7.435,0,0,0-.252,1.084,5.128,5.128,0,0,0-.01.825.158.158,0,0,0,.1.118.167.167,0,0,0,.133-.078,4.56,4.56,0,0,0,.3-.616,4.678,4.678,0,0,0,.189-.692c.053-.254.075-.5.109-.763Z" transform="translate(-31.702 -0.001)" fill="#fff"/>
      <path id="Path_17405" data-name="Path 17405" d="M25.787,40.187H21.724a1.215,1.215,0,0,1,.207-.729,2.421,2.421,0,0,1,.227-.281,2.216,2.216,0,0,1,1.989-.6,2.033,2.033,0,0,1,1.27.673A1.376,1.376,0,0,1,25.787,40.187Z" transform="translate(-18.516 -32.852)" fill="#fff"/>
      <path id="Path_17406" data-name="Path 17406" d="M21.128,18.926a1.931,1.931,0,0,1,.024-3.4c.148.136.3.269.443.415a1.965,1.965,0,0,1,.471.877,1.453,1.453,0,0,1,.035.7,2.1,2.1,0,0,1-.886,1.336.539.539,0,0,0-.046.035Z" transform="translate(-17.157 -13.237)" fill="#fff"/>
      <path id="Path_17407" data-name="Path 17407" d="M4.093,36.335A3.133,3.133,0,0,1,.62,35.73,3.143,3.143,0,0,1,4.093,36.335Z" transform="translate(-0.529 -30.208)" fill="#fff"/>
      <path id="Path_17408" data-name="Path 17408" d="M67.674,29.823a2.544,2.544,0,0,1,.148-1.531.843.843,0,0,1,1.239-.375c.118.068.229.148.354.229l.136-.316-.2-.027a.759.759,0,0,1-.688-.754c-.028-.216-.035-.436-.053-.663a.148.148,0,0,1,.053,0c.182.078.365.148.543.236a.882.882,0,0,1,.474.794v.148l.205-.2c.062-.074.112-.053.161.021s.063.125-.013.189a1.429,1.429,0,0,0-.412.521c-.01.024-.015.049-.03.1l.341-.069a.926.926,0,0,1,1,.487,1.445,1.445,0,0,1,.1.861c-.041.363-.046.363-.363.363h-3ZM68.962,28.3a.577.577,0,0,0-.709.035,1.433,1.433,0,0,0-.269,1.044A1.608,1.608,0,0,1,68.962,28.3Z" transform="translate(-57.634 -22.488)" fill="#fff"/>
      <path id="Path_17409" data-name="Path 17409" d="M3,150.007a106.341,106.341,0,0,1,12.845,0" transform="translate(-2.557 -127.687)" fill="#fff" stroke="#000" stroke-miterlimit="10" stroke-width="0.5"/>
      <path id="Path_17410" data-name="Path 17410" d="M19.629,67.892c-.162-1.014-.348-2.026-.515-3.039-.133-.808-.25-1.617-.375-2.426q-.666-4.305-1.329-8.609a.925.925,0,0,0-1.066-.858H3.249c-.591,0-.868.21-.958.719-.179.988-.36,1.974-.518,2.965-.26,1.624-.5,3.248-.754,4.872-.329,2.136-.651,4.271-.992,6.4A1.441,1.441,0,0,0,1.637,69.65H18.079A1.593,1.593,0,0,0,19.626,68.6a2.253,2.253,0,0,0,0-.7ZM.444,67.468H13.289A71.8,71.8,0,0,1,.444,67.468Zm13.531.774c-.2-.963,1.624-12.413,2.215-13.935a118.378,118.378,0,0,1-2.213,13.935ZM4.268,54.761a.551.551,0,0,1,.876,0,.729.729,0,0,1-.041.977.255.255,0,0,0-.081.2c0,.8-.012,1.593,0,2.389A4.24,4.24,0,0,0,6.985,62.07c2.148,1.367,4.886-.013,5.463-2.727a7.063,7.063,0,0,0,.109-1.485V55.937a.319.319,0,0,0-.078-.192.752.752,0,0,1-.044-1,.555.555,0,0,1,.868,0,.738.738,0,0,1-.047.989.245.245,0,0,0-.081.2v2.389a5.2,5.2,0,0,1-1.156,3.352A4.062,4.062,0,0,1,8.8,63.3a4.571,4.571,0,0,1-4.335-4.155,14.853,14.853,0,0,1-.066-1.8c-.009-.47,0-.939,0-1.407a.233.233,0,0,0-.077-.2A.726.726,0,0,1,4.268,54.761Z" transform="translate(-0.001 -45.141)" fill="#fff"/>
    </g>
  </g>
</svg>
