<svg xmlns="http://www.w3.org/2000/svg" width="25.042" height="30.2" viewBox="0 0 25.042 30.2">
  <g id="Group_18214" data-name="Group 18214" transform="translate(-1629 -339)">
    <g id="Layer_1" data-name="Layer 1" transform="translate(1629 339)">
      <path id="Path_17402" data-name="Path 17402" d="M91.58,30.526a8.159,8.159,0,0,1,2.127-2.738,6.822,6.822,0,0,1,1.934-1.193,6.067,6.067,0,0,1,1.11-.264,1.835,1.835,0,0,1,1.659.477,2.953,2.953,0,0,0,1.252.617.378.378,0,0,1,.156.662.317.317,0,0,1-.235,0,3.838,3.838,0,0,0-3.264.428,6.4,6.4,0,0,0-1.934,1.828.464.464,0,0,1-.426.213H91.882C91.795,30.551,91.711,30.538,91.58,30.526Z" transform="translate(-74.919 -21.517)" fill="#73cf31"/>
      <path id="Path_17403" data-name="Path 17403" d="M111.963,37.62c-.393.32-.862.666-1.273,1.057a3.446,3.446,0,0,0-.65.841.557.557,0,0,1-.7.269A5.226,5.226,0,0,1,111.963,37.62Z" transform="translate(-89.448 -30.776)" fill="#73cf31"/>
      <path id="Path_17404" data-name="Path 17404" d="M42.525,9.054H40.038a.182.182,0,0,1-.2-.118c-.2-.437-.417-.868-.617-1.3-.182-.378-.342-.76-.5-1.143-.182-.429-.349-.862-.517-1.3-.095-.246-.182-.5-.264-.746-.093-.282-.182-.562-.267-.846-.089-.315-.158-.635-.253-.948a6.071,6.071,0,0,1-.224-1.55,2.851,2.851,0,0,1,.036-.546c.086-.586.522-.691,1.019-.393A3.457,3.457,0,0,1,39.1.869c.347.4.7.8,1.03,1.215.191.235.364.484.528.728.258.388.513.779.759,1.173.182.3.364.609.546.91.193.335.38.671.566,1.008a.162.162,0,0,1,.013.078V9A.269.269,0,0,1,42.525,9.054ZM40.2,7.868c.018.249.024.431.047.611,0,.055.062.106.095.158a1.749,1.749,0,0,0,.182-.111.276.276,0,0,0,.064-.107,8.266,8.266,0,0,0,.393-.988,7.706,7.706,0,0,0,.313-1.9,2.173,2.173,0,0,0-.038-.406A.2.2,0,0,0,41.142,5c-.029-.011-.107.04-.133.078a4.376,4.376,0,0,0-.331.6,5.052,5.052,0,0,0-.246.848C40.331,6.986,40.269,7.46,40.2,7.868Zm-.364-4.8c-.016-.182-.025-.364-.055-.557a.2.2,0,0,0-.111-.138.207.207,0,0,0-.16.089,4.1,4.1,0,0,0-.364.757,9.162,9.162,0,0,0-.311,1.335,6.32,6.32,0,0,0-.013,1.017.2.2,0,0,0,.118.146.206.206,0,0,0,.164-.1,5.618,5.618,0,0,0,.364-.759A5.763,5.763,0,0,0,39.705,4c.065-.313.093-.62.135-.941Z" transform="translate(-30.427 -0.001)" fill="#73cf31"/>
      <path id="Path_17405" data-name="Path 17405" d="M26.731,40.569H21.724a1.5,1.5,0,0,1,.255-.9,2.984,2.984,0,0,1,.28-.346,2.73,2.73,0,0,1,2.451-.742,2.505,2.505,0,0,1,1.565.83A1.7,1.7,0,0,1,26.731,40.569Z" transform="translate(-17.771 -31.531)" fill="#73cf31"/>
      <path id="Path_17406" data-name="Path 17406" d="M21.36,19.714a2.379,2.379,0,0,1,.029-4.184c.182.167.375.331.546.511a2.421,2.421,0,0,1,.58,1.081,1.79,1.79,0,0,1,.044.859,2.585,2.585,0,0,1-1.092,1.646.662.662,0,0,0-.056.044Z" transform="translate(-16.467 -12.705)" fill="#73cf31"/>
      <path id="Path_17407" data-name="Path 17407" d="M4.9,36.543c-1.117.708-3.637.273-4.279-.746C1.586,35.06,4.311,35.542,4.9,36.543Z" transform="translate(-0.507 -28.993)" fill="#73cf31"/>
      <path id="Path_17408" data-name="Path 17408" d="M67.687,30.622a3.135,3.135,0,0,1,.182-1.887,1.039,1.039,0,0,1,1.526-.462c.146.084.282.182.437.282L70,28.166l-.242-.033a.935.935,0,0,1-.848-.93c-.035-.266-.044-.537-.065-.817a.182.182,0,0,1,.065,0c.224.1.449.182.67.291a1.087,1.087,0,0,1,.584.979v.182l.253-.251c.076-.091.138-.065.2.025s.078.155-.016.233a1.761,1.761,0,0,0-.508.642c-.013.029-.018.06-.036.118l.42-.086a1.141,1.141,0,0,1,1.233.6,1.781,1.781,0,0,1,.127,1.061c-.051.448-.056.448-.448.448h-3.7Zm1.586-1.874a.711.711,0,0,0-.873.044,1.765,1.765,0,0,0-.331,1.286A1.981,1.981,0,0,1,69.274,28.748Z" transform="translate(-55.316 -21.584)" fill="#73cf31"/>
      <path id="Path_17409" data-name="Path 17409" d="M3,150.054a131.031,131.031,0,0,1,15.828,0" transform="translate(-2.454 -122.552)" fill="#73cf31"/>
      <path id="Path_17410" data-name="Path 17410" d="M24.187,71.359c-.2-1.25-.429-2.5-.635-3.744-.164-1-.307-1.992-.462-2.989q-.821-5.305-1.637-10.608a1.139,1.139,0,0,0-1.314-1.057H4c-.728,0-1.07.258-1.181.886-.22,1.217-.444,2.432-.639,3.653-.32,2-.62,4-.93,6C.849,66.135.452,68.766.032,71.4a1.775,1.775,0,0,0,1.985,2.13h20.26a1.963,1.963,0,0,0,1.907-1.3,2.776,2.776,0,0,0,0-.868ZM.547,70.837H16.375A88.475,88.475,0,0,1,.547,70.837Zm16.672.953c-.244-1.186,2-15.295,2.729-17.171A145.864,145.864,0,0,1,17.221,71.79ZM5.259,55.18a.679.679,0,0,1,1.079,0,.9.9,0,0,1-.051,1.2.315.315,0,0,0-.1.251c0,.981-.015,1.963,0,2.944a5.225,5.225,0,0,0,2.42,4.607c2.647,1.685,6.02-.016,6.731-3.36a8.7,8.7,0,0,0,.135-1.83V56.628a.393.393,0,0,0-.1-.237.926.926,0,0,1-.055-1.226.684.684,0,0,1,1.07,0,.91.91,0,0,1-.058,1.219.3.3,0,0,0-.1.244v2.944a6.4,6.4,0,0,1-1.425,4.13,5.005,5.005,0,0,1-3.962,2A5.633,5.633,0,0,1,5.5,60.583a18.3,18.3,0,0,1-.082-2.214c-.011-.579,0-1.157,0-1.734a.287.287,0,0,0-.095-.246A.9.9,0,0,1,5.259,55.18Z" transform="translate(-0.001 -43.325)" fill="#73cf31"/>
    </g>
  </g>
</svg>
