<svg id="Layer_1" data-name="Layer 1" xmlns="http://www.w3.org/2000/svg" width="83.771" height="101.026" viewBox="0 0 83.771 101.026">
  <path id="Path_17411" data-name="Path 17411" d="M91.58,40.432c1.868-3.481,3.931-6.695,7.114-9.159a22.822,22.822,0,0,1,6.469-3.992,20.291,20.291,0,0,1,3.712-.882,6.139,6.139,0,0,1,5.55,1.595c1.169,1.217,2.714,1.528,4.187,2.063a1.266,1.266,0,0,1,.523,2.215,1.059,1.059,0,0,1-.785,0c-3.919-1.29-7.474-.554-10.918,1.43a21.4,21.4,0,0,0-6.469,6.116,1.552,1.552,0,0,1-1.424.712H92.59C92.3,40.517,92.018,40.475,91.58,40.432Z" transform="translate(-35.846 -10.295)" fill="#365394"/>
  <path id="Path_17412" data-name="Path 17412" d="M118.116,37.62c-1.315,1.071-2.885,2.227-4.26,3.536a11.528,11.528,0,0,0-2.173,2.812,1.864,1.864,0,0,1-2.343.9C110.527,42.184,115.4,38.277,118.116,37.62Z" transform="translate(-42.797 -14.726)" fill="#365394"/>
  <path id="Path_17413" data-name="Path 17413" d="M55.029,30.284H46.71a.609.609,0,0,1-.669-.4c-.682-1.461-1.394-2.9-2.063-4.364-.609-1.266-1.144-2.544-1.68-3.822-.609-1.436-1.169-2.885-1.728-4.339-.316-.822-.609-1.661-.882-2.5-.31-.943-.609-1.881-.895-2.83-.3-1.053-.529-2.124-.846-3.171A20.309,20.309,0,0,1,37.2,3.683a9.537,9.537,0,0,1,.122-1.826C37.605-.1,39.066-.456,40.727.542A11.563,11.563,0,0,1,43.581,2.9c1.162,1.345,2.331,2.69,3.445,4.065.639.785,1.217,1.619,1.765,2.434.864,1.3,1.716,2.6,2.538,3.925.609,1,1.217,2.039,1.826,3.043.645,1.12,1.272,2.246,1.893,3.372a.541.541,0,0,1,.043.262V30.09A.9.9,0,0,1,55.029,30.284Zm-7.766-3.968c.061.834.079,1.442.158,2.045,0,.183.207.353.316.529a5.856,5.856,0,0,0,.609-.371.925.925,0,0,0,.213-.359,27.657,27.657,0,0,0,1.315-3.3,25.782,25.782,0,0,0,1.047-6.372,7.265,7.265,0,0,0-.128-1.357.663.663,0,0,0-.389-.42c-.1-.037-.359.134-.444.262a14.646,14.646,0,0,0-1.108,2A16.909,16.909,0,0,0,48.03,21.8C47.689,23.365,47.483,24.953,47.263,26.316ZM46.046,10.243c-.055-.609-.085-1.217-.183-1.862a.663.663,0,0,0-.371-.463.694.694,0,0,0-.536.3,13.73,13.73,0,0,0-1.217,2.532A30.649,30.649,0,0,0,42.7,15.215a21.134,21.134,0,0,0-.043,3.4.651.651,0,0,0,.4.487.688.688,0,0,0,.548-.323,18.806,18.806,0,0,0,1.217-2.538A19.279,19.279,0,0,0,45.6,13.39c.219-1.047.31-2.075.45-3.146Z" transform="translate(-14.558 -0.001)" fill="#365394"/>
  <path id="Path_17414" data-name="Path 17414" d="M38.476,45.321H21.727a5.009,5.009,0,0,1,.852-3.006,9.979,9.979,0,0,1,.937-1.156,9.133,9.133,0,0,1,8.2-2.483,8.38,8.38,0,0,1,5.234,2.775A5.672,5.672,0,0,1,38.476,45.321Z" transform="translate(-8.503 -15.087)" fill="#365394"/>
  <path id="Path_17415" data-name="Path 17415" d="M24.25,29.528c-5.386-3.311-5.636-10.346.1-14,.609.56,1.254,1.108,1.826,1.71a8.1,8.1,0,0,1,1.941,3.615,5.988,5.988,0,0,1,.146,2.873,8.648,8.648,0,0,1-3.652,5.508,2.217,2.217,0,0,0-.189.146Z" transform="translate(-7.879 -6.079)" fill="#365394"/>
  <path id="Path_17416" data-name="Path 17416" d="M14.934,39.128C11.2,41.5,2.768,40.041.62,36.633,3.852,34.168,12.968,35.781,14.934,39.128Z" transform="translate(-0.243 -13.873)" fill="#365394"/>
  <path id="Path_17417" data-name="Path 17417" d="M67.85,40.562a10.486,10.486,0,0,1,.609-6.311A3.475,3.475,0,0,1,73.565,32.7c.487.28.943.609,1.461.943l.56-1.3-.809-.11c-1.637-.207-2.593-1.217-2.836-3.11-.116-.889-.146-1.8-.219-2.733a.608.608,0,0,1,.219,0c.749.323,1.5.609,2.24.974a3.635,3.635,0,0,1,1.954,3.274v.609l.846-.84c.256-.3.463-.219.663.085s.262.517-.055.779a5.892,5.892,0,0,0-1.7,2.148c-.043.1-.061.2-.122.4l1.406-.286A3.816,3.816,0,0,1,81.3,35.541a5.958,5.958,0,0,1,.426,3.548c-.17,1.5-.189,1.5-1.5,1.5H67.85Zm5.307-6.269a2.38,2.38,0,0,0-2.921.146,5.905,5.905,0,0,0-1.108,4.3C69.98,36.667,71.052,34.9,73.157,34.293Z" transform="translate(-26.467 -10.328)" fill="#365394"/>
  <path id="Path_17418" data-name="Path 17418" d="M3,150.636s28.038-1.868,52.948,0" transform="translate(-1.175 -58.635)" fill="#365394" stroke="#000" stroke-miterlimit="10" stroke-width="0.5"/>
  <path id="Path_17419" data-name="Path 17419" d="M80.907,114.507c-.669-4.181-1.436-8.35-2.124-12.525-.548-3.329-1.029-6.664-1.546-10Q74.493,74.236,71.76,56.5c-.371-2.434-1.747-3.536-4.394-3.536H13.39c-2.434,0-3.579.864-3.95,2.964C8.7,60,7.955,64.061,7.3,68.144c-1.071,6.695-2.075,13.389-3.11,20.084C2.837,97.034,1.51,105.835.1,114.629c-.669,4.2,1.978,7.127,6.64,7.127H74.517c2.58,0,5.94-1.765,6.378-4.345a9.287,9.287,0,0,0,.012-2.9ZM25.561,60.774a2.434,2.434,0,0,1,2.964.548,1.826,1.826,0,0,1-.341,2.787,2.142,2.142,0,0,0-1.029,1.826c-.146,1.1-.371,2.2-.481,3.3-.25,2.58,1.826,4.662,4.637,4.735h3.311v.061a41.312,41.312,0,0,0,4.169-.225,4.26,4.26,0,0,0,3.81-3.652c.274-1.735.554-3.463.779-5.2A1.406,1.406,0,0,0,43.052,64a1.954,1.954,0,0,1,.243-3.043,2.4,2.4,0,0,1,3.238.353,2.021,2.021,0,0,1-.523,3.043,2,2,0,0,0-.724,1.108c-.3,1.552-.481,3.128-.736,4.692-.609,3.652-3.359,5.721-7.425,5.642q-2.757-.055-5.514-.043c-4.364,0-7.394-3.1-6.828-7.06.116-.767.274-1.528.371-2.294.122-1,.469-1.941-.45-2.921C23.937,62.637,24.515,61.328,25.561,60.774ZM1.826,112.761H54.774S26.779,115.53,1.826,112.761ZM57.6,115.95c-.816-3.968,6.695-51.165,9.129-57.439-1.57,19.335-5.258,38.4-9.123,57.439Z" transform="translate(-0.001 -20.73)" fill="#365394"/>
</svg>
