<svg xmlns="http://www.w3.org/2000/svg" width="339.42" height="144.065" viewBox="0 0 339.42 144.065">
  <g id="Group_17033" data-name="Group 17033" transform="translate(-18 -108.923)">
    <g id="Group_17032" data-name="Group 17032" transform="translate(-2.58)">
      <g id="undraw_Code_thinking_re_gka2" transform="translate(28 94)">
        <path id="Path_19270" data-name="Path 19270" d="M282.759,468.99a3.51,3.51,0,1,0-6.986.461l-10.085,13.206a4.89,4.89,0,0,0,.661,5.369l.791.923,3.63-.726,4.114-3.63-.484-4.114,5.082-7.986-.007-.006A3.507,3.507,0,0,0,282.759,468.99Z" transform="translate(-202.205 -381.292)" fill="#ffb9b9"/>
        <path id="Path_19271" data-name="Path 19271" d="M27.114,395.637l-1.646-6.114,22.8-9.258,2.43,9.023Z" transform="translate(-16.3 -243.375)" fill="#ffb8b8"/>
        <path id="Path_19272" data-name="Path 19272" d="M95.566,630.18l-5.308-22.118.249-.075c4.238-1.28,8.6,1.536,9.739,6.291h0l3.242,13.509Z" transform="translate(-90.258 -472.317)" fill="#2f2e41"/>
        <path id="Path_19273" data-name="Path 19273" d="M108.174,375.368l-5.12-3.724,11.927-21.523,7.558,5.5Z" transform="translate(-65.956 -224.083)" fill="#ffb8b8"/>
        <path id="Path_19274" data-name="Path 19274" d="M172.39,641.466l-17.119-12.522.157-.218a8.208,8.208,0,0,1,11.509-1.828h0l10.456,7.648Z" transform="translate(-131.867 -483.603)" fill="#2f2e41"/>
        <path id="Path_19275" data-name="Path 19275" d="M247.137,542.838l-12.886-12.518a6.507,6.507,0,0,0-8.52-.476L201.4,556.873l2.178,3.388,23.231-15.729L242.539,565.1l15-7.5Z" transform="translate(-161.391 -421.629)" fill="#2f2e41"/>
        <path id="Path_19276" data-name="Path 19276" d="M272.562,568.648l-9.438-.726-6.835-1.657a3.511,3.511,0,1,0-.666,4.556v0l4.114,1.694,17.665,6.05,2.178-1.694Z" transform="translate(-192.382 -444.777)" fill="#ffb9b9"/>
        <path id="Path_19277" data-name="Path 19277" d="M134.909,370.234l-5.324,3.388h-6.292l-29.281-10.89-42.832,7.744-1.21-9.2,39.2-17.181,34.362,11.373Z" transform="translate(-31.982 -220.228)" fill="#2f2e41"/>
        <circle id="Ellipse_571" data-name="Ellipse 571" cx="9.438" cy="9.438" r="9.438" transform="translate(82.116 72.326)" fill="#ffb9b9"/>
        <path id="Path_19278" data-name="Path 19278" d="M325.98,516.387a54.224,54.224,0,0,1-2.659,16.771l-.707,2.174-3.388,15.487-3.63.968-2.662-3.388-5.324-3.872-3.872-6.292-3.32-5.532-1.036-1.728-3.63-18.149-13.793-7.744-4.6-.726.968-2.662,4.114-5.566,4.114-.484,1.21-.968.968.484,5.336,2.056,17.3-7.309,2.531.414,8.712,7.26A54.178,54.178,0,0,1,325.98,516.387Z" transform="translate(-210.007 -396.943)" fill="#3f3d56"/>
        <path id="Path_19279" data-name="Path 19279" d="M267.07,305.3l-9.2,6.05-13.726,12.375L243.113,322l-2.9-14.519h.726l7.5-13.793Z" transform="translate(-153.737 -187.961)" opacity="0.1"/>
        <path id="Path_19280" data-name="Path 19280" d="M235.1,289.649l-7.5,13.793-4.356,4.84-3.872.968,10.405,11.373,14.761-13.309,9.2-6.05Z" transform="translate(-140.4 -185.38)" fill="#3f3d56"/>
        <path id="Path_19281" data-name="Path 19281" d="M318.367,426.137l-1.023.393a1.428,1.428,0,0,1-.382-1.982l.017-.024-1.89-.088a14.269,14.269,0,0,1,21.3-1.717c.086-.3,1.024.28,1.407.865.129-.482,1.008,1.849,1.319,3.5.144-.549.7.337.213,1.187.307-.045.446.741.208,1.179.336-.158.28.781-.085,1.408.48-.043-.041,9.839-7.241,9.119-.5-2.3-.36-2.16-.95-5.121-.275-.292-.576-.557-.876-.822l-1.624-1.434c-1.889-1.667-3.607-3.725-6.124-4.348-1.729-.428-2.823-.525-1.88-2.474-.852.355-1.647.884-2.506,1.214C318.263,426.714,318.383,426.409,318.367,426.137Z" transform="translate(-234.153 -351.39)" fill="#2f2e41"/>
        <circle id="Ellipse_572" data-name="Ellipse 572" cx="1.694" cy="1.694" r="1.694" transform="translate(94.579 81.159)" fill="#ffb9b9"/>
        <rect id="Rectangle_3624" data-name="Rectangle 3624" width="7.779" height="7.779" transform="translate(16.762 50.608) rotate(-86.19)" fill="#d83564"/>
        <path id="Path_19282" data-name="Path 19282" d="M123.228,362.131l9.425.628-.628,9.425-9.425-.628Zm8.988,1.01-8.606-.573-.573,8.606,8.606.573Z" transform="translate(-110.957 -315.163)" fill="#73ce31"/>
        <rect id="Rectangle_3625" data-name="Rectangle 3625" width="7.779" height="7.779" transform="matrix(0.978, -0.21, 0.21, 0.978, 53.539, 21.463)" fill="#365394"/>
        <path id="Path_19283" data-name="Path 19283" d="M228.858,276.51l1.984,9.236-9.236,1.984-1.984-9.236Zm1.5,8.92L228.543,277l-8.432,1.812,1.812,8.432Z" transform="translate(-173.053 -260.365)" fill="#73ce31"/>
        <rect id="Rectangle_3626" data-name="Rectangle 3626" width="7.779" height="7.779" transform="matrix(0.73, -0.684, 0.684, 0.73, 47.474, 61.673)" fill="#fec400"/>
        <path id="Path_19284" data-name="Path 19284" d="M230.076,373.739l-6.894,6.457-6.458-6.894,6.894-6.458Zm-6.875,5.877,6.295-5.9-5.9-6.295-6.295,5.9Z" transform="translate(-171.198 -318.18)" fill="#73ce31"/>
        <path id="Path_19285" data-name="Path 19285" d="M585.841,231.659H401.624a5.07,5.07,0,0,0-5.07,5.07V339.371a5.07,5.07,0,0,0,5.07,5.07H585.841a5.07,5.07,0,0,0,5.07-5.07V236.73a5.07,5.07,0,0,0-5.07-5.07Z" transform="translate(-283.221 -197.702)" fill="#3f3d56"/>
        <rect id="Rectangle_3627" data-name="Rectangle 3627" width="180.76" height="101.967" transform="translate(120.13 42.918)" fill="#fff"/>
        <ellipse id="Ellipse_573" data-name="Ellipse 573" cx="1.854" cy="1.854" rx="1.854" ry="1.854" transform="translate(208.502 36.429)" fill="#fff"/>
        <path id="Path_19286" data-name="Path 19286" d="M458.956,133.069H329.89V31.1Z" transform="translate(-209.76 11.816)" fill="rgba(216,53,100,0.07)"/>
        <ellipse id="Ellipse_574" data-name="Ellipse 574" cx="17.375" cy="17.375" rx="17.375" ry="17.375" transform="translate(131.038 102.505)" fill="#365394"/>
        <path id="Path_19287" data-name="Path 19287" d="M478.338,468.4a21.613,21.613,0,1,1,21.613-21.613A21.613,21.613,0,0,1,478.338,468.4Zm0-42.944a21.331,21.331,0,1,0,21.331,21.331,21.331,21.331,0,0,0-21.331-21.331Z" transform="translate(-326.057 -335.466)" fill="#73ce31"/>
        <rect id="Rectangle_3629" data-name="Rectangle 3629" width="48.834" height="1.512" transform="translate(226.185 76.779)" fill="#365394"/>
        <rect id="Rectangle_3630" data-name="Rectangle 3630" width="48.834" height="1.512" transform="translate(226.185 82.719)" fill="#365394"/>
        <rect id="Rectangle_3631" data-name="Rectangle 3631" width="48.834" height="1.512" transform="translate(226.185 88.66)" fill="#365394"/>
        <rect id="Rectangle_3632" data-name="Rectangle 3632" width="7.056" height="7.056" transform="translate(281.045 49.02)" fill="#365394"/>
        <path id="Path_19288" data-name="Path 19288" d="M993.349,298.633H984.78v-8.569h8.569Zm-8.2-.373h7.823v-7.823h-7.823Z" transform="translate(-701.972 -239.28)" fill="#d83564"/>
        <path id="Path_19289" data-name="Path 19289" d="M576.9,606.476H559.257V605.2a.252.252,0,0,0-.252-.252h-6.048a.252.252,0,0,0-.252.252v1.271h-3.78V605.2a.252.252,0,0,0-.252-.252h-6.049a.252.252,0,0,0-.252.252h0v1.271h-3.78V605.2a.252.252,0,0,0-.252-.252h-6.048a.252.252,0,0,0-.252.252h0v1.271h-3.78V605.2a.252.252,0,0,0-.252-.252h-6.048a.252.252,0,0,0-.252.252v1.271h-3.78V605.2a.252.252,0,0,0-.252-.252h-6.048a.252.252,0,0,0-.252.252h0v1.271h-3.78V605.2a.252.252,0,0,0-.252-.252h-6.048a.252.252,0,0,0-.252.252h0v1.271h-3.78V605.2a.252.252,0,0,0-.252-.252H449.631a.252.252,0,0,0-.252.252h0v1.271H445.6V605.2a.252.252,0,0,0-.252-.252H439.3a.252.252,0,0,0-.252.252h0v1.271h-3.78V605.2a.252.252,0,0,0-.252-.252h-6.048a.252.252,0,0,0-.252.252h0v1.271h-3.78V605.2a.252.252,0,0,0-.252-.252h-6.048a.252.252,0,0,0-.252.252h0v1.271H414.6V605.2a.252.252,0,0,0-.252-.252H408.3a.252.252,0,0,0-.252.252h0v1.271h-3.78V605.2a.252.252,0,0,0-.252-.252h-6.048a.252.252,0,0,0-.252.252v1.271h-3.78V605.2a.252.252,0,0,0-.252-.252h-6.048a.252.252,0,0,0-.252.252h0v1.271H375.79a6.048,6.048,0,0,0-6.048,6.048v2.735a6.048,6.048,0,0,0,6.048,6.048H576.9a6.048,6.048,0,0,0,6.048-6.048v-2.735a6.048,6.048,0,0,0-6.048-6.048Z" transform="translate(-264.135 -463.444)" fill="#3f3d56"/>
      </g>
      <path id="Path_19321" data-name="Path 19321" d="M613.96,731.742H275.784a.565.565,0,1,1,0-1.124H613.96a.565.565,0,1,1,0,1.124Z" transform="translate(-254.582 -478.754)" fill="#3f3d56"/>
    </g>
    <rect id="Rectangle_3634" data-name="Rectangle 3634" width="7.779" height="7.779" transform="translate(323.182 124.989) rotate(-86.19)" fill="#d83564"/>
    <rect id="Rectangle_3635" data-name="Rectangle 3635" width="7.779" height="7.779" transform="matrix(0.978, -0.21, 0.21, 0.978, 343.916, 114.241)" fill="#365394"/>
    <path id="Path_19323" data-name="Path 19323" d="M228.858,276.51l1.984,9.236-9.236,1.984-1.984-9.236Zm1.5,8.92L228.543,277l-8.432,1.812,1.812,8.432Z" transform="translate(117.323 -167.587)" fill="#73ce31"/>
    <rect id="Rectangle_3636" data-name="Rectangle 3636" width="7.779" height="7.779" transform="matrix(0.73, -0.684, 0.684, 0.73, 338.894, 140.673)" fill="#fec400"/>
    <path id="Path_19324" data-name="Path 19324" d="M230.076,373.739l-6.894,6.457-6.458-6.894,6.894-6.458Zm-6.875,5.877,6.295-5.9-5.9-6.295-6.295,5.9Z" transform="translate(120.222 -239.18)" fill="#73ce31"/>
  </g>
</svg>
