<svg xmlns="http://www.w3.org/2000/svg" width="321.013" height="192.632" viewBox="0 0 321.013 192.632">
  <g id="Group_17025" data-name="Group 17025" transform="translate(23.817 -24.14)">
    <rect id="Rectangle_3617" data-name="Rectangle 3617" width="13.093" height="13.093" transform="translate(279.31 42.942) rotate(-30)" fill="#365394"/>
    <rect id="Rectangle_3618" data-name="Rectangle 3618" width="13.093" height="13.093" transform="translate(10.089 69.999) rotate(-30)" fill="#fec400"/>
    <rect id="Rectangle_3619" data-name="Rectangle 3619" width="13.093" height="13.093" transform="translate(270.367 167.517) rotate(-30)" fill="#e5e5e5"/>
    <rect id="Rectangle_3622" data-name="Rectangle 3622" width="310.615" height="0.718" transform="translate(-15.88 216.054)" fill="#365394"/>
    <rect id="Rectangle_3637" data-name="Rectangle 3637" width="7.779" height="7.779" transform="translate(-18.698 178.381) rotate(-86.19)" fill="#d83564"/>
    <path id="Path_19353" data-name="Path 19353" d="M123.228,362.131l9.425.628-.628,9.425-9.425-.628Zm8.988,1.01-8.606-.573-.573,8.606,8.606.573Z" transform="translate(-146.417 -187.391)" fill="#73ce31"/>
    <rect id="Rectangle_3638" data-name="Rectangle 3638" width="7.779" height="7.779" transform="matrix(0.978, -0.21, 0.21, 0.978, 18.079, 149.236)" fill="#365394"/>
    <path id="Path_19354" data-name="Path 19354" d="M228.858,276.51l1.984,9.236-9.236,1.984-1.984-9.236Zm1.5,8.92L228.543,277l-8.432,1.812,1.812,8.432Z" transform="translate(-208.513 -132.592)" fill="#73ce31"/>
    <rect id="Rectangle_3639" data-name="Rectangle 3639" width="7.779" height="7.779" transform="matrix(0.73, -0.684, 0.684, 0.73, 12.014, 189.446)" fill="#fec400"/>
    <path id="Path_19355" data-name="Path 19355" d="M230.076,373.739l-6.894,6.457-6.458-6.894,6.894-6.458Zm-6.875,5.877,6.295-5.9-5.9-6.295-6.295,5.9Z" transform="translate(-206.658 -190.407)" fill="#73ce31"/>
    <g id="Group_17034" data-name="Group 17034" transform="translate(-4147.359 2004.817)">
      <path id="Path_19326" data-name="Path 19326" d="M682.3,413.456c-4.732-4-7.607-10.316-6.853-16.465s5.423-11.8,11.479-13.109,12.96,2.309,14.8,8.225c1.012-11.406,2.179-23.29,8.243-33a34.952,34.952,0,0,1,25.309-16.214,31.36,31.36,0,0,1,27.587,11.262c6.428,8.135,8,19.962,3.5,29.3-3.317,6.88-9.427,12-15.829,16.167a102.159,102.159,0,0,1-69.87,15.285Z" transform="translate(3641.01 -2302.802)" fill="#eaf6f6"/>
      <path id="Path_19327" data-name="Path 19327" d="M796.87,351.521a168.569,168.569,0,0,0-49.53,66.974c-.472,1.158,1.408,1.662,1.875.517a166.692,166.692,0,0,1,49.03-66.116c.971-.79-.412-2.158-1.375-1.375Z" transform="translate(3596.81 -2308.07)" fill="rgba(54,83,148,0.8)"/>
      <path id="Path_19328" data-name="Path 19328" d="M298.347,576.915q-1.446.214-2.9.382a102.223,102.223,0,0,1-66.97-15.667c-6.4-4.164-12.513-9.285-15.829-16.168-4.5-9.339-2.927-21.165,3.5-29.3a29.235,29.235,0,0,1,8.495-7.241c.486-.282.979-.544,1.481-.794a31.862,31.862,0,0,1,17.61-3.227,34.966,34.966,0,0,1,25.31,16.214c6.062,9.713,7.23,21.6,8.24,33,.081-.262.174-.521.274-.771a10.379,10.379,0,0,1,.771-1.55v18.948a5.791,5.791,0,0,0,5.784,5.784h13.793Z" transform="translate(3926.859 -2402.346)" fill="#eaf6f6"/>
      <path id="Path_19329" data-name="Path 19329" d="M249.534,513.521a167.141,167.141,0,0,1,23.294,23.13,167.635,167.635,0,0,1,26.236,43.843c.472,1.158-1.407,1.662-1.875.517a166.691,166.691,0,0,0-49.03-66.116c-.971-.79.412-2.159,1.375-1.375Z" transform="translate(3903.667 -2407.604)" fill="#365394"/>
      <path id="Path_19330" data-name="Path 19330" d="M560.469,555.583H460.407V544.593a3.663,3.663,0,1,0-7.326,0v14.653a3.674,3.674,0,0,0,3.663,3.663H560.469a3.663,3.663,0,1,0,0-7.326Z" transform="translate(3777.559 -2424.589)" fill="#f2f2f2"/>
      <path id="Path_19331" data-name="Path 19331" d="M544.724,690.93H327.635a6.564,6.564,0,0,0-6.555,6.555V717.15a6.564,6.564,0,0,0,6.555,6.555H544.724a6.564,6.564,0,0,0,6.555-6.555V697.485A6.564,6.564,0,0,0,544.724,690.93Zm5.784,26.22a5.791,5.791,0,0,1-5.784,5.784H327.635a5.791,5.791,0,0,1-5.784-5.784V697.485a5.791,5.791,0,0,1,5.784-5.784H544.724a5.791,5.791,0,0,1,5.784,5.784Z" transform="translate(3858.661 -2516.75)" fill="#3f3d56"/>
      <path id="Path_19332" data-name="Path 19332" d="M542.109,721.583h-200.7V710.593a3.663,3.663,0,0,0-7.326,0v14.653a3.674,3.674,0,0,0,3.663,3.663H542.109a3.663,3.663,0,1,0,0-7.326Z" transform="translate(3850.673 -2526.58)" fill="#f2f2f2"/>
      <path id="Path_19333" data-name="Path 19333" d="M546.185,633.583H406.407V622.593a3.663,3.663,0,1,0-7.326,0v14.653a3.674,3.674,0,0,0,3.663,3.663H546.185a3.663,3.663,0,0,0,0-7.326Z" transform="translate(3810.737 -2472.512)" fill="#f2f2f2"/>
      <path id="Path_19334" data-name="Path 19334" d="M548.163,703.3c-30.848-7.712-96.4,3.085-97.555,3.085-1.13,0-72.843,10.662-70.479-14.68.023-.255.054-.509.093-.771h192.5c.046.228.093.486.135.771C573.6,696.725,573.234,709.566,548.163,703.3Z" transform="translate(3822.416 -2516.75)" fill="#d83564"/>
      <path id="Path_19335" data-name="Path 19335" d="M559.754,607.93H391.635a6.565,6.565,0,0,0-6.555,6.555V634.15a6.57,6.57,0,0,0,6.555,6.555H559.754a6.58,6.58,0,0,0,6.555-6.555V614.485a6.564,6.564,0,0,0-6.555-6.555Zm5.784,26.221a5.8,5.8,0,0,1-5.784,5.784H391.635a5.8,5.8,0,0,1-5.784-5.784V614.485a5.791,5.791,0,0,1,5.784-5.784H559.754a5.791,5.791,0,0,1,5.784,5.784Z" transform="translate(3819.339 -2465.754)" fill="#3f3d56"/>
      <path id="Path_19336" data-name="Path 19336" d="M548.507,618.809c-26.962-6.741-84.258,2.7-85.269,2.7-.987,0-63.668,9.319-61.6-12.831.02-.223.047-.445.081-.674H569.972c.04.2.081.425.118.674C570.741,613.066,570.421,624.289,548.507,618.809Z" transform="translate(3809.198 -2465.797)" fill="#d83564"/>
      <path id="Path_19337" data-name="Path 19337" d="M571.5,556.706H444.636a6.563,6.563,0,0,1-6.555-6.555V530.485a6.563,6.563,0,0,1,6.555-6.555H571.5a6.563,6.563,0,0,1,6.555,6.555V550.15A6.563,6.563,0,0,1,571.5,556.706Zm-126.86-32a5.79,5.79,0,0,0-5.784,5.784V550.15a5.79,5.79,0,0,0,5.784,5.784H571.5a5.791,5.791,0,0,0,5.784-5.784V530.485A5.79,5.79,0,0,0,571.5,524.7Z" transform="translate(3786.775 -2414.144)" fill="#3f3d56"/>
      <path id="Path_19338" data-name="Path 19338" d="M565.247,532.327c-20.675-5.169-64.61,2.068-65.385,2.068-.757,0-48.822,7.146-47.237-9.839.016-.171.036-.341.062-.517H581.707c.031.152.062.326.09.517C582.3,527.923,582.05,536.529,565.247,532.327Z" transform="translate(3777.863 -2414.211)" fill="#d83564"/>
      <path id="Path_19339" data-name="Path 19339" d="M582.635,408.556a4.045,4.045,0,0,0,.019.639l-14.648,12.293-4.368-1.582-3.248,6.28,9.55,4.546,16.014-17.97a4.047,4.047,0,1,0-3.319-4.207Z" transform="translate(3711.627 -2340.909)" fill="#ffb8b8"/>
      <path id="Path_19340" data-name="Path 19340" d="M539.114,443.949l-14.145-5.106a5.206,5.206,0,0,1,3.535-9.793l14.145,5.106a1.735,1.735,0,0,1,1.043,2.221l-2.356,6.529a1.738,1.738,0,0,1-2.221,1.043Z" transform="translate(3735.504 -2355.659)" fill="#2f2e41"/>
      <path id="Path_19341" data-name="Path 19341" d="M616.467,365.968a.386.386,0,0,1-.386-.386V351.316a.386.386,0,1,1,.771,0v14.267A.386.386,0,0,1,616.467,365.968Z" transform="translate(3677.41 -2307.852)" fill="#3f3d56"/>
      <path id="Path_19342" data-name="Path 19342" d="M610.734,310.38c3.588,3.334-.886,10.411-5.784,10.411a8.869,8.869,0,0,1-8.869-8.869c0-4.9,9.585-26.5,7.712-21.979C603.195,291.388,606.624,306.562,610.734,310.38Z" transform="translate(3689.698 -2270.001)" fill="#fec400"/>
      <path id="Path_19343" data-name="Path 19343" d="M612.871,421.231h-6.555a1.737,1.737,0,0,1-1.735-1.735V380.165a1.737,1.737,0,0,1,1.735-1.735h6.555a1.737,1.737,0,0,1,1.735,1.735V419.5A1.737,1.737,0,0,1,612.871,421.231Z" transform="translate(3684.476 -2324.748)" fill="#ccc"/>
      <path id="Path_19344" data-name="Path 19344" d="M330.184,414.051h4.727l2.249-18.234h-6.977Z" transform="translate(3934.074 -2276.022)" fill="#3f3d56"/>
      <path id="Path_19345" data-name="Path 19345" d="M0,0H14.858V5.74H5.74A5.74,5.74,0,0,1,0,0H0Z" transform="translate(4278.102 -1857.581) rotate(179.997)" fill="#2f2e41"/>
      <path id="Path_19346" data-name="Path 19346" d="M299.887,403.5l3.867,2.719L316.082,392.6l-5.708-4.013Z" transform="translate(3952.688 -2271.579)" fill="#ffb8b8"/>
      <path id="Path_19347" data-name="Path 19347" d="M0,0H14.857V5.74H5.74A5.74,5.74,0,0,1,0,0H0Z" transform="matrix(-0.818, -0.575, 0.575, -0.818, 4261.375, -1856.524)" fill="#2f2e41"/>
      <path id="Path_19348" data-name="Path 19348" d="M541.547,511.834s11.8-1.392,9.68,6.263-25.712,14.267-25.712,14.267Z" transform="translate(3733.054 -2406.651)" fill="#ffb8b8"/>
      <circle id="Ellipse_578" data-name="Ellipse 578" cx="9.471" cy="9.471" r="9.471" transform="translate(4257.012 -1952.82)" fill="#ffb8b8"/>
      <path id="Path_19349" data-name="Path 19349" d="M460.4,473.461c-5.389-6.275-7.275-15.905,1.319-23.915a28.327,28.327,0,0,1,7.128-4.733l6.926-19.37a10.555,10.555,0,0,1,9.754-7.016,10.1,10.1,0,0,1,9.8,6.3,8.768,8.768,0,0,1,.272,6.21,99.746,99.746,0,0,1-8.082,18.491l.358,2.865s11.8-.359,17.507,1.556,5.3,6.1,5.3,6.1c-.085.139-12.258,15.158-21.349,20.211s-11.358,0-15.016,0A18.694,18.694,0,0,1,460.4,473.461Z" transform="translate(3775.879 -2349.316)" fill="#2f2e41"/>
      <path id="Path_19350" data-name="Path 19350" d="M575.287,445.559a4.058,4.058,0,0,0-.254.586l-18.484,4.9-3.282-3.288-5.61,4.3,6.712,8.174,22.133-9.46a4.047,4.047,0,1,0-1.216-5.218Z" transform="translate(3719.451 -2364.686)" fill="#ffb8b8"/>
      <path id="Path_19351" data-name="Path 19351" d="M531.067,444.648l-10.634-10.634a5.206,5.206,0,0,1,7.362-7.362l10.634,10.634a1.735,1.735,0,0,1,0,2.454l-4.908,4.908A1.738,1.738,0,0,1,531.067,444.648Z" transform="translate(3737.114 -2353.439)" fill="#2f2e41"/>
      <path id="Path_19352" data-name="Path 19352" d="M445.99,353.576c1.676-2,2.394-4.608,2.972-7.15.915-4.021,1.623-8.179,3.655-11.768s5.767-6.562,9.885-6.336c4.094.225,7.4,3.519,9.161,7.267a3.259,3.259,0,0,1,2.647.128,2.407,2.407,0,0,1,.686,3.651,8.749,8.749,0,0,1,7.125-.178,8.612,8.612,0,0,1,5.217,7.309,4.7,4.7,0,0,1-1.248,3.523c-1.817,1.871-4.387,1.225-6.672.749-2.158-.45-4.787-.572-6,1.485a3.855,3.855,0,0,0-.375,2.817c.466,2.053,1.986,3.483,3.46,4.852l.241.448a10.588,10.588,0,0,1-5.44-20.415h0a1.878,1.878,0,0,1-1.686-2.813,8.926,8.926,0,0,0-4.556-1.137,8.276,8.276,0,0,0-6.188,4.238,25.593,25.593,0,0,0-2.58,7.324,22.472,22.472,0,0,1-2.733,7.259,11.552,11.552,0,0,1-18.508.949A9.219,9.219,0,0,0,445.99,353.576Z" transform="translate(3788.637 -2293.954)" fill="#2f2e41"/>
    </g>
  </g>
</svg>
