<svg id="grocery" xmlns="http://www.w3.org/2000/svg" width="37.242" height="40" viewBox="0 0 37.242 40">
  <path id="Path_9408" data-name="Path 9408" d="M103.332,11.3l1.936-1.985a1.484,1.484,0,0,0,0-2.069,1.42,1.42,0,0,0-2.032,0l2.032-2.069a1.482,1.482,0,0,0,0-2.069,1.42,1.42,0,0,0-2.032,0l-1.02,1.034V1.384a1.355,1.355,0,1,0-2.709,0V4.142L98.495,3.111a1.424,1.424,0,0,0-2.039,0,1.486,1.486,0,0,0-.008,2.069l1.824,1.885a1.423,1.423,0,0,0-1.816.185,1.451,1.451,0,0,0-.391.759,1.481,1.481,0,0,0,.382,1.306l2.335,2.413c-.1-.1-.207-.212-.312-.323a1.4,1.4,0,0,0-2.019-.012,1.463,1.463,0,0,0,0,2.046l4.445,4.494,4.373-4.482a1.484,1.484,0,0,0,0-2.069,1.417,1.417,0,0,0-1.936-.083Zm0,0" transform="translate(-87.759 0.002)" fill="#70942d"/>
  <path id="Path_9409" data-name="Path 9409" d="M176.039,88.074h7.585V109.45h-7.585Zm0,0" transform="translate(-160.869 -80.483)" fill="#63a6d3"/>
  <path id="Path_9410" data-name="Path 9410" d="M264.039,72.9h6.9V51.522l-3.448-3.448-3.448,3.448Zm0,0" transform="translate(-241.285 -43.93)" fill="#4092c9"/>
  <path id="Path_9411" data-name="Path 9411" d="M176.039,51.522l3.448-3.448h7.585l-3.448,3.448Zm0,0" transform="translate(-160.869 -43.93)" fill="#579fd0"/>
  <path id="Path_9412" data-name="Path 9412" d="M216.039,16.074h7.585v2.758h-7.585Zm0,0" transform="translate(-197.422 -14.689)" fill="#d6d9db"/>
  <path id="Path_9413" data-name="Path 9413" d="M176.039,155.659v8.619h7.585v-16.2Zm0,0" transform="translate(-160.869 -135.311)" fill="#579fd0"/>
  <path id="Path_9414" data-name="Path 9414" d="M271.46.074A3.876,3.876,0,0,1,275,5.355l-7.183,19.12a3.8,3.8,0,0,1-3.542,2.49,3.876,3.876,0,0,1-3.542-5.281l7.182-19.12A3.8,3.8,0,0,1,271.46.074Zm0,0" transform="translate(-238.024 -0.068)" fill="#d68033"/>
  <path id="Path_9415" data-name="Path 9415" d="M260.735,148.887a3.876,3.876,0,0,0,3.542,5.281,3.8,3.8,0,0,0,3.542-2.49l4.66-12.4a21.444,21.444,0,0,1-9.7,4.159Zm0,0" transform="translate(-238.024 -127.27)" fill="#d17726"/>
  <path id="Path_9416" data-name="Path 9416" d="M359.879,62.021l1.311-.427,1.347,4.138-1.311.427Zm0,0" transform="translate(-328.864 -56.285)" fill="#c96e23"/>
  <path id="Path_9417" data-name="Path 9417" d="M336.43,118.029l1.311-.427,1.347,4.137-1.311.427Zm0,0" transform="translate(-307.436 -107.465)" fill="#c96e23"/>
  <path id="Path_9418" data-name="Path 9418" d="M67.379,68.98l1.219-.644,2.55,4.827-1.219.644Zm0,0" transform="translate(-61.575 -62.446)" fill="#88b337"/>
  <path id="Path_9419" data-name="Path 9419" d="M42.676,88.831l.925-1.023,3.907,3.534-.925,1.023Zm0,0" transform="translate(-39.001 -80.24)" fill="#88b337"/>
  <path id="Path_9420" data-name="Path 9420" d="M85.481,132.494a1.4,1.4,0,0,1-1.867-.292l-8.619-10.817a3.076,3.076,0,0,1,.611-4.534A3.015,3.015,0,0,1,79.992,118l5.979,12.733a1.4,1.4,0,0,1-.49,1.756Zm0,0" transform="translate(-67.865 -106.307)" fill="#ff7230"/>
  <path id="Path_9421" data-name="Path 9421" d="M86.623,155.883l-2.338,1.809.859,1.078,2.323-1.8Zm0,0" transform="translate(-77.024 -142.447)" fill="#de5718"/>
  <path id="Path_9422" data-name="Path 9422" d="M111.287,189.137l-2.088,1.637.86,1.079,2.079-1.63Zm0,0" transform="translate(-99.791 -172.835)" fill="#de5718"/>
  <path id="Path_9423" data-name="Path 9423" d="M167.624,155.866a3.792,3.792,0,1,1-3.792-3.792A3.792,3.792,0,0,1,167.624,155.866Zm0,0" transform="translate(-146.248 -138.966)" fill="#ff9b30"/>
  <path id="Path_9424" data-name="Path 9424" d="M170.537,156.875a4.344,4.344,0,0,1-5.033,5.2,3.792,3.792,0,1,0,5.033-5.2Zm0,0" transform="translate(-151.242 -143.354)" fill="#f28e22"/>
  <path id="Path_9425" data-name="Path 9425" d="M112.588,192.074l-2.069,1.379-2.069-1.379-2.069,1.379-2.069-1.379-2.069,1.379-2.069-1.379-2.069,1.379-2.069-1.379V212.76a2.758,2.758,0,0,0,2.758,2.758h15.859V193.453Zm0,0" transform="translate(-87.765 -175.519)" fill="#f0ae62"/>
  <path id="Path_9426" data-name="Path 9426" d="M316.176,193.453l-2.069-1.379-2.069,1.379v22.065h3.448a2.758,2.758,0,0,0,2.758-2.758V192.074Zm0,0" transform="translate(-285.147 -175.519)" fill="#e6994e"/>
  <path id="Path_9427" data-name="Path 9427" d="M98.777,360.39l.241-.483A10.975,10.975,0,0,0,100.176,355a2.91,2.91,0,0,0-4.137-2.654v6.624a2.753,2.753,0,0,0,1.628,2.511,2.416,2.416,0,0,0,1.11-1.092Zm0,0" transform="translate(-87.765 -321.729)" fill="#eda047"/>
  <path id="Path_9428" data-name="Path 9428" d="M42.8,317.59H41.418v-2.758a1.379,1.379,0,0,0-1.379-1.379v-1.379a2.758,2.758,0,0,1,2.758,2.758Zm0,0" transform="translate(-36.591 -285.176)" fill="#965735"/>
  <path id="Path_9429" data-name="Path 9429" d="M7.506,361.727a2.421,2.421,0,0,1-1.083-.256l-.867-.434-.868.434a2.422,2.422,0,0,1-3.25-1.083l-.241-.483A10.97,10.97,0,0,1,.039,355a2.925,2.925,0,0,1,4.994-2.069l.522.522.522-.522A2.925,2.925,0,0,1,11.072,355a10.974,10.974,0,0,1-1.159,4.908l-.241.483a2.422,2.422,0,0,1-2.166,1.337Zm0,0" transform="translate(-0.039 -321.728)" fill="#e3584b"/>
  <path id="Path_9430" data-name="Path 9430" d="M25.36,357.6c-1.626,4.683-5.939,7.022-8.227,7.964a2.413,2.413,0,0,0,3.175.957l.868-.434.867.434a2.421,2.421,0,0,0,3.25-1.083l.241-.483a10.975,10.975,0,0,0,1.159-4.906A2.92,2.92,0,0,0,25.36,357.6Zm0,0" transform="translate(-15.659 -326.78)" fill="#d64740"/>
</svg>
