<svg xmlns="http://www.w3.org/2000/svg" width="24.169" height="19.253" viewBox="0 0 24.169 19.253">
  <g id="Group_2091" data-name="Group 2091" transform="translate(-526.403 -2698)">
    <path id="Path_9502" data-name="Path 9502" d="M1149.206,63.153c-1.1.143-2.13.345-3.167.4a15.845,15.845,0,0,1-6.487-1.093,1.565,1.565,0,0,1-1.041-.975,11.464,11.464,0,0,1-.547-1.828,1.989,1.989,0,0,1,1.213-2.276c1.078-.563,2.177-1.085,3.238-1.677.675-.376.721-.934.332-1.64a10.32,10.32,0,0,1-.85-1.911,4.379,4.379,0,0,1,.008-1.253c0-.156-.049-.314-.042-.47a5.485,5.485,0,0,1,.124-1.5c.188-.541.783-.886.73-1.6-.015-.2.457-.513.762-.635a5.18,5.18,0,0,1,4.1.019,2.861,2.861,0,0,1,1.732,3.179,8.338,8.338,0,0,1-1.35,4.237,1.027,1.027,0,0,0,.382,1.586c.94.545,1.906,1.046,2.932,1.6a4.647,4.647,0,0,0-2.16,2.437A4.742,4.742,0,0,0,1149.206,63.153Z" transform="translate(-606.964 2651.816)" fill="#fff" fill-rule="evenodd"/>
    <path id="Path_9503" data-name="Path 9503" d="M1104.854,54.983l-1.872-.684c1.334-.61,1.334-.61.858-1.794a6.08,6.08,0,0,1,1.569-6.252,3.077,3.077,0,0,1,4.206.281.9.9,0,0,1,.075.859,3.523,3.523,0,0,0-.643,2.547,6.294,6.294,0,0,0,.322,2.407,11.293,11.293,0,0,0,.633,1.269c.274.457.345.835-.211,1.118-.825.421-1.639.867-2.477,1.261-1.891.89-2.245,1.486-2.058,3.569a2.224,2.224,0,0,1-.021.3,7.351,7.351,0,0,1-3.891-1.623.924.924,0,0,1-.207-.748,2.2,2.2,0,0,1,1.839-1.777,12.916,12.916,0,0,0,1.332-.263C1104.522,55.388,1104.679,55.142,1104.854,54.983Z" transform="translate(-574.72 2652.446)" fill="#fff" fill-rule="evenodd"/>
    <path id="Path_9504" data-name="Path 9504" d="M1230.794,58.006a4.574,4.574,0,0,0-3.273-1.787,2.121,2.121,0,0,0-.555-.01c-1.866.362-3.162-.87-4.594-1.681-.133-.075-.14-.741.021-.892a1.792,1.792,0,0,0,.619-1.168,20.957,20.957,0,0,1,.533-2.192,4.073,4.073,0,0,0-.8-4,4.3,4.3,0,0,1,.659-.4,4.433,4.433,0,0,1,3.438.039,2.513,2.513,0,0,1,1.406,2.932,7.346,7.346,0,0,1-1.112,3.291.852.852,0,0,0,.332,1.333c.808.451,1.638.865,2.468,1.275A2.077,2.077,0,0,1,1230.794,58.006Z" transform="translate(-680.851 2652.451)" fill="#fff" fill-rule="evenodd"/>
    <path id="Subtraction_1" data-name="Subtraction 1" d="M-383.96,1107.372h-.028a3.623,3.623,0,0,1-2.587-1.059,3.675,3.675,0,0,1-1.022-2.618,3.7,3.7,0,0,1,1.072-2.607,3.615,3.615,0,0,1,2.579-1.078h.006a3.722,3.722,0,0,1,2.6,1.11,3.757,3.757,0,0,1,1.112,2.614,3.552,3.552,0,0,1-1.054,2.531A3.762,3.762,0,0,1-383.96,1107.372Zm-.935-5.557a1.377,1.377,0,0,0-.85.29,1.338,1.338,0,0,0-.532,1.354,1.525,1.525,0,0,0,.478.859c.268.262.538.531.8.792l.023.023.106.106.245.246.024.025c.13.131.258.261.388.39a.473.473,0,0,0,.153.1.478.478,0,0,0,.172.035.486.486,0,0,0,.347-.168c.231-.234.467-.47.7-.7l.026-.026.028-.028.334-.334.158-.156.016-.015c.145-.142.295-.288.428-.444a1.379,1.379,0,0,0,.3-1.366,1.406,1.406,0,0,0-1.342-.986,1.353,1.353,0,0,0-.256.024,1.407,1.407,0,0,0-.589.256,1.514,1.514,0,0,0-.156.134l-.012-.01-.013-.012A1.406,1.406,0,0,0-384.895,1101.815Zm3.333.67h0a1.622,1.622,0,0,1,.337.775A1.631,1.631,0,0,0-381.562,1102.485Z" transform="translate(930.294 1609.382)" fill="#fff" stroke="rgba(0,0,0,0)" stroke-miterlimit="10" stroke-width="1"/>
  </g>
</svg>
