<svg xmlns="http://www.w3.org/2000/svg" width="306" height="230.57" viewBox="0 0 306 230.57">
  <g id="Group_17018" data-name="Group 17018" transform="translate(188 -126.582)">
    <g id="undraw_Accept_terms_re_lj38" transform="translate(-188 126.582)">
      <path id="Path_2960" data-name="Path 2960" d="M272.965,716.625H538.387a.507.507,0,0,0,0-1.014H272.965a.507.507,0,0,0,0,1.015Z" transform="translate(-252.684 -498.525)" fill="#3f3d56"/>
      <path id="Path_18972" data-name="Path 18972" d="M370.735,302.014c-15.523-15.281-22.079-31.223-18.461-44.889,4.643-17.537,25.268-29.663,56.588-33.267l.116,1.006c-30.884,3.554-51.195,15.408-55.725,32.521-3.521,13.3,2.94,28.893,18.193,43.909Z" transform="translate(-299.459 -206.79)" fill="#eaf6f6"/>
      <path id="Path_18973" data-name="Path 18973" d="M577.821,492.282a242.994,242.994,0,0,1-61.338-8.415c-25.86-6.846-49.57-17.179-68.568-29.883l.563-.841c18.907,12.642,42.512,22.928,68.265,29.746,23.272,6.161,46.719,9.016,67.8,8.263l.037,1.011Q581.237,492.282,577.821,492.282Z" transform="translate(-356.775 -342.814)" fill="#eaf6f6"/>
      <path id="Path_18974" data-name="Path 18974" d="M766.945,360.573l-.324-.959c17.327-5.858,28.164-15.3,31.34-27.292,4.037-15.25-4.734-32.948-24.7-49.832-20.065-16.97-49-31.05-81.476-39.648l.259-.979c32.617,8.635,61.693,22.789,81.87,39.854,20.279,17.15,29.166,35.214,25.023,50.864C795.673,344.922,784.609,354.6,766.945,360.573Z" transform="translate(-501.454 -217.472)" fill="#eaf6f6"/>
      <path id="Path_18975" data-name="Path 18975" d="M364.932,459.631c-38.068-16.884-67.4-38.787-82.6-61.678l.843-.56c15.091,22.732,44.271,44.506,82.165,61.313Z" transform="translate(-258.543 -309.741)" fill="#eaf6f6"/>
      <path id="Path_18976" data-name="Path 18976" d="M796.992,605.162q-5.89,0-11.981-.263l.044-1.011c30.3,1.312,57.04-2.314,77.326-10.489l.379.939C845.063,601.468,822.509,605.162,796.992,605.162Z" transform="translate(-556.759 -426.022)" fill="#eaf6f6"/>
      <path id="Path_18977" data-name="Path 18977" d="M577.535,199.871c-6.292-2.049-12.764-3.956-19.236-5.669-37.243-9.859-73.853-13.36-105.874-10.122l-.1-1.007c32.14-3.249,68.876.26,106.235,10.15,6.49,1.718,12.98,3.631,19.29,5.686Z" transform="translate(-359.39 -181.896)" fill="#f0f0f0"/>
      <path id="Path_18978" data-name="Path 18978" d="M312.243,305.747c-15.523-15.281-22.079-31.223-18.461-44.889,4.643-17.537,25.268-29.663,56.588-33.267l.116,1.006C319.6,232.15,299.291,244,294.761,261.117c-3.521,13.3,2.94,28.893,18.193,43.909Z" transform="translate(-264.758 -209.004)" fill="#eaf6f6"/>
      <path id="Path_18979" data-name="Path 18979" d="M519.328,496.015A242.993,242.993,0,0,1,457.99,487.6c-25.86-6.846-49.57-17.179-68.568-29.883l.563-.841c18.907,12.642,42.512,22.928,68.265,29.746,23.272,6.161,46.719,9.016,67.8,8.263l.037,1.011Q522.744,496.016,519.328,496.015Z" transform="translate(-322.073 -345.029)" fill="#eaf6f6"/>
      <path id="Path_18980" data-name="Path 18980" d="M708.453,364.307l-.324-.959c17.327-5.858,28.164-15.3,31.34-27.292,4.037-15.25-4.734-32.948-24.7-49.832-20.065-16.97-49-31.05-81.476-39.648l.259-.979c32.617,8.635,61.693,22.789,81.87,39.854,20.279,17.15,29.166,35.214,25.023,50.864C737.18,348.655,726.117,358.334,708.453,364.307Z" transform="translate(-466.753 -219.687)" fill="#eaf6f6"/>
      <path id="Path_18981" data-name="Path 18981" d="M306.44,463.365c-38.068-16.884-67.4-38.788-82.6-61.678l.843-.56c15.091,22.732,44.271,44.506,82.165,61.313Z" transform="translate(-223.842 -311.956)" fill="#eaf6f6"/>
      <path id="Path_18982" data-name="Path 18982" d="M738.5,608.9q-5.89,0-11.981-.263l.043-1.011c30.3,1.312,57.041-2.314,77.326-10.489l.379.939C786.571,605.2,764.017,608.9,738.5,608.9Z" transform="translate(-522.058 -428.237)" fill="#eaf6f6"/>
      <path id="Path_18983" data-name="Path 18983" d="M519.044,203.6c-6.292-2.049-12.764-3.956-19.236-5.669-37.243-9.859-73.853-13.36-105.874-10.122l-.1-1.007c32.14-3.249,68.876.26,106.235,10.15,6.49,1.718,12.98,3.631,19.29,5.686Z" transform="translate(-324.69 -184.111)" fill="#f0f0f0"/>
      <path id="Path_18984" data-name="Path 18984" d="M247.454,337c7.275-8.157,18.88-13.128,29.4-10.152A50.359,50.359,0,0,0,257.2,355.293c-1.136,4.441-1.938,9.5-5.631,12.214a11.258,11.258,0,0,1-8.169,1.708,33.437,33.437,0,0,1-8.135-2.573l-.709.061C236.6,355.966,240.178,345.155,247.454,337Z" transform="translate(-230.198 -267.372)" fill="#eaf6f6"/>
      <path id="Path_18985" data-name="Path 18985" d="M276.914,327.964a43.043,43.043,0,0,0-22.574,13.848,18.536,18.536,0,0,0-3.126,4.895,10.631,10.631,0,0,0-.628,5.56,22,22,0,0,1,.487,5.3,6.509,6.509,0,0,1-2.759,4.553,16.911,16.911,0,0,1-6.261,2.469c-2.435.573-4.973,1.129-6.957,2.747-.24.2-.531-.188-.291-.384,3.453-2.815,8.252-2.454,12.072-4.5a6.592,6.592,0,0,0,3.655-4.505,17.072,17.072,0,0,0-.391-5.394,11.344,11.344,0,0,1,.411-5.459,17.136,17.136,0,0,1,2.926-5,41.76,41.76,0,0,1,9.723-8.707,43.805,43.805,0,0,1,13.656-5.908c.3-.073.355.406.057.478Z" transform="translate(-230.294 -268.264)" fill="#fff"/>
      <path id="Path_18986" data-name="Path 18986" d="M284.912,344.68a6.458,6.458,0,0,1-.2-8.36c.2-.24.578.053.382.293a5.98,5.98,0,0,0,.2,7.776C285.5,344.62,285.118,344.909,284.912,344.68Z" transform="translate(-259.101 -273.456)" fill="#fff"/>
      <path id="Path_18987" data-name="Path 18987" d="M272.764,382.2a12.447,12.447,0,0,0,8.648-2.738c.241-.2.531.189.29.384a12.947,12.947,0,0,1-9,2.831C272.387,382.657,272.455,382.18,272.764,382.2Z" transform="translate(-252.706 -299.072)" fill="#fff"/>
      <path id="Path_18988" data-name="Path 18988" d="M314.668,336.71a3.655,3.655,0,0,0,2.95,1.824c.31.018.242.495-.066.477A4.1,4.1,0,0,1,314.284,337a.249.249,0,0,1,.047-.337.242.242,0,0,1,.337.047Z" transform="translate(-277.47 -273.684)" fill="#fff"/>
      <path id="Path_18989" data-name="Path 18989" d="M290.99,396.415c-.194-.006-.388-.011-.584-.013a48.146,48.146,0,0,0-7.8.455c-.2.025-.4.053-.6.084a50.75,50.75,0,0,0-17.645,6.148,49.276,49.276,0,0,0-6.191,4.212c-2.7,2.153-5.453,4.7-8.612,5.806a8.454,8.454,0,0,1-1,.295L233.9,403.272c-.022-.04-.046-.076-.068-.116l-.6-.378c.1-.087.2-.176.291-.264.055-.051.113-.1.168-.151.038-.033.076-.066.108-.1l.035-.03c.032-.032.065-.059.1-.087q.841-.746,1.7-1.482s0,0,.008,0a72.468,72.468,0,0,1,14.118-9.706c.152-.078.307-.159.466-.231a47.037,47.037,0,0,1,7.118-2.87,41.574,41.574,0,0,1,4.078-1.032,34.573,34.573,0,0,1,10.8-.414c7.176.857,14,4,18.447,9.578C290.768,396.129,290.879,396.269,290.99,396.415Z" transform="translate(-229.408 -303.08)" fill="#eaf6f6"/>
      <path id="Path_18990" data-name="Path 18990" d="M291.233,405.888a43.044,43.044,0,0,0-26.361-2.534,18.539,18.539,0,0,0-5.443,2.026,10.632,10.632,0,0,0-3.848,4.061,22.007,22.007,0,0,1-2.8,4.528,6.51,6.51,0,0,1-4.944,1.974,16.912,16.912,0,0,1-6.485-1.8c-2.289-1.009-4.65-2.093-7.209-2-.31.012-.31-.47,0-.482,4.452-.169,8.066,3.009,12.347,3.677a6.592,6.592,0,0,0,5.631-1.4,17.073,17.073,0,0,0,2.935-4.543,11.344,11.344,0,0,1,3.615-4.111,17.137,17.137,0,0,1,5.345-2.228,41.761,41.761,0,0,1,13.005-1.1,43.807,43.807,0,0,1,14.461,3.5c.284.123.039.538-.243.416Z" transform="translate(-229.812 -312.389)" fill="#fff"/>
      <path id="Path_18991" data-name="Path 18991" d="M316.909,393.663a6.458,6.458,0,0,1,4.874-6.795c.3-.074.43.39.129.464a5.98,5.98,0,0,0-4.521,6.33C317.418,393.971,316.936,393.97,316.909,393.663Z" transform="translate(-279.042 -303.492)" fill="#eaf6f6"/>
      <path id="Path_18992" data-name="Path 18992" d="M287.412,418.347a12.447,12.447,0,0,0,8.553,3.02c.31-.011.31.471,0,.482a12.947,12.947,0,0,1-8.894-3.161c-.234-.2.107-.544.34-.341Z" transform="translate(-261.307 -322.135)" fill="#fff"/>
      <path id="Path_18993" data-name="Path 18993" d="M350.686,404a3.656,3.656,0,0,0,1.257,3.233c.237.2-.1.54-.34.341A4.1,4.1,0,0,1,350.2,404a.249.249,0,0,1,.241-.241A.242.242,0,0,1,350.686,404Z" transform="translate(-298.791 -313.516)" fill="#fff"/>
      <path id="Path_18994" data-name="Path 18994" d="M931.718,489.114c-4.11-10.128-13.37-18.71-24.275-19.442a50.359,50.359,0,0,1,8.947,33.4c-.422,4.565-1.367,9.6,1.2,13.4a11.257,11.257,0,0,0,7.12,4.355,33.431,33.431,0,0,0,8.526.311l.647.3C935.57,510.627,935.828,499.241,931.718,489.114Z" transform="translate(-629.393 -352.62)" fill="#eaf6f6"/>
      <path id="Path_18995" data-name="Path 18995" d="M907.159,469.538a43.043,43.043,0,0,1,16.606,20.629,18.538,18.538,0,0,1,1.3,5.661,10.631,10.631,0,0,1-1.278,5.447,22,22,0,0,0-2.241,4.832,6.509,6.509,0,0,0,1.068,5.215,16.912,16.912,0,0,0,5.067,4.429c2.1,1.358,4.3,2.734,5.629,4.925.161.266.563,0,.4-.264-2.306-3.812-6.947-5.084-9.858-8.294a6.592,6.592,0,0,1-1.928-5.472,17.073,17.073,0,0,1,2.182-4.949,11.341,11.341,0,0,0,1.448-5.28,17.135,17.135,0,0,0-1.076-5.69,41.763,41.763,0,0,0-6.231-11.468,43.806,43.806,0,0,0-10.876-10.154c-.259-.169-.471.263-.214.431Z" transform="translate(-629.156 -352.262)" fill="#fff"/>
      <path id="Path_18996" data-name="Path 18996" d="M945.441,502.483a6.458,6.458,0,0,0,3-7.807c-.1-.292-.562-.145-.459.148a5.98,5.98,0,0,1-2.8,7.256C944.9,502.228,945.169,502.629,945.441,502.483Z" transform="translate(-651.71 -367.361)" fill="#fff"/>
      <path id="Path_18997" data-name="Path 18997" d="M938.3,538.262a12.447,12.447,0,0,1-7.225-5.485c-.161-.265-.564,0-.4.264a12.947,12.947,0,0,0,7.529,5.693c.3.084.4-.388.1-.472Z" transform="translate(-643.151 -389.993)" fill="#fff"/>
      <path id="Path_18998" data-name="Path 18998" d="M921.049,485.653a3.656,3.656,0,0,1-3.392.727c-.3-.088-.394.385-.1.472a4.1,4.1,0,0,0,3.754-.8.249.249,0,0,0,.069-.334A.242.242,0,0,0,921.049,485.653Z" transform="translate(-635.288 -362.079)" fill="#fff"/>
      <path id="Path_18999" data-name="Path 18999" d="M844.893,530.011c.184.06.369.12.554.184a48.162,48.162,0,0,1,7.189,3.049c.18.091.361.185.538.281a50.756,50.756,0,0,1,14.552,11.721,49.306,49.306,0,0,1,4.416,6.048c1.818,2.935,3.555,6.262,6.16,8.363a8.454,8.454,0,0,0,.847.615l17.213-4.613c.034-.03.069-.056.1-.086l.7-.153c-.06-.114-.125-.232-.185-.346-.035-.066-.073-.132-.108-.2-.024-.044-.049-.088-.068-.129-.008-.015-.016-.029-.023-.04-.019-.041-.042-.077-.06-.114q-.542-.985-1.1-1.966s0,0-.006-.007a72.472,72.472,0,0,0-10.035-13.886c-.118-.124-.236-.253-.362-.375a47.02,47.02,0,0,0-5.739-5.1,41.613,41.613,0,0,0-3.494-2.343,34.574,34.574,0,0,0-10.034-4.02c-7.047-1.605-14.529-.939-20.593,2.82C845.2,529.816,845.047,529.911,844.893,530.011Z" transform="translate(-592.284 -386.086)" fill="#eaf6f6"/>
      <path id="Path_19000" data-name="Path 19000" d="M844.724,535.426A43.044,43.044,0,0,1,870.4,541.9a18.53,18.53,0,0,1,4.445,3.738,10.63,10.63,0,0,1,2.26,5.119,22.006,22.006,0,0,0,1.12,5.207,6.509,6.509,0,0,0,3.993,3.521,16.914,16.914,0,0,0,6.712.486c2.495-.181,5.083-.408,7.46.543.288.115.45-.338.163-.453-4.136-1.655-8.608.123-12.864-.687a6.592,6.592,0,0,1-4.833-3.208,17.072,17.072,0,0,1-1.238-5.265,11.345,11.345,0,0,0-2.023-5.087,17.138,17.138,0,0,0-4.285-3.895,41.762,41.762,0,0,0-11.88-5.406,43.808,43.808,0,0,0-14.8-1.559c-.309.02-.218.494.089.474Z" transform="translate(-592.018 -391.293)" fill="#fff"/>
      <path id="Path_19001" data-name="Path 19001" d="M898.5,536.225a6.458,6.458,0,0,0-2.307-8.038c-.259-.171-.536.223-.277.394a5.98,5.98,0,0,1,2.131,7.481c-.129.282.325.443.453.163Z" transform="translate(-622.493 -387.311)" fill="#fff"/>
      <path id="Path_19002" data-name="Path 19002" d="M910.976,571.648a12.447,12.447,0,0,1-9.071-.03c-.288-.114-.451.339-.162.453a12.947,12.947,0,0,0,9.439.012c.289-.113.082-.548-.206-.436Z" transform="translate(-625.921 -413.09)" fill="#fff"/>
      <path id="Path_19003" data-name="Path 19003" d="M866.167,536.906a3.656,3.656,0,0,1-2.271,2.622c-.291.109-.083.544.206.435a4.1,4.1,0,0,0,2.518-2.9.249.249,0,0,0-.146-.308A.242.242,0,0,0,866.167,536.906Z" transform="translate(-603.476 -392.413)" fill="#fff"/>
      <circle id="Ellipse_535" data-name="Ellipse 535" cx="4.05" cy="4.05" r="4.05" transform="translate(81.864 50.552)" fill="#fd6584"/>
      <circle id="Ellipse_536" data-name="Ellipse 536" cx="4.05" cy="4.05" r="4.05" transform="translate(232.278 101.303) rotate(-80.783)" fill="#e6e6e6"/>
      <circle id="Ellipse_537" data-name="Ellipse 537" cx="4.05" cy="4.05" r="4.05" transform="translate(81.7 4.98)" fill="#365494"/>
      <path id="Path_19004" data-name="Path 19004" d="M578.735,248.338H577.58V216.673a18.327,18.327,0,0,0-18.327-18.327H492.166a18.327,18.327,0,0,0-18.327,18.327h0V390.39a18.327,18.327,0,0,0,18.327,18.327h67.087A18.327,18.327,0,0,0,577.58,390.39V270.878h1.156Z" transform="translate(-372.154 -191.655)" fill="#3f3d56"/>
      <path id="Path_19005" data-name="Path 19005" d="M581.054,223.755V397.218A13.684,13.684,0,0,1,567.37,410.9H499.957a13.685,13.685,0,0,1-13.685-13.684V223.755a13.685,13.685,0,0,1,13.685-13.685h8.182a6.5,6.5,0,0,0,6.019,8.958h38.435a6.5,6.5,0,0,0,6.019-8.958h8.757a13.685,13.685,0,0,1,13.685,13.685h0Z" transform="translate(-379.53 -198.61)" fill="#f2f2f2"/>
      <rect id="Rectangle_3597" data-name="Rectangle 3597" width="20.912" height="0.936" transform="translate(111.85 28.018)" fill="#365494"/>
      <rect id="Rectangle_3598" data-name="Rectangle 3598" width="20.912" height="0.936" transform="translate(143.676 28.018)" fill="#365494"/>
      <path id="Path_19006" data-name="Path 19006" d="M581.408,521.236h-68.17a1.749,1.749,0,1,1,0-3.5h68.17a1.749,1.749,0,1,1,0,3.5Z" transform="translate(-394.49 -381.136)" fill="#fec400"/>
      <path id="Path_19007" data-name="Path 19007" d="M581.408,551.154h-68.17a1.749,1.749,0,1,1,0-3.5h68.17a1.749,1.749,0,0,1,0,3.5Z" transform="translate(-394.49 -398.885)" fill="#fec400"/>
      <path id="Path_19008" data-name="Path 19008" d="M581.408,581.072h-68.17a1.749,1.749,0,0,1,0-3.5h68.17a1.749,1.749,0,0,1,0,3.5Z" transform="translate(-394.49 -416.634)" fill="#fec400"/>
      <rect id="Rectangle_3599" data-name="Rectangle 3599" width="20.912" height="0.936" transform="translate(175.502 28.018)" fill="#365494"/>
      <rect id="Rectangle_3600" data-name="Rectangle 3600" width="20.912" height="0.936" transform="translate(111.85 196.042)" fill="#fff"/>
      <rect id="Rectangle_3601" data-name="Rectangle 3601" width="20.912" height="0.936" transform="translate(143.676 196.042)" fill="#fff"/>
      <rect id="Rectangle_3602" data-name="Rectangle 3602" width="20.912" height="0.936" transform="translate(175.502 196.042)" fill="#fff"/>
      <circle id="Ellipse_538" data-name="Ellipse 538" cx="31.699" cy="31.699" r="31.699" transform="translate(122.433 52.741)" fill="#eb98b6"/>
      <circle id="Ellipse_539" data-name="Ellipse 539" cx="28.919" cy="28.919" r="28.919" transform="translate(125.213 56.926)" fill="#d83564"/>
      <path id="Path_19009" data-name="Path 19009" d="M584.308,387.256c-.062,0-.126,0-.189,0a3.852,3.852,0,0,1-2.855-1.484l-4.558-5.86a3.859,3.859,0,0,1,.676-5.41l.163-.127a3.861,3.861,0,0,1,5.411.675,2.312,2.312,0,0,0,1.714.891,2.268,2.268,0,0,0,1.793-.719l9.254-9.769a3.86,3.86,0,0,1,5.449-.147l.151.142a3.859,3.859,0,0,1,.148,5.45l-14.361,15.158A3.849,3.849,0,0,1,584.308,387.256Z" transform="translate(-432.701 -290.077)" fill="#fff"/>
      <rect id="Rectangle_3603" data-name="Rectangle 3603" width="3.744" height="20.125" transform="translate(99.74 40.076)" fill="#3f3d56"/>
      <rect id="Rectangle_3604" data-name="Rectangle 3604" width="3.744" height="11.701" transform="translate(99.74 62.542)" fill="#3f3d56"/>
      <rect id="Rectangle_3605" data-name="Rectangle 3605" width="3.744" height="11.701" transform="translate(99.74 76.583)" fill="#3f3d56"/>
      <circle id="Ellipse_540" data-name="Ellipse 540" cx="1.872" cy="1.872" r="1.872" transform="translate(133.906 12.462)" fill="#fff"/>
    </g>
    <g id="Group_17017" data-name="Group 17017" transform="translate(-20.081 172.222)">
      <path id="Path_19051" data-name="Path 19051" d="M2.084,13.947h0A4.654,4.654,0,0,1,.7,12.5a4.732,4.732,0,0,1-.655-1.9,4.758,4.758,0,0,1,1.2-3.758L7.456,0l5.927,3.052L8.8,12.149A4.721,4.721,0,0,1,7.569,13.68a4.644,4.644,0,0,1-1.737.891,4.589,4.589,0,0,1-3.748-.624Z" transform="translate(0 79.028)" fill="#ffb8b8"/>
      <path id="Path_19052" data-name="Path 19052" d="M4.1,14.791h0a4.541,4.541,0,0,1-3.28-2.041,4.61,4.61,0,0,1-.452-.9,4.667,4.667,0,0,1-.247-.968,4.741,4.741,0,0,1,.144-2L2.857,0H9.5L9.335,10.145a4.772,4.772,0,0,1-2.413,4.07,4.688,4.688,0,0,1-.895.391,4.634,4.634,0,0,1-.952.2A4.582,4.582,0,0,1,4.1,14.791Z" transform="translate(77.487 98.364)" fill="#ffb8b8"/>
      <path id="Path_19053" data-name="Path 19053" d="M12.392,7.3.015,5.352,5.165,0h7.3Z" transform="translate(30.279 171.968)" fill="#ffb8b8"/>
      <path id="Path_19054" data-name="Path 19054" d="M12.924,9.485,0,12.884c.61-1.228,1.162-2.422,1.634-3.566A29.463,29.463,0,0,0,2.786,6.045a14.325,14.325,0,0,0,.531-2.891A6.81,6.81,0,0,0,3.086.731L9.179,0Z" transform="translate(69.589 170.264)" fill="#ffb8b8"/>
      <path id="Path_19055" data-name="Path 19055" d="M45.018,94.093l-7.562,1.461L17.52,28.187,8.029,95.31H0L1.543,0H33.128Z" transform="translate(34.949 77.389)" fill="#3f3d56"/>
      <path id="Path_19056" data-name="Path 19056" d="M13.892,9.184,1.669,5.154A2.367,2.367,0,0,1,.048,2.806a2.4,2.4,0,0,1,.257-.985h0A2.4,2.4,0,0,1,2.609.508L5.391.7l1.1-.614A.636.636,0,0,1,6.865,0a.629.629,0,0,1,.56.681.638.638,0,0,1-.047.192L6.352,3.319,16.569,2.59l.465,4.029a2.4,2.4,0,0,1-.162,1.18,2.413,2.413,0,0,1-2.388,1.5,2.377,2.377,0,0,1-.592-.115Z" transform="translate(26.38 173.028)" fill="#575a88"/>
      <path id="Path_19057" data-name="Path 19057" d="M15.951,7.337,2.624,8.2a2.452,2.452,0,0,1-1.036-.156A2.424,2.424,0,0,1,.05,6.072a2.459,2.459,0,0,1-.007-.53h0a2.482,2.482,0,0,1,.175-.709A2.511,2.511,0,0,1,1.765,3.4l2.754-.893L5.342,1.5a.668.668,0,0,1,.336-.221.66.66,0,0,1,.2-.025.65.65,0,0,1,.2.038.644.644,0,0,1,.4.421.651.651,0,0,1,.027.2L6.444,4.64,16.028,0,18.01,3.672a2.43,2.43,0,0,1,.223.58,2.456,2.456,0,0,1,.069.61,2.5,2.5,0,0,1-.321,1.193,2.526,2.526,0,0,1-1.415,1.163,2.494,2.494,0,0,1-.615.119Z" transform="translate(65.704 176.726)" fill="#575a88"/>
      <path id="Ellipse_550" data-name="Ellipse 550" d="M9.417,0a9.056,9.056,0,0,0-3.6.744A9.368,9.368,0,0,0,2.861,2.774,9.68,9.68,0,0,0,.781,13.136a9.335,9.335,0,0,0,1.944,3,9.081,9.081,0,0,0,2.905,2.02,8.937,8.937,0,0,0,3.575.74,9.056,9.056,0,0,0,3.592-.74,9.367,9.367,0,0,0,2.951-2.02,9.68,9.68,0,0,0,2.1-10.353,9.337,9.337,0,0,0-1.94-3.008A9.081,9.081,0,0,0,13,.744,8.937,8.937,0,0,0,9.417,0Z" transform="translate(45.912 3.943)" fill="#ffb8b8"/>
      <path id="Path_19058" data-name="Path 19058" d="M12.673,12.47H0L.127,0h12.7a20.718,20.718,0,0,0-.607,2.955,24.183,24.183,0,0,0-.2,3.071A29.61,29.61,0,0,0,12.18,9.2C12.292,10.276,12.458,11.366,12.673,12.47Z" transform="translate(48.32 18.251)" fill="#ffb8b8"/>
      <path id="Path_19059" data-name="Path 19059" d="M38,53.787l-34.544.5L.291,17.049a11.939,11.939,0,0,1,2.2-6.818A11.76,11.76,0,0,1,4.969,7.669a11.5,11.5,0,0,1,3.2-1.711l5.4-1.869L16.584.529A22.242,22.242,0,0,1,19.475.092a26.417,26.417,0,0,1,3-.081q1.526.043,3.1.241t3.19.53l3.172,4.83L35.4,6.748a11.15,11.15,0,0,1,3.289,1.727,11.344,11.344,0,0,1,2.5,2.645,11.594,11.594,0,0,1,1.556,3.321A11.805,11.805,0,0,1,43.2,18.2c-.694,3.4-1.351,6.742-1.949,9.984s-1.137,6.381-1.6,9.392-.842,5.887-1.125,8.6S38.061,51.434,38,53.787Z" transform="translate(31.79 24.854)" fill="#605d82"/>
      <path id="Path_19060" data-name="Path 19060" d="M19.446,65.611l-8.624,1L1.53,26.3.893,0l.291.145a16.1,16.1,0,0,1,3.2,2.1,16.3,16.3,0,0,1,2.6,2.768,16.546,16.546,0,0,1,1.9,3.306,16.8,16.8,0,0,1,1.11,3.719Z" transform="translate(68.77 32.753)" fill="#605d82"/>
      <path id="Path_19061" data-name="Path 19061" d="M6.656,52.42.013,49.167,19.8,11.974a26.432,26.432,0,0,1,5.571-7.163,26.066,26.066,0,0,1,3.6-2.735A25.776,25.776,0,0,1,33.008,0h0L29.083,23.791Z" transform="translate(6.364 30.975)" fill="#605d82"/>
      <path id="Path_19062" data-name="Path 19062" d="M17.388,21.9s-.564-.034-1.412-.111-1.982-.195-3.12-.363A21.523,21.523,0,0,1,9.7,20.759c-.871-.276-1.468-.61-1.513-1.01a8.9,8.9,0,0,0-.328-1.492A11.215,11.215,0,0,0,7.2,16.548a5.2,5.2,0,0,0-.924-1.371,1.356,1.356,0,0,0-1.108-.48,2.445,2.445,0,0,1-1.559-.752,11.477,11.477,0,0,1-1.832-2.012A10.494,10.494,0,0,1,.412,9.477,2.9,2.9,0,0,1,.266,7.4,14.918,14.918,0,0,1,1.652,4.966,13.4,13.4,0,0,1,4.444,1.992,9.408,9.408,0,0,1,8.733.109,10.855,10.855,0,0,1,14.6.952a12.107,12.107,0,0,1,4.96,3.589A11.179,11.179,0,0,1,21.71,9.021a13.586,13.586,0,0,1,.3,4.192,9.179,9.179,0,0,1-.591,2.733,14.619,14.619,0,0,1-1.032,1.838c-.422.659-.9,1.335-1.34,1.945s-.857,1.151-1.16,1.541S17.388,21.9,17.388,21.9Z" transform="translate(43.429)" fill="#2f2e41"/>
    </g>
  </g>
</svg>
