<svg xmlns="http://www.w3.org/2000/svg" width="24.956" height="29.115" viewBox="0 0 24.956 29.115">
  <g id="Group_18218" data-name="Group 18218" transform="translate(-1751 -338)">
    <g id="Layer_2" data-name="Layer 2" transform="translate(1751 338)">
      <g id="Layer_1" data-name="Layer 1">
        <path id="Path_17387" data-name="Path 17387" d="M33.949,6.914c.452.082.54.179.516.607a3.032,3.032,0,0,1-1.011,2.4,1.791,1.791,0,0,0-.443.89A8.369,8.369,0,0,1,31.037,14.6a3.855,3.855,0,0,1-3.206,1.348,4.687,4.687,0,0,1-3.209-1.934,7.658,7.658,0,0,1-1.439-3.225,1.889,1.889,0,0,0-.562-1.029A3.146,3.146,0,0,1,21.667,7.8c-.067-.528.033-.7.513-.911a6.607,6.607,0,0,1-.021-2.629A2.153,2.153,0,0,1,23.334,2.5c.194-.085.243-.237.3-.446a1.5,1.5,0,0,1,.386-.774A5.016,5.016,0,0,1,26.756.064,7.245,7.245,0,0,1,31.22.729a5.31,5.31,0,0,1,2.8,5.836A3.079,3.079,0,0,0,33.949,6.914Z" transform="translate(-15.543 0.039)" fill="#910100"/>
        <path id="Path_17388" data-name="Path 17388" d="M62.081,69.814a.607.607,0,1,1,.618-.6A.607.607,0,0,1,62.081,69.814Z" transform="translate(-43.519 -48.015)" fill="#910100"/>
        <path id="Path_17389" data-name="Path 17389" d="M21.95,49.125a29.1,29.1,0,0,0-3.129-1.518,4.687,4.687,0,0,0-.48-.167c.041.143.056.216.082.279a8.9,8.9,0,0,1,.462,4.011c-.018.261,0,.4.252.54a1.126,1.126,0,0,1-.672,2.077,1.114,1.114,0,0,1-.982-.984,1.132,1.132,0,0,1,.738-1.215l.34-.109c0-.817.029-1.615,0-2.429a4.681,4.681,0,0,0-.6-2.147.864.864,0,0,0-.293-.334,4.164,4.164,0,0,1-1.756-1.263l-.1.018q-1.016,5.238-2.049,10.472c-.179-2.089-.263-4.163-.4-6.234a3.5,3.5,0,0,1,.372-1.989,5.879,5.879,0,0,0,.234-.547,9.068,9.068,0,0,1-1.387.222,9.083,9.083,0,0,1-1.385-.2c.079.179.176.355.24.543a4.055,4.055,0,0,1,.363,1.266c-.05,1.964-.17,3.929-.269,5.893-.018.361-.044.723-.067,1.081H11.4L9.188,45.77A4.3,4.3,0,0,1,7.18,47.194a.6.6,0,0,0-.4.489A2.612,2.612,0,0,0,6.957,49.4c.316,0,.647-.027.969,0a2.379,2.379,0,0,1,2.2,2.125c.038.225.023.458.064.68.129.717.272,1.43.4,2.144a.855.855,0,0,1-.095.649.8.8,0,0,1-.52.374c-.2.061-.386.161-.585.222a.9.9,0,0,1-.427.039c-.047,0-.1-.3-.059-.334a.618.618,0,0,1,.416-.118c.761.155,1.171-.231,1.013-1q-.293-1.451-.632-2.9a1.769,1.769,0,0,0-1.224-1.357,3.08,3.08,0,0,0-3.161.607,1.768,1.768,0,0,0-.644,1.624c.152,1.123.351,2.241.553,3.358a.55.55,0,0,0,.272.407.513.513,0,0,0,.477.015,3.832,3.832,0,0,1,.363-.194.521.521,0,0,1,.372.021.312.312,0,0,1,.061.3.521.521,0,0,1-.337.176c-.167,0-.34-.046-.509-.043-.585,0-.825-.191-.945-.789a20.693,20.693,0,0,0-.477-2.35A2.493,2.493,0,0,1,5.6,49.884a8.175,8.175,0,0,1,.834-.41V47.482A15.138,15.138,0,0,0,2.813,49.25a6.478,6.478,0,0,0-2.62,4,15.717,15.717,0,0,0-.135,4.026,1.156,1.156,0,0,0,.512.911,12.659,12.659,0,0,0,4.162,2.053,26.669,26.669,0,0,0,8.954,1.051,25.419,25.419,0,0,0,7.139-1.272,12.217,12.217,0,0,0,3.492-1.822,1,1,0,0,0,.48-.726c.053-.871.164-1.743.152-2.611A6.453,6.453,0,0,0,21.95,49.125Zm-2.573,11a2.522,2.522,0,1,1,2.429-2.52A2.476,2.476,0,0,1,19.377,60.129Z" transform="translate(0.005 -32.208)" fill="#910100"/>
        <rect id="Rectangle_3416" data-name="Rectangle 3416" width="0.616" height="3.953" transform="translate(19.066 23.423)" fill="#910100"/>
        <rect id="Rectangle_3417" data-name="Rectangle 3417" width="0.616" height="3.953" transform="translate(21.15 25.09) rotate(90)" fill="#910100"/>
      </g>
    </g>
  </g>
</svg>
