<svg id="menu" xmlns="http://www.w3.org/2000/svg" width="24" height="24" viewBox="0 0 24 24">
  <path id="Path_10768" data-name="Path 10768" d="M4.5,6h-3A1.5,1.5,0,0,1,0,4.5v-3A1.5,1.5,0,0,1,1.5,0h3A1.5,1.5,0,0,1,6,1.5v3A1.5,1.5,0,0,1,4.5,6Z" fill="#fff"/>
  <path id="Path_10769" data-name="Path 10769" d="M4.5,15h-3A1.5,1.5,0,0,1,0,13.5v-3A1.5,1.5,0,0,1,1.5,9h3A1.5,1.5,0,0,1,6,10.5v3A1.5,1.5,0,0,1,4.5,15Z" fill="#fff"/>
  <path id="Path_10770" data-name="Path 10770" d="M4.5,24h-3A1.5,1.5,0,0,1,0,22.5v-3A1.5,1.5,0,0,1,1.5,18h3A1.5,1.5,0,0,1,6,19.5v3A1.5,1.5,0,0,1,4.5,24Z" fill="#fff"/>
  <path id="Path_10771" data-name="Path 10771" d="M13.5,6h-3A1.5,1.5,0,0,1,9,4.5v-3A1.5,1.5,0,0,1,10.5,0h3A1.5,1.5,0,0,1,15,1.5v3A1.5,1.5,0,0,1,13.5,6Z" fill="#fff"/>
  <path id="Path_10772" data-name="Path 10772" d="M13.5,15h-3A1.5,1.5,0,0,1,9,13.5v-3A1.5,1.5,0,0,1,10.5,9h3A1.5,1.5,0,0,1,15,10.5v3A1.5,1.5,0,0,1,13.5,15Z" fill="#fff"/>
  <path id="Path_10773" data-name="Path 10773" d="M13.5,24h-3A1.5,1.5,0,0,1,9,22.5v-3A1.5,1.5,0,0,1,10.5,18h3A1.5,1.5,0,0,1,15,19.5v3A1.5,1.5,0,0,1,13.5,24Z" fill="#fff"/>
  <path id="Path_10774" data-name="Path 10774" d="M22.5,6h-3A1.5,1.5,0,0,1,18,4.5v-3A1.5,1.5,0,0,1,19.5,0h3A1.5,1.5,0,0,1,24,1.5v3A1.5,1.5,0,0,1,22.5,6Z" fill="#fff"/>
  <path id="Path_10775" data-name="Path 10775" d="M22.5,15h-3A1.5,1.5,0,0,1,18,13.5v-3A1.5,1.5,0,0,1,19.5,9h3A1.5,1.5,0,0,1,24,10.5v3A1.5,1.5,0,0,1,22.5,15Z" fill="#fff"/>
  <path id="Path_10776" data-name="Path 10776" d="M22.5,24h-3A1.5,1.5,0,0,1,18,22.5v-3A1.5,1.5,0,0,1,19.5,18h3A1.5,1.5,0,0,1,24,19.5v3A1.5,1.5,0,0,1,22.5,24Z" fill="#fff"/>
</svg>
