<svg xmlns="http://www.w3.org/2000/svg" width="16.181" height="19.785" viewBox="0 0 16.181 19.785">
  <g id="Icon_1122" data-name="Icon 1122" transform="translate(0)">
    <path id="Path_20086" data-name="Path 20086" d="M512.01,171c.288.068.585.113.864.208a3.826,3.826,0,0,1,2.681,3.53c0,.045.005.09.009.164h.19c.511,0,1.023,0,1.534,0a1.436,1.436,0,0,1,1.5,1.386c.12,1.546.255,3.091.382,4.637q.17,2.068.335,4.137c.059.725.112,1.45.184,2.174a3.258,3.258,0,0,1-3.2,3.533c-1.454.031-2.909.009-4.363.009-1.747,0-3.493,0-5.24,0a3.3,3.3,0,0,1-3.264-2.43,4.454,4.454,0,0,1-.051-1.611q.154-1.837.3-3.674.172-2.087.343-4.174c.071-.866.148-1.731.211-2.6a1.431,1.431,0,0,1,1.5-1.386c.57,0,1.14,0,1.689,0,.064-.372.1-.731.19-1.076a3.891,3.891,0,0,1,3.229-2.784c.057-.008.113-.027.17-.041Zm2.371,5.08h-5.5c0,.471,0,.927,0,1.384a.589.589,0,0,1-.588.607.6.6,0,0,1-.606-.61c0-.18,0-.36,0-.541v-.855c-.589,0-1.153,0-1.716,0-.233,0-.3.068-.321.3q-.084,1.03-.168,2.059-.191,2.309-.383,4.618c-.117,1.417-.222,2.836-.352,4.252a2.1,2.1,0,0,0,2.163,2.329q4.724.006,9.447,0a2.1,2.1,0,0,0,2.164-2.31c-.162-1.859-.311-3.72-.464-5.58q-.222-2.694-.442-5.388c-.017-.21-.093-.278-.319-.279-.532,0-1.063,0-1.594,0a.913.913,0,0,0-.122.016c0,.454.012.9-.007,1.34a.875.875,0,0,1-.151.443.554.554,0,0,1-.645.169.574.574,0,0,1-.392-.551C514.378,177.02,514.382,176.557,514.382,176.08Zm-.027-1.209a2.618,2.618,0,0,0-1.457-2.419,2.71,2.71,0,0,0-2.943.235,2.561,2.561,0,0,0-1.092,2.184Z" transform="translate(-503.526 -171)" fill="#fff"/>
    <path id="Path_20087" data-name="Path 20087" d="M610.311,373.419a1.615,1.615,0,0,1,.14-.19q1.23-1.232,2.463-2.46a.606.606,0,0,1,.631-.19.573.573,0,0,1,.416.439.63.63,0,0,1-.225.621q-.966.96-1.929,1.925c-.343.342-.683.685-1.028,1.025a.613.613,0,0,1-.974.006q-.671-.664-1.337-1.335a.6.6,0,1,1,.842-.847C609.633,372.733,609.953,373.06,610.311,373.419Z" transform="translate(-603.023 -360.609)" fill="#fff"/>
  </g>
</svg>
