<svg xmlns="http://www.w3.org/2000/svg" width="18.67" height="14.002" viewBox="0 0 18.67 14.002">
  <path id="Icon_metro-credit-card" data-name="Icon metro-credit-card" d="M19.49,5.784H4.321a1.755,1.755,0,0,0-1.75,1.75v10.5a1.755,1.755,0,0,0,1.75,1.75H19.49a1.755,1.755,0,0,0,1.75-1.75V7.534a1.755,1.755,0,0,0-1.75-1.75ZM4.321,6.951H19.49a.591.591,0,0,1,.583.583v3.688H3.738V7.534a.591.591,0,0,1,.583-.583ZM19.49,18.619H4.321a.591.591,0,0,1-.583-.583V12.785H20.073v5.251A.591.591,0,0,1,19.49,18.619ZM4.9,15.119H6.071v2.334H4.9Zm2.334,0H8.4v2.334H7.238Zm2.334,0h1.167v2.334H9.572Z" transform="translate(-2.571 -5.784)" fill="#fff"/>
</svg>
