<svg xmlns="http://www.w3.org/2000/svg" width="24.169" height="19.253" viewBox="0 0 24.169 19.253">
  <g id="Group_2091" data-name="Group 2091" transform="translate(-526.403 -2698)">
    <path id="Path_9502" data-name="Path 9502" d="M1149.206,63.153c-1.1.143-2.13.345-3.167.4a15.845,15.845,0,0,1-6.487-1.093,1.565,1.565,0,0,1-1.041-.975,11.464,11.464,0,0,1-.547-1.828,1.989,1.989,0,0,1,1.213-2.276c1.078-.563,2.177-1.085,3.238-1.677.675-.376.721-.934.332-1.64a10.32,10.32,0,0,1-.85-1.911,4.379,4.379,0,0,1,.008-1.253c0-.156-.049-.314-.042-.47a5.485,5.485,0,0,1,.124-1.5c.188-.541.783-.886.73-1.6-.015-.2.457-.513.762-.635a5.18,5.18,0,0,1,4.1.019,2.861,2.861,0,0,1,1.732,3.179,8.338,8.338,0,0,1-1.35,4.237,1.027,1.027,0,0,0,.382,1.586c.94.545,1.906,1.046,2.932,1.6a4.647,4.647,0,0,0-2.16,2.437A4.742,4.742,0,0,0,1149.206,63.153Z" transform="translate(-606.964 2651.816)" fill="#fff" fill-rule="evenodd"/>
    <path id="Path_9503" data-name="Path 9503" d="M1104.854,54.983l-1.872-.684c1.334-.61,1.334-.61.858-1.794a6.08,6.08,0,0,1,1.569-6.252,3.077,3.077,0,0,1,4.206.281.9.9,0,0,1,.075.859,3.523,3.523,0,0,0-.643,2.547,6.294,6.294,0,0,0,.322,2.407,11.293,11.293,0,0,0,.633,1.269c.274.457.345.835-.211,1.118-.825.421-1.639.867-2.477,1.261-1.891.89-2.245,1.486-2.058,3.569a2.224,2.224,0,0,1-.021.3,7.351,7.351,0,0,1-3.891-1.623.924.924,0,0,1-.207-.748,2.2,2.2,0,0,1,1.839-1.777,12.916,12.916,0,0,0,1.332-.263C1104.522,55.388,1104.679,55.142,1104.854,54.983Z" transform="translate(-574.72 2652.446)" fill="#fff" fill-rule="evenodd"/>
    <path id="Path_9504" data-name="Path 9504" d="M1230.794,58.006a4.574,4.574,0,0,0-3.273-1.787,2.121,2.121,0,0,0-.555-.01c-1.866.362-3.162-.87-4.594-1.681-.133-.075-.14-.741.021-.892a1.792,1.792,0,0,0,.619-1.168,20.957,20.957,0,0,1,.533-2.192,4.073,4.073,0,0,0-.8-4,4.3,4.3,0,0,1,.659-.4,4.433,4.433,0,0,1,3.438.039,2.513,2.513,0,0,1,1.406,2.932,7.346,7.346,0,0,1-1.112,3.291.852.852,0,0,0,.332,1.333c.808.451,1.638.865,2.468,1.275A2.077,2.077,0,0,1,1230.794,58.006Z" transform="translate(-680.851 2652.451)" fill="#fff" fill-rule="evenodd"/>
    <path id="Union_1" data-name="Union 1" d="M3.609,7.362A3.557,3.557,0,0,1,0,3.685,3.67,3.67,0,0,1,3.651,0,3.8,3.8,0,0,1,7.375,3.725,3.692,3.692,0,0,1,3.637,7.362Zm.04-1.228h0Zm.008,0a.424.424,0,0,0,.234-.064A.424.424,0,0,1,3.657,6.135ZM.945,3.6A1.623,1.623,0,0,1,2.532,1.887,1.623,1.623,0,0,0,.945,3.6ZM6.035,2.474a1.609,1.609,0,0,1,.351.98,1.609,1.609,0,0,0-.351-.98ZM6.02,2.456l-.008-.01Zm-.025-.03h0ZM3.69,2.1h0Zm.5-.1a1.279,1.279,0,0,1-.493.1,1.279,1.279,0,0,0,.493-.1ZM3.151,2,3.145,2ZM3.138,2,3.1,1.983ZM3.08,1.978l-.011,0Zm1.153,0a1.483,1.483,0,0,1,.513-.089A1.483,1.483,0,0,0,4.233,1.977Zm.521-.089h0Zm-2.216,0h0Z" transform="translate(542.697 2709.391)" fill="#fff" stroke="rgba(0,0,0,0)" stroke-miterlimit="10" stroke-width="1"/>
    <path id="Path_9507" data-name="Path 9507" d="M1532.232,696.156a1.424,1.424,0,0,1,.745-.391,1.408,1.408,0,0,1,1.6.962,1.384,1.384,0,0,1-.3,1.366c-.187.217-.4.412-.6.615-.361.363-.725.723-1.085,1.087a.45.45,0,0,1-.519.133.474.474,0,0,1-.153-.1c-.221-.218-.437-.441-.657-.66-.308-.308-.616-.616-.928-.921a1.529,1.529,0,0,1-.479-.86,1.341,1.341,0,0,1,.533-1.354,1.4,1.4,0,0,1,1.825.1Z" transform="translate(-985.832 2015.455)" fill="#69c972" fill-rule="evenodd"/>
  </g>
</svg>
