<svg xmlns="http://www.w3.org/2000/svg" width="19.751" height="24" viewBox="0 0 19.751 24">
  <g id="Group_2090" data-name="Group 2090" transform="translate(-459.947 -2891.774)">
    <path id="Path_9500" data-name="Path 9500" d="M1200.361-257.315c.026-.159.058-.311.074-.465a2.933,2.933,0,0,0-.659-2.231,3.016,3.016,0,0,0-2.076-1.129,3.012,3.012,0,0,0-1.78.347.14.14,0,0,1-.155,0,2.874,2.874,0,0,0-1.364-.368,3.092,3.092,0,0,0-3.085,2.344,3.028,3.028,0,0,0,0,1.424c.005.022.008.045.014.081-.163-.023-.318-.039-.47-.067-.571-.1-1.143-.2-1.712-.321a22.172,22.172,0,0,1-2.616-.7c-.054-.018-.107-.038-.16-.06a.53.53,0,0,1-.353-.483,9.3,9.3,0,0,1-.02-1.742,5.027,5.027,0,0,1,.886-2.5,4.083,4.083,0,0,1,.857-.815,13.6,13.6,0,0,1,2.863-1.639c.406-.177.823-.331,1.222-.52a4.119,4.119,0,0,0,.619-.395,1.159,1.159,0,0,0,.443-.8c.036-.221.074-.443.117-.663a.179.179,0,0,0-.034-.158,5.965,5.965,0,0,1-.86-1.56.2.2,0,0,0-.033-.063,2.63,2.63,0,0,1-.506-1.128c-.059-.222-.124-.444-.166-.669a.744.744,0,0,1,.078-.54.1.1,0,0,0,0-.073,5.094,5.094,0,0,1-.218-1.765,3.276,3.276,0,0,1,.372-1.376c.079-.15.124-.317.2-.47a2.874,2.874,0,0,1,1.518-1.4c.184-.078.361-.176.548-.245a4.863,4.863,0,0,1,1.288-.265,7.381,7.381,0,0,1,1.355,0,4.447,4.447,0,0,1,1.652.45,5.605,5.605,0,0,1,.763.416,2.735,2.735,0,0,1,1.015,1.392.4.4,0,0,0,.032.074,3.384,3.384,0,0,1,.406,1.755,5.148,5.148,0,0,1-.225,1.432.1.1,0,0,0,0,.073.7.7,0,0,1,.082.513,5.994,5.994,0,0,1-.394,1.366,3.48,3.48,0,0,1-.264.435.622.622,0,0,0-.055.1,6,6,0,0,1-.854,1.543.176.176,0,0,0-.035.157c.042.208.088.417.112.627a1.346,1.346,0,0,0,.661,1.006,4.578,4.578,0,0,0,.92.464,14.3,14.3,0,0,1,3.125,1.6,8.826,8.826,0,0,1,1.024.818,3.585,3.585,0,0,1,.894,1.518,6.023,6.023,0,0,1,.274,1.35,9.584,9.584,0,0,1-.021,1.7.508.508,0,0,1-.355.479q-.43.156-.869.284a28.588,28.588,0,0,1-3.077.706c-.3.053-.6.1-.9.143C1200.434-257.319,1200.4-257.319,1200.361-257.315Z" transform="translate(-726.02 3169.537)" fill="#fff" fill-rule="evenodd"/>
    <path id="Path_9501" data-name="Path 9501" d="M1533.516,696.377a2.182,2.182,0,0,1,1.143-.6,2.16,2.16,0,0,1,2.451,1.476,2.123,2.123,0,0,1-.465,2.1c-.286.333-.613.632-.924.944-.554.556-1.113,1.109-1.664,1.668a.69.69,0,0,1-.8.2.723.723,0,0,1-.235-.16c-.339-.334-.671-.676-1.008-1.013-.473-.472-.945-.945-1.423-1.413a2.346,2.346,0,0,1-.734-1.319,2.058,2.058,0,0,1,.817-2.077,2.148,2.148,0,0,1,2.8.157Z" transform="translate(-1063.691 2213.555)" fill="#fff" fill-rule="evenodd"/>
  </g>
</svg>
