<svg xmlns="http://www.w3.org/2000/svg" width="32.422" height="25" viewBox="0 0 32.422 25">
  <g id="Group_18324" data-name="Group 18324" transform="translate(-48 -382)">
    <path id="Path_9502" data-name="Path 9502" d="M1153.164,69.076c-1.486.194-2.878.466-4.279.539a21.4,21.4,0,0,1-8.763-1.477,2.112,2.112,0,0,1-1.406-1.318,15.474,15.474,0,0,1-.74-2.469,2.686,2.686,0,0,1,1.638-3.075c1.456-.76,2.941-1.466,4.375-2.266.911-.508.974-1.261.448-2.216a13.933,13.933,0,0,1-1.149-2.582,5.9,5.9,0,0,1,.01-1.693c0-.211-.066-.424-.056-.634a7.411,7.411,0,0,1,.167-2.028c.254-.732,1.058-1.2.987-2.166-.02-.265.617-.693,1.029-.858a7,7,0,0,1,5.539.025,3.864,3.864,0,0,1,2.34,4.294,11.266,11.266,0,0,1-1.823,5.724,1.388,1.388,0,0,0,.516,2.143c1.27.737,2.575,1.413,3.96,2.167a6.281,6.281,0,0,0-2.918,3.292A6.406,6.406,0,0,0,1153.164,69.076Z" transform="translate(-1083.765 335.848)" fill="#00275e" fill-rule="evenodd"/>
    <path id="Path_9503" data-name="Path 9503" d="M1106.163,58.292l-2.529-.924c1.8-.823,1.8-.823,1.159-2.423a8.212,8.212,0,0,1,2.119-8.446,4.156,4.156,0,0,1,5.682.38,1.221,1.221,0,0,1,.1,1.16,4.758,4.758,0,0,0-.869,3.441,8.5,8.5,0,0,0,.435,3.252,15.246,15.246,0,0,0,.855,1.715c.37.618.466,1.128-.285,1.511-1.115.569-2.215,1.171-3.347,1.7-2.554,1.2-3.033,2.008-2.78,4.822a3.073,3.073,0,0,1-.03.407,9.931,9.931,0,0,1-5.256-2.193,1.248,1.248,0,0,1-.279-1.011,2.966,2.966,0,0,1,2.485-2.4,17.444,17.444,0,0,0,1.8-.355C1105.715,58.838,1105.927,58.506,1106.163,58.292Z" transform="translate(-1053.124 336.446)" fill="#00275e" fill-rule="evenodd"/>
    <path id="Path_9504" data-name="Path 9504" d="M1233.785,62.378a6.177,6.177,0,0,0-4.421-2.415,2.864,2.864,0,0,0-.749-.013c-2.521.489-4.271-1.176-6.207-2.271-.179-.1-.189-1,.028-1.2a2.419,2.419,0,0,0,.836-1.578,28.384,28.384,0,0,1,.721-2.961,5.5,5.5,0,0,0-1.077-5.4,5.774,5.774,0,0,1,.891-.545,5.988,5.988,0,0,1,4.644.052c1.541.668,2.153,2.076,1.9,3.961a9.913,9.913,0,0,1-1.5,4.446,1.152,1.152,0,0,0,.449,1.8c1.091.609,2.213,1.168,3.334,1.722C1234.462,58.878,1234.929,60.565,1233.785,62.378Z" transform="translate(-1153.983 336.451)" fill="#00275e" fill-rule="evenodd"/>
    <path id="Subtraction_2" data-name="Subtraction 2" d="M5,10a5,5,0,1,1,5-5A5.006,5.006,0,0,1,5,10ZM4.034,7.133c.173.175.352.356.531.532a.625.625,0,0,0,.208.14A.642.642,0,0,0,5,7.852a.653.653,0,0,0,.468-.227c.3-.3.609-.612.907-.909l.559-.559c.077-.077.154-.153.232-.229.2-.193.4-.391.581-.6A1.864,1.864,0,0,0,8.161,3.48,1.9,1.9,0,0,0,6.349,2.148,1.831,1.831,0,0,0,6,2.181,1.917,1.917,0,0,0,5,2.708L4.98,2.693l-.016-.015a1.9,1.9,0,0,0-1.319-.53A1.86,1.86,0,0,0,2.5,2.539a1.812,1.812,0,0,0-.719,1.83A2.055,2.055,0,0,0,2.425,5.53c.356.348.714.706,1.061,1.052l.192.192.353.355,0,0Z" transform="translate(70 397)" fill="#00275e"/>
  </g>
</svg>
