<svg xmlns="http://www.w3.org/2000/svg" width="26.285" height="31.94" viewBox="0 0 26.285 31.94">
  <g id="Group_18221" data-name="Group 18221" transform="translate(-1505 -428)">
    <g id="Group_18210" data-name="Group 18210" transform="translate(1505 428)">
      <path id="Path_9500" data-name="Path 9500" d="M1205.124-250.551c.034-.212.077-.414.1-.618a3.9,3.9,0,0,0-.877-2.969,4.014,4.014,0,0,0-2.763-1.5,4.009,4.009,0,0,0-2.369.462.186.186,0,0,1-.206,0,3.826,3.826,0,0,0-1.816-.489,4.115,4.115,0,0,0-4.106,3.12,4.036,4.036,0,0,0,0,1.9c.007.029.01.059.019.108-.218-.03-.423-.052-.625-.089-.76-.139-1.521-.271-2.278-.427a29.511,29.511,0,0,1-3.482-.93c-.072-.024-.143-.05-.212-.079a.706.706,0,0,1-.47-.643,12.387,12.387,0,0,1-.026-2.318,6.692,6.692,0,0,1,1.179-3.328,5.434,5.434,0,0,1,1.141-1.085,18.092,18.092,0,0,1,3.81-2.181c.54-.236,1.094-.44,1.627-.692a5.49,5.49,0,0,0,.824-.526,1.542,1.542,0,0,0,.59-1.07c.049-.295.1-.589.156-.883a.238.238,0,0,0-.045-.21,7.931,7.931,0,0,1-1.145-2.076.267.267,0,0,0-.044-.084,3.5,3.5,0,0,1-.673-1.5c-.078-.3-.164-.591-.22-.891a.989.989,0,0,1,.1-.718.137.137,0,0,0,.005-.1,6.774,6.774,0,0,1-.29-2.349,4.364,4.364,0,0,1,.5-1.831c.106-.2.164-.423.264-.625a3.824,3.824,0,0,1,2.02-1.865c.245-.1.48-.234.73-.326a6.47,6.47,0,0,1,1.714-.352,9.815,9.815,0,0,1,1.8,0,5.917,5.917,0,0,1,2.2.6,7.457,7.457,0,0,1,1.016.553,3.642,3.642,0,0,1,1.35,1.853.527.527,0,0,0,.042.1,4.5,4.5,0,0,1,.54,2.336,6.856,6.856,0,0,1-.3,1.906.131.131,0,0,0,.006.1.938.938,0,0,1,.11.682,7.982,7.982,0,0,1-.525,1.818,4.63,4.63,0,0,1-.352.579.838.838,0,0,0-.073.135,8,8,0,0,1-1.137,2.054.234.234,0,0,0-.047.209c.056.277.117.555.148.835a1.791,1.791,0,0,0,.88,1.339,6.084,6.084,0,0,0,1.224.618,19.028,19.028,0,0,1,4.159,2.134,11.772,11.772,0,0,1,1.363,1.088,4.772,4.772,0,0,1,1.19,2.021,8.022,8.022,0,0,1,.364,1.8,12.762,12.762,0,0,1-.028,2.257.676.676,0,0,1-.473.638q-.572.208-1.157.379a38.032,38.032,0,0,1-4.094.94c-.4.07-.795.128-1.192.191C1205.221-250.556,1205.174-250.555,1205.124-250.551Z" transform="translate(-1185.966 277.762)" fill="#01b9f1" fill-rule="evenodd"/>
      <path id="Path_9501" data-name="Path 9501" d="M1534.736,696.588a2.88,2.88,0,0,1,4.782,1.167,2.825,2.825,0,0,1-.618,2.789c-.38.444-.816.841-1.23,1.256-.737.741-1.48,1.475-2.214,2.219a.917.917,0,0,1-1.059.272.959.959,0,0,1-.313-.212c-.451-.445-.893-.9-1.341-1.348-.629-.629-1.258-1.258-1.893-1.88a3.123,3.123,0,0,1-.977-1.755,2.739,2.739,0,0,1,1.088-2.764,2.859,2.859,0,0,1,3.726.209C1534.7,696.556,1534.714,696.568,1534.736,696.588Z" transform="translate(-1521.59 -672.423)" fill="#01b9f1" fill-rule="evenodd"/>
    </g>
  </g>
</svg>
