<svg id="Layer_1" data-name="Layer 1" xmlns="http://www.w3.org/2000/svg" width="33" height="38.5" viewBox="0 0 33 38.5">
  <path id="Path_17387" data-name="Path 17387" d="M37.914,9.155c.6.108.715.237.683.8A4.009,4.009,0,0,1,37.26,13.13a2.369,2.369,0,0,0-.586,1.176,11.066,11.066,0,0,1-2.61,5.015,5.1,5.1,0,0,1-4.24,1.783,6.2,6.2,0,0,1-4.244-2.558,10.126,10.126,0,0,1-1.9-4.264,2.5,2.5,0,0,0-.743-1.361,4.16,4.16,0,0,1-1.261-2.59c-.088-.7.044-.927.679-1.2a8.737,8.737,0,0,1-.028-3.477,2.848,2.848,0,0,1,1.554-2.333c.257-.112.321-.313.4-.59a1.983,1.983,0,0,1,.51-1.024A6.633,6.633,0,0,1,28.4.1a9.58,9.58,0,0,1,5.9.879,7.022,7.022,0,0,1,3.7,7.717A4.076,4.076,0,0,0,37.914,9.155Z" transform="translate(-13.574 0.039)" fill="#fff"/>
  <path id="Path_17388" data-name="Path 17388" d="M62.274,70.206a.8.8,0,1,1,.817-.789A.8.8,0,0,1,62.274,70.206Z" transform="translate(-37.728 -41.38)" fill="#fff"/>
  <path id="Path_17389" data-name="Path 17389" d="M29.027,50.207A38.486,38.486,0,0,0,24.889,48.2a6.2,6.2,0,0,0-.635-.221c.054.189.074.285.108.369a11.762,11.762,0,0,1,.612,5.3c-.023.345,0,.534.333.715a1.489,1.489,0,0,1-.888,2.746,1.473,1.473,0,0,1-1.3-1.3,1.5,1.5,0,0,1,.975-1.606l.449-.145c0-1.08.039-2.136,0-3.212a6.19,6.19,0,0,0-.8-2.839,1.142,1.142,0,0,0-.387-.442,5.507,5.507,0,0,1-2.322-1.67l-.135.024q-1.343,6.926-2.709,13.848c-.236-2.762-.348-5.5-.523-8.243a4.623,4.623,0,0,1,.492-2.63,7.774,7.774,0,0,0,.31-.723,11.992,11.992,0,0,1-1.835.293,12.012,12.012,0,0,1-1.831-.261c.1.237.232.47.317.719A5.362,5.362,0,0,1,15.6,50.6c-.066,2.6-.224,5.2-.356,7.793-.023.478-.058.956-.089,1.429h-.081L12.151,45.77A5.681,5.681,0,0,1,9.5,47.653a.8.8,0,0,0-.534.646,3.454,3.454,0,0,0,.24,2.265c.418,0,.855-.036,1.281,0A3.145,3.145,0,0,1,13.4,53.375c.05.3.031.606.085.9.17.948.36,1.891.534,2.835a1.131,1.131,0,0,1-.125.858,1.058,1.058,0,0,1-.688.495c-.263.08-.511.213-.774.293a1.2,1.2,0,0,1-.565.052c-.062,0-.132-.4-.077-.442a.818.818,0,0,1,.55-.157c1.006.2,1.548-.305,1.339-1.325q-.387-1.919-.836-3.834a2.34,2.34,0,0,0-1.618-1.795,4.072,4.072,0,0,0-4.18.8,2.338,2.338,0,0,0-.852,2.148c.2,1.486.464,2.963.732,4.441a.727.727,0,0,0,.36.539.678.678,0,0,0,.631.02,5.066,5.066,0,0,1,.48-.257.688.688,0,0,1,.492.028.413.413,0,0,1,.081.4.688.688,0,0,1-.445.233c-.221,0-.449-.06-.673-.056-.774,0-1.092-.253-1.25-1.044A27.364,27.364,0,0,0,5.966,55.4,3.3,3.3,0,0,1,7.4,51.21a10.815,10.815,0,0,1,1.1-.542V48.035a20.018,20.018,0,0,0-4.784,2.337A8.567,8.567,0,0,0,.257,55.655a20.783,20.783,0,0,0-.178,5.324,1.529,1.529,0,0,0,.677,1.2A16.74,16.74,0,0,0,6.26,64.9,35.266,35.266,0,0,0,18.1,66.287a33.613,33.613,0,0,0,9.44-1.682A16.156,16.156,0,0,0,32.158,62.2a1.318,1.318,0,0,0,.635-.96c.07-1.152.217-2.3.2-3.453A8.533,8.533,0,0,0,29.027,50.207Zm-3.4,14.551a3.335,3.335,0,1,1,3.213-3.333A3.274,3.274,0,0,1,25.625,64.757Z" transform="translate(0.005 -27.837)" fill="#fff"/>
  <rect id="Rectangle_3416" data-name="Rectangle 3416" width="0.815" height="5.228" transform="translate(25.211 30.974)" fill="#fff"/>
  <rect id="Rectangle_3417" data-name="Rectangle 3417" width="0.815" height="5.228" transform="translate(27.968 33.178) rotate(90)" fill="#fff"/>
</svg>
