<svg xmlns="http://www.w3.org/2000/svg" width="84.754" height="102.742" viewBox="0 0 84.754 102.742">
  <g id="Layer_2" data-name="Layer 2" transform="translate(0.005 0.039)">
    <g id="Layer_1" data-name="Layer 1" transform="translate(-0.005 -0.039)">
      <path id="Path_17387" data-name="Path 17387" d="M63.424,23.574c1.536.278,1.836.608,1.753,2.062-.175,3.094-.773,6-3.434,8.146A6.084,6.084,0,0,0,60.237,36.8c-1.31,4.785-3.176,9.281-6.7,12.88-2.97,3.042-6.5,5.012-10.889,4.578-4.63-.443-8.095-3.094-10.9-6.569a26.007,26.007,0,0,1-4.888-10.951,6.414,6.414,0,0,0-1.908-3.5A10.683,10.683,0,0,1,21.712,26.6c-.227-1.794.113-2.382,1.743-3.094a22.438,22.438,0,0,1-.072-8.93C23.9,12,24.764,9.736,27.373,8.581c.66-.289.825-.8,1.031-1.516a5.094,5.094,0,0,1,1.31-2.63A17.035,17.035,0,0,1,38.995.311,24.6,24.6,0,0,1,54.153,2.569c7.4,3.846,10.931,11.343,9.508,19.819A10.464,10.464,0,0,0,63.424,23.574Z" transform="translate(-0.912 0.039)" fill="#365394"/>
      <path id="Path_17388" data-name="Path 17388" d="M63.511,72.725a2.063,2.063,0,1,1,2.1-2.026A2.063,2.063,0,0,1,63.511,72.725Z" transform="translate(-0.471 4.159)" fill="#365394"/>
      <path id="Path_17389" data-name="Path 17389" d="M74.557,57.165A98.846,98.846,0,0,0,63.93,52.009a15.922,15.922,0,0,0-1.63-.567c.139.485.189.732.278.949,1.789,4.383,1.869,8.992,1.571,13.622-.06.887,0,1.372.855,1.836A3.824,3.824,0,0,1,62.722,74.9a3.783,3.783,0,0,1-3.335-3.341,3.845,3.845,0,0,1,2.505-4.125l1.153-.371c0-2.774.1-5.486,0-8.25A15.9,15.9,0,0,0,61,51.524,2.934,2.934,0,0,0,60,50.39c-2.217-1.093-4.473-2.124-5.965-4.29l-.348.062Q50.241,63.95,46.732,81.728c-.606-7.095-.895-14.138-1.342-21.17A11.874,11.874,0,0,1,46.653,53.8a19.965,19.965,0,0,0,.8-1.856,30.8,30.8,0,0,1-4.712.753,30.85,30.85,0,0,1-4.7-.67c.268.608.6,1.206.815,1.846.467,1.423,1.272,2.877,1.233,4.3-.169,6.672-.577,13.344-.915,20.015-.06,1.227-.149,2.454-.229,3.671H38.73L31.214,45.77a14.59,14.59,0,0,1-6.819,4.836,2.042,2.042,0,0,0-1.372,1.66,8.87,8.87,0,0,0,.616,5.816c1.074,0,2.2-.093,3.29,0A8.078,8.078,0,0,1,34.415,65.3c.129.763.08,1.557.219,2.31.437,2.434.925,4.857,1.372,7.28a2.905,2.905,0,0,1-.321,2.2,2.716,2.716,0,0,1-1.766,1.271c-.676.206-1.312.547-1.988.753a3.072,3.072,0,0,1-1.451.134c-.159,0-.338-1.031-.2-1.134a2.1,2.1,0,0,1,1.412-.4c2.585.526,3.976-.784,3.44-3.4q-.994-4.929-2.147-9.848a6.009,6.009,0,0,0-4.155-4.609,10.459,10.459,0,0,0-10.736,2.062,6,6,0,0,0-2.187,5.517c.517,3.815,1.193,7.61,1.879,11.4a1.867,1.867,0,0,0,.924,1.383,1.742,1.742,0,0,0,1.621.05,13.008,13.008,0,0,1,1.233-.66,1.768,1.768,0,0,1,1.262.072,1.06,1.06,0,0,1,.209,1.031,1.768,1.768,0,0,1-1.143.6c-.567,0-1.153-.155-1.73-.144-1.988,0-2.8-.65-3.211-2.681a70.278,70.278,0,0,0-1.62-7.981c-1.461-4.537-.308-8.373,3.688-10.766a27.771,27.771,0,0,1,2.833-1.392V51.586c-4.285,1.64-8.539,3.269-12.287,6a22,22,0,0,0-8.9,13.57C-.3,75.685,0,80.263.209,84.831a3.927,3.927,0,0,0,1.74,3.094A42.993,42.993,0,0,0,16.084,94.9a90.573,90.573,0,0,0,30.409,3.568,86.328,86.328,0,0,0,24.246-4.321A41.494,41.494,0,0,0,82.6,87.956a3.385,3.385,0,0,0,1.63-2.465c.179-2.96.557-5.919.517-8.868C84.647,68.271,81.446,61.527,74.557,57.165Zm-8.738,37.37a8.565,8.565,0,1,1,8.251-8.559A8.409,8.409,0,0,1,65.819,94.535Z" transform="translate(0.005 4.151)" fill="#365394"/>
      <rect id="Rectangle_3416" data-name="Rectangle 3416" width="2.093" height="13.426" transform="translate(64.75 83.414)" fill="#365394"/>
      <rect id="Rectangle_3417" data-name="Rectangle 3417" width="2.093" height="13.426" transform="translate(71.83 89.075) rotate(90)" fill="#365394"/>
    </g>
  </g>
</svg>
