<svg xmlns="http://www.w3.org/2000/svg" width="9.107" height="13.525" viewBox="0 0 9.107 13.525">
  <g id="quality" transform="translate(-77.056)">
    <path id="Path_9405" data-name="Path 9405" d="M131.068,274.465a4.67,4.67,0,0,1-.749.464.879.879,0,0,1-.12.06h-.015a.052.052,0,0,1-.03.015l-.09.045c-.015,0-.015.015-.03.015l-.225.09c-.015,0-.03.015-.045.015l-.135.045c-.06.015-.12.045-.18.06a4.2,4.2,0,0,1-1.153.15,4.129,4.129,0,0,1-1.153-.15,2.15,2.15,0,0,1-.374-.12l-.21-.09c-.015,0-.015-.015-.03-.015l-.09-.045a.052.052,0,0,0-.03-.015H126.4c-.015-.015-.06-.03-.1-.06a3.143,3.143,0,0,1-.779-.494,1.589,1.589,0,0,1-.18-.15l-.21,5.033v.015a.6.6,0,0,0,.359.554.6.6,0,0,0,.644-.09l2.187-1.887L130.5,279.8a.581.581,0,0,0,.389.15.529.529,0,0,0,.255-.06.63.63,0,0,0,.36-.554v-.015l-.21-5.033c-.075.06-.135.1-.225.18Z" transform="translate(-46.688 -266.422)" fill="#fff"/>
    <path id="Path_9406" data-name="Path 9406" d="M85.683,6.605a4.672,4.672,0,0,0,.479-2.037,4.553,4.553,0,1,0-7.519,3.445c.06.045.12.1.18.15a3.141,3.141,0,0,0,.779.494c.045.03.09.045.1.06h.015a.052.052,0,0,1,.03.015l.09.045c.015,0,.015.015.03.015l.21.09a2.151,2.151,0,0,0,.374.12,4.127,4.127,0,0,0,1.153.15A4.2,4.2,0,0,0,82.763,9c.06-.015.12-.045.18-.06l.135-.045c.015,0,.03-.015.045-.015l.225-.09c.015,0,.015-.015.03-.015l.09-.045a.052.052,0,0,0,.03-.015h.015a.882.882,0,0,0,.12-.06,4.666,4.666,0,0,0,.749-.464.015.015,0,0,0,.015-.015c.075-.06.135-.1.21-.165A4.766,4.766,0,0,0,85.683,6.605Z" transform="translate(0)" fill="#fc0"/>
    <path id="Path_9407" data-name="Path 9407" d="M158.352,110.143a.434.434,0,0,0,.629,0l2.277-2.277a.445.445,0,1,0-.629-.629l-1.962,1.962-.914-.929a.445.445,0,0,0-.629.629Z" transform="translate(-77.642 -104.032)" fill="#fff"/>
  </g>
</svg>
