<svg xmlns="http://www.w3.org/2000/svg" width="325.761" height="402.383" viewBox="0 0 325.761 402.383">
  <g id="Group_16598" data-name="Group 16598" transform="translate(-152 104)">
    <path id="Path_10778" data-name="Path 10778" d="M176.261,170.01c20.971,39.309,85.922,36.233,106.684,75.653,10.933,20.756,4.942,47.168-8.7,66.258s-33.694,32.416-53.294,45.308q-35.121,23.114-70.244,46.221c-24.56,16.161-50.865,32.889-80.256,33.482-32.846.663-63.617-20-81.507-47.555S-35.517,328.321-36.9,295.5C-40.132,218.4-13.078,102.55,51.451,51.548c26.925-21.28,58.737-22.88,87.8-3.006C186.955,81.173,153.513,127.362,176.261,170.01Z" transform="translate(189.155 -138.564)" fill="#97d3d3" opacity="0.2"/>
    <path id="Path_11375" data-name="Path 11375" d="M508.713,415.309c0,6.791-32.79,19.582-51.908,19.582-35.033,0-74.958-12.791-74.958-19.582s28.4-12.3,63.433-12.3S508.713,408.517,508.713,415.309Z" transform="translate(-171.561 -196.545)" fill="#2eceb7" opacity="0.1" style="mix-blend-mode: multiply;isolation: isolate"/>
    <g id="Group_2467" data-name="Group 2467" transform="translate(184 109.331)">
      <g id="Group_2450" data-name="Group 2450">
        <g id="Group_2449" data-name="Group 2449" transform="translate(28.754 24.145)">
          <path id="Path_11376" data-name="Path 11376" d="M507.835,293,463.769,316.31,387.208,293s.51,57.847,1.7,59.718,69.926,23.649,74.52,22.8,41.513-23.479,43.215-25.181S507.835,293,507.835,293Z" transform="translate(-387.208 -270.65)" fill="#ffd141"/>
          <path id="Path_11377" data-name="Path 11377" d="M507.835,266.794s-59.889-22.583-63.121-22.351-56.654,20.82-57.506,22.351L463.769,290.1Z" transform="translate(-387.208 -244.442)" fill="#ffd141"/>
          <path id="Path_11378" data-name="Path 11378" d="M507.835,266.794s-59.889-22.583-63.121-22.351-56.654,20.82-57.506,22.351L463.769,290.1Z" transform="translate(-387.208 -244.442)" fill="#f0a90f" style="mix-blend-mode: multiply;isolation: isolate"/>
        </g>
        <path id="Path_11379" data-name="Path 11379" d="M512.138,216.134s17.865-23.076,21.267-24.1,66.9,13.951,68.414,15.823-26.56,30.625-26.56,30.625S540.55,226.791,512.138,216.134Z" transform="translate(-425.878 -191.988)" fill="#f0a90f"/>
        <path id="Path_11380" data-name="Path 11380" d="M411,217.978s-15.057-17.174-29.434-22.566c-1.361-.51-57,21.653-56.826,22.566s24.671,16.4,28.753,22.351C353.495,240.328,405.386,220.468,411,217.978Z" transform="translate(-324.741 -193.831)" fill="#f0a90f"/>
        <path id="Path_11381" data-name="Path 11381" d="M565.724,235.27c-4.1.593-15.328,1.278-19.163.479-2.678-.557-10.632-4.221-15.418-6.3.762-2.91,4.168-5.415,3.232-6.274-1.273-1.17-7.091-7.537-9.764-7.764a15.343,15.343,0,0,1-1.594-.26c-5.445,6.467-10.879,13.486-10.879,13.486,19.964,7.488,43.035,15.487,54.991,19.583-.525-5.268-.9-9.029-.9-9.029C566.155,237.947,567.728,234.98,565.724,235.27Z" transform="translate(-425.878 -204.487)" fill="#f0a90f" opacity="0.3" style="mix-blend-mode: multiply;isolation: isolate"/>
      </g>
      <g id="Group_2462" data-name="Group 2462" transform="translate(39.837 8.454)">
        <g id="Group_2454" data-name="Group 2454" transform="translate(16.634)">
          <path id="Path_11382" data-name="Path 11382" d="M473.531,210.353s10.81,3.152,13.482,3.379,8.491,6.595,9.764,7.764-5.5,5.383-2.7,9.52,8.943.481,9.036,1.716.5,8.847,1,10.652-6.175,13.527-7.327,16.141A29.747,29.747,0,0,1,484,254.392s-18.529,10.49-19.818,10.994-6.362-8.278-10.107-15.918-7.288-14.866-6.561-15.736,21.4-10.107,21.4-10.107S469.146,214.039,473.531,210.353Z" transform="translate(-447.422 -210.353)" fill="#84e2d5"/>
          <g id="Group_2451" data-name="Group 2451" transform="translate(6.576 0.586)">
            <path id="Path_11383" data-name="Path 11383" d="M545.576,250.579c.841-1.889,1.372-3.4,1.217-3.952a12.564,12.564,0,0,1-.273-1.576c-.427-.46-.846-.926-1.271-1.369a89.217,89.217,0,0,1-6.923-7.817c-.076-.1-.15-.2-.224-.3a4.44,4.44,0,0,1-1.341-1.306,3.839,3.839,0,0,1-.648-1.669,48.122,48.122,0,0,1-3.815-8.144,27.466,27.466,0,0,1-1.831-7.274,2.909,2.909,0,0,0-.77-.2,26.357,26.357,0,0,1-3.185-.612C528.928,229.329,535.354,242.246,545.576,250.579Z" transform="translate(-496.683 -214.183)" fill="#24a08b"/>
            <path id="Path_11384" data-name="Path 11384" d="M525.457,251.242a51.35,51.35,0,0,0,5.586,4.429c.636-1.222,1.329-2.557,1.992-3.877-1.13-.916-2.253-1.836-3.347-2.769a57.4,57.4,0,0,1-12-15.1A52.929,52.929,0,0,1,512.3,221.47a44.935,44.935,0,0,1-1.46-8.927c-1.232-.333-2.389-.656-3.312-.917a22.57,22.57,0,0,0-.891,6.941,33.16,33.16,0,0,0,3.139,11.829A63.335,63.335,0,0,0,525.457,251.242Z" transform="translate(-485.946 -211.626)" fill="#24a08b"/>
            <path id="Path_11385" data-name="Path 11385" d="M484.461,276.6a97.628,97.628,0,0,1-10.66-16.91c-2.032-3.975-3.955-8.026-5.658-12.168-2.143.978-4.409,2.023-6.435,2.975q2.027,4.935,4.383,9.738a145.81,145.81,0,0,0,12.779,21.433c2.181-1.215,4.564-2.551,6.68-3.741C485.182,277.493,484.818,277.052,484.461,276.6Z" transform="translate(-461.709 -231.001)" fill="#24a08b"/>
            <path id="Path_11386" data-name="Path 11386" d="M490.229,236.95c-.05.642-.059,1.029-.059,1.029s-1.353.6-3.377,1.517a106.9,106.9,0,0,0,6.455,15.4,91.621,91.621,0,0,0,9.682,15.16l2.322-1.312a25.508,25.508,0,0,0,4.642,2.713,90.357,90.357,0,0,1-11.681-16.55C495.018,249.235,491.908,243.32,490.229,236.95Z" transform="translate(-475.247 -225.293)" fill="#24a08b"/>
          </g>
          <g id="Group_2452" data-name="Group 2452" transform="translate(21.432 6.413)">
            <path id="Path_11387" data-name="Path 11387" d="M509.815,224.3c-5.27,2.13-10.646,4.087-15.756,6.588a.143.143,0,0,0,.127.257c5.109-2.5,10.485-4.457,15.756-6.586.171-.069.044-.327-.127-.259Z" transform="translate(-493.981 -224.285)" fill="#24a08b"/>
          </g>
          <g id="Group_2453" data-name="Group 2453" transform="translate(36.516 34.66)">
            <path id="Path_11388" data-name="Path 11388" d="M542.821,285.669c-2.684,1.487-5.386,2.939-8.016,4.52q-2.018,1.21-3.977,2.508a34.789,34.789,0,0,1-4,2.215.144.144,0,0,0,.126.258,34.5,34.5,0,0,0,3.771-2.064c1.311-.859,2.628-1.7,3.968-2.516,2.7-1.643,5.49-3.131,8.253-4.662.161-.089.035-.348-.127-.258Z" transform="translate(-526.751 -285.65)" fill="#24a08b"/>
          </g>
          <path id="Path_11389" data-name="Path 11389" d="M454.078,265.645c3.745,7.64,8.818,16.423,10.107,15.918S484,270.569,484,270.569a29.747,29.747,0,0,0,12.779,5.133c1.152-2.614,7.826-14.338,7.327-16.141s-.9-9.417-1-10.652-6.241,2.42-9.036-1.716c-1.156-1.71-.676-3.433.194-4.949a28.286,28.286,0,0,0-4.836-1.911c-1.89.657-1.381,2.334-1.906,3.46l-3.467,6.767c-2.112-2.682-4.022-4.846-4.865-5-2.081-.391-10.013-3.771-11.314-4.292s-.651,7.543-6.242,8.323c-2.876.4-4.512-1.776-5.672-3.89a81.49,81.49,0,0,0-8.451,4.213C446.791,250.778,450.334,258.005,454.078,265.645Z" transform="translate(-447.422 -226.53)" fill="#1b899a" opacity="0.4" style="mix-blend-mode: multiply;isolation: isolate"/>
        </g>
        <g id="Group_2456" data-name="Group 2456" transform="translate(37.587 15.975)">
          <path id="Path_11390" data-name="Path 11390" d="M552.693,252.325c2-.29.431,2.676.507,3.918,0,0,2.9,29.234,3.9,38.862,0,0,.939,3.709-.037,4.317s-30.267.1-30.8-.358.318-4.985.318-4.985L527,283.135l-3.6,10.344s-.856,4.522-1.527,4.755-28.116-10.01-28.8-10.934,1.547-4.031,1.547-4.031c4.441-8.6,17.835-34.745,17.835-34.745.525-1.126.016-2.8,1.906-3.46.669-.232,15.334,6.941,19.169,7.74S548.593,252.918,552.693,252.325Z" transform="translate(-492.943 -245.059)" fill="#1f9999"/>
          <g id="Group_2455" data-name="Group 2455" transform="translate(1.785 3.135)">
            <path id="Path_11391" data-name="Path 11391" d="M568.6,284.7a6,6,0,0,0,4.809-4.69c.517-1.948.957-3.912,1.484-5.856s1.221-3.838,1.737-5.786v-.005a39.7,39.7,0,0,0,4.788.554,43.425,43.425,0,0,0,4.359-.127,21.447,21.447,0,0,0,7.922,10.181c.212.14.471-.135.258-.277a21.052,21.052,0,0,1-7.767-9.932c.231-.015.464-.031.7-.047,1.818-.121,3.621-.221,5.416-.512.25-.041.214-.412-.038-.371a56.467,56.467,0,0,1-6.258.62.227.227,0,0,0-.191.009c-1.116.051-2.232.082-3.334.1a33.777,33.777,0,0,1-5.707-.544c-1.35-.215-3.139-.213-4.363-.841l0,0a21.343,21.343,0,0,1,1.252-3.782c.1-.217-.261-.387-.362-.169a32.632,32.632,0,0,0-1.777,5.96c-.785,3.2-1.471,6.425-2.142,9.652-.631,3.044-1.235,6.094-1.833,9.145-.293,1.5-.52,3.034-.9,4.519-.059.231.337.305.4.076.362-1.437.581-2.918.867-4.37C568.135,287.033,568.367,285.867,568.6,284.7Zm3.188-14.928c.176-.734.345-1.485.527-2.236a12.967,12.967,0,0,0,3.608.715l.311.049c-.884,3.327-1.951,6.586-2.779,9.929a11.152,11.152,0,0,1-1.584,4.213,5.443,5.443,0,0,1-3.192,1.854q.5-2.495,1.009-4.988C570.344,276.121,571.024,272.937,571.784,269.772Z" transform="translate(-534.502 -257.94)" fill="#2eceb7"/>
            <path id="Path_11392" data-name="Path 11392" d="M523.327,263.176c5.588.546,10.013-2.911,13.159-6.724.555.265,1.113.524,1.687.762,3.275,1.351,6.75,2.187,10.025,3.532.237.1.41-.233.171-.332-3.274-1.344-6.739-2.207-10.025-3.532-3.337-1.346-6.3-3.33-9.466-4.988a.187.187,0,1,0-.171.332c2.5,1.31,4.882,2.8,7.413,4.047-3.047,3.671-7.324,7.067-12.725,6.539C523.14,262.788,523.069,263.151,523.327,263.176Z" transform="translate(-511.039 -251.869)" fill="#2eceb7"/>
            <path id="Path_11393" data-name="Path 11393" d="M525.409,336.772c-9.625-2.737-19.825-4.46-28.248-10.008-.213-.141-.473.136-.26.275,8.491,5.6,18.736,7.34,28.44,10.1C525.59,337.207,525.657,336.842,525.409,336.772Z" transform="translate(-496.822 -292.268)" fill="#2eceb7"/>
            <path id="Path_11394" data-name="Path 11394" d="M595.909,351.536c-2.356.333-4.826.262-7.21.36-2.615.107-5.23.225-7.847.319-4.808.172-9.69.51-14.413-.79-.25-.07-.317.3-.069.363,4.509,1.243,9.248,1.044,13.845.829,2.577-.118,5.155-.209,7.733-.317,2.644-.111,5.389-.024,8-.392A.187.187,0,1,0,595.909,351.536Z" transform="translate(-534.272 -305.594)" fill="#2eceb7"/>
          </g>
          <path id="Path_11395" data-name="Path 11395" d="M585.38,267.625a1.517,1.517,0,1,1-1.233-1.531A1.4,1.4,0,0,1,585.38,267.625Z" transform="translate(-541.232 -256.395)" fill="#2eceb7"/>
          <path id="Path_11396" data-name="Path 11396" d="M519.177,279.056c-1.522-1.807-6.521-9.037-9.912-12.945-4.247,8.286-11.579,22.584-14.645,28.521,0,0-2.232,3.11-1.547,4.031.359.484,8.056,3.523,15.4,6.275-.381-7.162-.875-15.458-.875-15.458A33.653,33.653,0,0,0,519.177,279.056Z" transform="translate(-492.943 -256.421)" fill="#1b899a" opacity="0.4" style="mix-blend-mode: multiply;isolation: isolate"/>
          <path id="Path_11397" data-name="Path 11397" d="M542.039,344.244c.671-.234,1.527-4.755,1.527-4.755l3.195-9.179a178.75,178.75,0,0,0-16.458,9.9C536.349,342.451,541.747,344.347,542.039,344.244Z" transform="translate(-513.106 -291.069)" fill="#1b899a" opacity="0.4" style="mix-blend-mode: multiply;isolation: isolate"/>
          <path id="Path_11398" data-name="Path 11398" d="M593.464,300.262c-9.24,4.478-18.6,8.791-27.652,13.633l-.394,9.977s-.856,4.523-.318,4.985,29.831.967,30.8.358.037-4.317.037-4.317C595.416,319.779,594.349,309.123,593.464,300.262Z" transform="translate(-531.79 -274.852)" fill="#1b899a" opacity="0.4" style="mix-blend-mode: multiply;isolation: isolate"/>
        </g>
        <g id="Group_2461" data-name="Group 2461" transform="translate(0 16.888)">
          <path id="Path_11399" data-name="Path 11399" d="M411.286,265.969s8.583-9.41,10.143-12.011,10.924-5.34,12.745-6.051,2.731,8.262,8.324,7.481,4.941-8.843,6.242-8.323,9.233,3.9,11.314,4.291,10.664,13.005,12.745,15.476a33.652,33.652,0,0,1-11.575,10.424s1.431,24.039,1.3,25.6-11.575,2.341-21.2,2.341-18.727,0-19.248-1.171.391-26.77.391-26.77S412.847,272.257,411.286,265.969Z" transform="translate(-411.286 -247.042)" fill="#fff"/>
          <g id="Group_2457" data-name="Group 2457" transform="translate(10.925 10.639)">
            <path id="Path_11400" data-name="Path 11400" d="M436.175,270.311c-.461,6.412-1.151,12.846-1.154,19.28a.162.162,0,0,0,.325,0c0-6.434.693-12.869,1.154-19.28.015-.209-.309-.208-.325,0Z" transform="translate(-435.021 -270.154)" fill="#72cace"/>
          </g>
          <g id="Group_2458" data-name="Group 2458" transform="translate(48.399 9.145)">
            <path id="Path_11401" data-name="Path 11401" d="M516.433,267.066c.174,3.464.306,6.933.6,10.39.15,1.768.338,3.527.568,5.287a39.426,39.426,0,0,1,.259,5.164.162.162,0,0,0,.324,0,38.882,38.882,0,0,0-.219-4.856c-.22-1.762-.419-3.516-.58-5.283-.324-3.56-.447-7.134-.626-10.7-.011-.208-.335-.209-.325,0Z" transform="translate(-516.432 -266.91)" fill="#72cace"/>
          </g>
          <g id="Group_2459" data-name="Group 2459" transform="translate(35.704 19.26)">
            <path id="Path_11402" data-name="Path 11402" d="M488.852,289.041c.074,1.742-.064,3.524.13,5.255.066.582.169,1.161.276,1.737.036.195.034.639.185.794.526.539,1.071,1.06,1.624,1.571.463.429.94.842,1.437,1.232.223.175.69.639.991.639s.74-.446.96-.614c.462-.353.9-.738,1.328-1.129.606-.546,1.194-1.115,1.765-1.7.127-.13.125-.478.156-.64.109-.563.208-1.128.28-1.7.226-1.794.077-3.641.154-5.448.009-.209-.316-.209-.325,0-.069,1.624.032,3.269-.093,4.888a21.135,21.135,0,0,1-.443,2.726c.02-.094-.226.21-.309.291q-.494.492-1,.967a14.9,14.9,0,0,1-2.445,1.991c-.324.2-2.093-1.614-2.366-1.865q-.757-.7-1.479-1.436c.086.088.008-.064-.006-.137-.035-.173-.069-.346-.1-.52-.116-.61-.215-1.222-.285-1.838-.187-1.665-.038-3.392-.109-5.068-.01-.209-.334-.209-.325,0Z" transform="translate(-488.852 -288.884)" fill="#72cace"/>
          </g>
          <path id="Path_11403" data-name="Path 11403" d="M466.617,259.059c4.074.068,7.4-3.326,8.622-6.992a18.162,18.162,0,0,0,.719-3.986c-1.167-.481-2.085-.865-2.458-1.014-1.3-.52-.651,7.543-6.242,8.323s-6.5-8.193-8.324-7.481c-.349.136-.976.347-1.771.617C458.836,252.915,461.13,258.994,466.617,259.059Z" transform="translate(-436.046 -247.042)" fill="#72cace"/>
          <g id="Group_2460" data-name="Group 2460" transform="translate(5.384 2.825)">
            <path id="Path_11404" data-name="Path 11404" d="M442.73,289.888a1.9,1.9,0,1,0,1.9,1.9A1.9,1.9,0,0,0,442.73,289.888Z" transform="translate(-432.613 -272.99)" fill="#72cace"/>
            <path id="Path_11405" data-name="Path 11405" d="M453.576,316.792a1.9,1.9,0,1,0,1.9,1.9A1.9,1.9,0,0,0,453.576,316.792Z" transform="translate(-438.467 -287.51)" fill="#72cace"/>
            <path id="Path_11406" data-name="Path 11406" d="M437.487,336.4a1.9,1.9,0,0,0-2.7-1.723c-.031,1.115-.061,2.261-.088,3.4a1.9,1.9,0,0,0,2.788-1.68Z" transform="translate(-429.306 -297.068)" fill="#72cace"/>
            <path id="Path_11407" data-name="Path 11407" d="M463.01,347.924a1.9,1.9,0,1,0,1.9,1.9A1.9,1.9,0,0,0,463.01,347.924Z" transform="translate(-443.558 -304.312)" fill="#72cace"/>
            <path id="Path_11408" data-name="Path 11408" d="M437.274,366.948a1.9,1.9,0,0,0-1.9,1.9c0,.052,0,.1.009.155a11.578,11.578,0,0,0,3.622.632,1.9,1.9,0,0,0-1.73-2.688Z" transform="translate(-429.669 -314.579)" fill="#72cace"/>
            <path id="Path_11409" data-name="Path 11409" d="M485.019,328.161a1.9,1.9,0,1,0,1.9,1.9A1.9,1.9,0,0,0,485.019,328.161Z" transform="translate(-455.437 -293.646)" fill="#72cace"/>
            <path id="Path_11410" data-name="Path 11410" d="M497.977,351.169a1.9,1.9,0,1,0,1.9,1.9A1.9,1.9,0,0,0,497.977,351.169Z" transform="translate(-462.43 -306.063)" fill="#72cace"/>
            <path id="Path_11411" data-name="Path 11411" d="M521.295,366.523a1.9,1.9,0,0,0,.1.6c.31-.162.489-.336.5-.521s.008-.7-.016-1.448A1.9,1.9,0,0,0,521.295,366.523Z" transform="translate(-476.041 -313.61)" fill="#72cace"/>
            <path id="Path_11412" data-name="Path 11412" d="M479.036,371.077a1.9,1.9,0,0,0-1.7,1.061c1.114,0,2.25-.014,3.387-.036A1.9,1.9,0,0,0,479.036,371.077Z" transform="translate(-452.315 -316.807)" fill="#72cace"/>
            <path id="Path_11413" data-name="Path 11413" d="M517.4,335.9a1.9,1.9,0,1,0,.144,2.63C517.5,337.652,517.447,336.77,517.4,335.9Z" transform="translate(-472.214 -297.547)" fill="#72cace"/>
            <path id="Path_11414" data-name="Path 11414" d="M424.883,273.15a1.9,1.9,0,1,0,1.9,1.9A1.9,1.9,0,0,0,424.883,273.15Z" transform="translate(-422.982 -263.957)" fill="#72cace"/>
            <path id="Path_11415" data-name="Path 11415" d="M450.383,264.135a1.9,1.9,0,1,0-1.9,1.9A1.9,1.9,0,0,0,450.383,264.135Z" transform="translate(-435.718 -258.065)" fill="#72cace"/>
            <path id="Path_11416" data-name="Path 11416" d="M475.876,278.277a1.9,1.9,0,1,0-1.9-1.9A1.9,1.9,0,0,0,475.876,278.277Z" transform="translate(-450.503 -264.672)" fill="#72cace"/>
            <path id="Path_11417" data-name="Path 11417" d="M510.37,254.461c0-.031,0-.062,0-.093-.888-.282-2.059-.712-3.3-1.19a1.9,1.9,0,1,0,3.3,1.283Z" transform="translate(-468.093 -253.178)" fill="#72cace"/>
            <path id="Path_11418" data-name="Path 11418" d="M471.221,300.359a1.9,1.9,0,1,0,1.9,1.9A1.9,1.9,0,0,0,471.221,300.359Z" transform="translate(-447.99 -278.641)" fill="#72cace"/>
            <path id="Path_11419" data-name="Path 11419" d="M504.34,277.28a1.9,1.9,0,1,0,1.9,1.9A1.9,1.9,0,0,0,504.34,277.28Z" transform="translate(-465.865 -266.186)" fill="#72cace"/>
            <path id="Path_11420" data-name="Path 11420" d="M515.424,307.276a1.9,1.9,0,1,0-1.9,1.9A1.9,1.9,0,0,0,515.424,307.276Z" transform="translate(-470.821 -281.348)" fill="#72cace"/>
            <path id="Path_11421" data-name="Path 11421" d="M535.577,279.116a1.9,1.9,0,1,0,2.235,3.032C537.166,281.278,536.4,280.235,535.577,279.116Z" transform="translate(-483.217 -267.177)" fill="#72cace"/>
          </g>
          <path id="Path_11422" data-name="Path 11422" d="M432.174,285.78a27.267,27.267,0,0,1-4.966.3,10.052,10.052,0,0,1-4.054-1.622,15.341,15.341,0,0,0-9.636-1.866c-1.3,1.458-2.232,2.479-2.232,2.479,1.561,6.289,11.184,11.288,11.184,11.288s-.91,25.6-.391,26.77,9.625,1.171,19.248,1.171,21.068-.78,21.2-2.341c.1-1.16-.669-14.736-1.068-21.632-2.185-1.2-4.364-2.4-6.482-3.709C447.982,292.367,440.889,285.375,432.174,285.78Z" transform="translate(-411.286 -266.148)" fill="#84e2d5" opacity="0.2"/>
        </g>
      </g>
      <g id="Group_2464" data-name="Group 2464" transform="translate(3.056 46.497)">
        <path id="Path_11423" data-name="Path 11423" d="M463.769,316.31c-1.2.092-24.835-7.3-45.452-13.838L387.208,293s.51,57.847,1.7,59.718,69.926,23.649,74.52,22.8,41.513-23.479,43.215-25.181c1.235-1.235,1.3-30.9,1.25-47.061Z" transform="translate(-361.51 -293.002)" fill="#ffd141"/>
        <path id="Path_11424" data-name="Path 11424" d="M553.136,316.31l-.34,59.208c4.594-.851,41.513-23.479,43.215-25.181S597.2,293,597.2,293Z" transform="translate(-450.877 -293.002)" fill="#f0a90f" opacity="0.5"/>
        <path id="Path_11425" data-name="Path 11425" d="M507.835,293,463.769,316.31,387.208,293s.169,19.2.54,35.835c14.918,6.732,55.475,24.695,59.809,23.033,5.323-2.042,16.212-26.882,16.212-26.882s21.778,22.458,24.33,22.629c1.668.111,12.279-3.823,19.434-6.563C508.126,324.8,507.835,293,507.835,293Z" transform="translate(-361.51 -293.002)" fill="#f0a90f" style="mix-blend-mode: multiply;isolation: isolate"/>
        <path id="Path_11426" data-name="Path 11426" d="M553.535,316.31s22.628,29.093,24.5,29.263,28.592-13.356,46.107-34.367c.851-1.021-26.541-18.2-26.541-18.2S566.125,307.293,553.535,316.31Z" transform="translate(-451.276 -293.002)" fill="#ffd141"/>
        <path id="Path_11427" data-name="Path 11427" d="M357.078,293s-26.2,19.905-25.691,20.757,80.644,32.5,83.2,31.817,19.055-29.265,19.055-29.265S380.387,296.405,357.078,293Z" transform="translate(-331.38 -293.002)" fill="#ffd141"/>
        <g id="Group_2463" data-name="Group 2463" transform="translate(41.646 8.507)">
          <path id="Path_11428" data-name="Path 11428" d="M451.036,315.281c-3.849-1.271-7.836-2.556-11.827-3.8a81.352,81.352,0,0,0-7.615,10.439,137.576,137.576,0,0,0-9.74,18.606c4.045,1.57,8.089,3.129,11.981,4.614,3.231-6.471,6.272-13.058,9.312-19.572C443.922,323.88,447.54,318.079,451.036,315.281Z" transform="translate(-421.854 -311.484)" fill="#f0a90f" opacity="0.5"/>
        </g>
      </g>
      <g id="Group_2466" data-name="Group 2466" transform="translate(19.958 43.219)">
        <g id="Group_2465" data-name="Group 2465" transform="translate(0 36.34)">
          <path id="Path_11429" data-name="Path 11429" d="M436.075,384.124c.312-1.108,2.1-.835,1.784.288-.9,3.2-1.623,6.429-3.462,9.252-.636.976-2.027-.181-1.4-1.149C434.652,389.981,435.268,386.993,436.075,384.124Z" transform="translate(-403.04 -374.86)" fill="#27ad97"/>
          <path id="Path_11430" data-name="Path 11430" d="M428.8,384.292c.4-1.093,2.044-.337,1.642.751-.942,2.556-1.774,5.177-3.6,7.266-.765.874-2.163-.271-1.395-1.151C427.17,389.2,427.918,386.694,428.8,384.292Z" transform="translate(-398.931 -375.044)" fill="#27ad97"/>
          <path id="Path_11431" data-name="Path 11431" d="M420.373,382.616a.9.9,0,0,1,1.783.288,15.272,15.272,0,0,1-3.309,7.555c-.776.864-2.177-.279-1.4-1.151A13.424,13.424,0,0,0,420.373,382.616Z" transform="translate(-394.61 -374.033)" fill="#27ad97"/>
          <path id="Path_11432" data-name="Path 11432" d="M414.62,379.458c-.7,2.458-2.037,4.7-2.52,7.221-.22,1.142-2,.858-1.783-.288.485-2.537,1.815-4.755,2.519-7.222C413.151,378.063,414.938,378.338,414.62,379.458Z" transform="translate(-390.874 -372.188)" fill="#27ad97"/>
          <path id="Path_11433" data-name="Path 11433" d="M406.918,379.819a67.021,67.021,0,0,0-2.883,6.422c-.377,1.1-2.018.342-1.641-.75a66.024,66.024,0,0,1,2.883-6.422A.9.9,0,0,1,406.918,379.819Z" transform="translate(-386.578 -372.238)" fill="#27ad97"/>
          <path id="Path_11434" data-name="Path 11434" d="M400.3,374.7c-.908,2.45-2.261,4.72-2.746,7.312a.9.9,0,0,1-1.783-.288c.516-2.76,1.92-5.168,2.886-7.775C399.059,372.86,400.7,373.615,400.3,374.7Z" transform="translate(-383.022 -369.464)" fill="#27ad97"/>
          <path id="Path_11435" data-name="Path 11435" d="M392.154,375.2c-1.2,1.856-2.487,3.743-2.808,5.976a.9.9,0,0,1-1.783-.287c.37-2.562,1.82-4.712,3.194-6.838C391.389,373.078,392.78,374.235,392.154,375.2Z" transform="translate(-378.598 -369.607)" fill="#27ad97"/>
          <path id="Path_11436" data-name="Path 11436" d="M384.194,372.462a30.5,30.5,0,0,0-2.871,6.551c-.314,1.107-2.1.834-1.784-.288a32.376,32.376,0,0,1,3.012-7.014C383.116,370.7,384.763,371.441,384.194,372.462Z" transform="translate(-374.253 -368.282)" fill="#27ad97"/>
          <path id="Path_11437" data-name="Path 11437" d="M378.215,367.513c-1.194,2.029-2.518,4.071-2.97,6.413-.22,1.142-2,.857-1.783-.288a22.019,22.019,0,0,1,3.111-6.875C377.159,365.769,378.81,366.508,378.215,367.513Z" transform="translate(-370.984 -365.617)" fill="#27ad97"/>
          <path id="Path_11438" data-name="Path 11438" d="M370.97,365.285c.6-.976,2.254-.238,1.641.752a18.337,18.337,0,0,0-2.711,6.332.9.9,0,0,1-1.784-.288A19.58,19.58,0,0,1,370.97,365.285Z" transform="translate(-368.1 -364.826)" fill="#27ad97"/>
        </g>
        <path id="Path_11439" data-name="Path 11439" d="M424.523,301.7s-4.764-7.851-10-8.943-12.463-.535-13.549-2.186-9.826-7.907-15.838-2.581-14.91,34.53-13.583,36.218,8.756,5.965,16.613,7.6,17.864,6.7,18.555.9,12.205-31.984,12.205-31.984S422.959,301.462,424.523,301.7Z" transform="translate(-369.891 -285.879)" fill="#80e1d3"/>
        <path id="Path_11440" data-name="Path 11440" d="M412.277,298.87c-3.538-.94-2.038-4.143-1.73-6.8a8.808,8.808,0,0,0-1.794-5.909c5.456-1.364,11.48,3.065,12.369,4.42.594.9,3.051,1.144,5.991,1.359a22.115,22.115,0,0,0-4.295,2.6C420.015,296.673,416.2,299.747,412.277,298.87Z" transform="translate(-390.04 -285.891)" fill="#27ad97" opacity="0.4"/>
        <path id="Path_11441" data-name="Path 11441" d="M445.882,328.169c1.153-4.858,2.225-9.977,4.318-14.559,1.185-2.761,3.147-5.768,6.565-4.847a9.965,9.965,0,0,1,3.162,1.592,32.144,32.144,0,0,1,2.647,3.6c-1.564-.235-5.6-.973-5.6-.973s-11.517,26.191-12.205,31.984a2.814,2.814,0,0,1-2.848,2.658c.263-1.82.509-3.652.838-5.444C443.634,337.524,444.889,332.805,445.882,328.169Z" transform="translate(-407.941 -298.138)" fill="#27ad97" opacity="0.4"/>
      </g>
    </g>
    <g id="Group_2468" data-name="Group 2468" transform="translate(246.372 64)">
      <path id="Path_11442" data-name="Path 11442" d="M485.871,134.848c-16.123-10.6-33.446-29.222-21.849-38.531s21.849,7.5,21.849,7.5,10.251-16.809,21.849-7.5S501.994,124.245,485.871,134.848Z" transform="translate(-460.242 -93.507)" fill="#e6605d"/>
      <path id="Path_11443" data-name="Path 11443" d="M537.768,96.317c-11.6-9.31-21.849,7.5-21.849,7.5v31.032C532.042,124.245,549.365,105.627,537.768,96.317Z" transform="translate(-490.291 -93.507)" fill="#e6605d" opacity="0.3" style="mix-blend-mode: multiply;isolation: isolate"/>
    </g>
  </g>
</svg>
