<svg id="undraw_wallet_aym5" xmlns="http://www.w3.org/2000/svg" xmlns:xlink="http://www.w3.org/1999/xlink" width="134.82" height="87.166" viewBox="0 0 134.82 87.166">
  <defs>
    <linearGradient id="linear-gradient" x1="0.5" y1="1" x2="0.5" gradientUnits="objectBoundingBox">
      <stop offset="0" stop-color="gray" stop-opacity="0.251"/>
      <stop offset="0.54" stop-color="gray" stop-opacity="0.122"/>
      <stop offset="1" stop-color="gray" stop-opacity="0.102"/>
    </linearGradient>
  </defs>
  <rect id="Rectangle_3645" data-name="Rectangle 3645" width="134.82" height="0.985" transform="translate(0 86.181)" fill="#3f3d56"/>
  <path id="Path_17450" data-name="Path 17450" d="M787.081,649.977c0,.758-4.417,2.967-9.665,2.967s-9.336-2.209-9.336-2.967,4.253-.514,9.505-.514S787.081,649.218,787.081,649.977Z" transform="translate(-680.268 -581.193)" fill="#504f60"/>
  <path id="Path_17451" data-name="Path 17451" d="M787.081,653.72c0,.758-4.417,2.967-9.665,2.967s-9.336-2.209-9.336-2.967" transform="translate(-680.268 -584.935)" fill="#365394" opacity="0.2"/>
  <path id="Path_17452" data-name="Path 17452" d="M502.126,531.8a5.866,5.866,0,0,0,2.551-.086c.128-.04.27-.128.257-.257a.31.31,0,0,0-.058-.128,7.942,7.942,0,0,1-.771-1.468.129.129,0,0,0-.047-.067.12.12,0,0,0-.082,0c-.376.1-.7.342-1.075.446a1.528,1.528,0,0,1-.586.044c-.17-.019-.4-.159-.555-.141C501.847,530.7,502.061,531.225,502.126,531.8Z" transform="translate(-448.157 -476.919)" fill="#6c63ff"/>
  <path id="Path_17453" data-name="Path 17453" d="M623.655,514.623a4.457,4.457,0,0,0,1.475-1.385.241.241,0,0,0,.04-.119.247.247,0,0,0-.048-.116,4.771,4.771,0,0,0-1.2-1.294,3.5,3.5,0,0,0-.668.617c-.141.149-.532.385-.536.613,0,.128.149.277.218.385.094.139.182.28.267.424A5.023,5.023,0,0,1,623.655,514.623Z" transform="translate(-553.58 -461.167)" fill="#6c63ff"/>
  <path id="Path_17454" data-name="Path 17454" d="M471.547,539.738a.571.571,0,0,1-.1.373.5.5,0,0,1-.216.128c-1.191.426-2.569-.105-3.757.315-.244.086-.475.211-.721.293a3.923,3.923,0,0,1-.9.159c-.42.04-.843.065-1.264.077a3.039,3.039,0,0,1-.953-.083,1.145,1.145,0,0,1-.731-.579.556.556,0,0,1-.036-.412.443.443,0,0,1,.078-.128,1.126,1.126,0,0,1,.28-.227l.438-.283a2.939,2.939,0,0,1,.664-.352c.173-.057.357-.081.533-.128a3.619,3.619,0,0,0,1.522-1.137l.6-.636a.6.6,0,0,1,.207-.166.573.573,0,0,1,.257-.024,3.435,3.435,0,0,1,1.625.545,2.108,2.108,0,0,0,.4.236,1.431,1.431,0,0,0,1.12-.139c.153-.082.119-.129.184-.275s.221-.24.357-.107a.377.377,0,0,1,.085.162,4.557,4.557,0,0,1,.08,1.324.583.583,0,0,0,.026.205,1.159,1.159,0,0,0,.117.19.439.439,0,0,1,.024.049A1.305,1.305,0,0,1,471.547,539.738Z" transform="translate(-414.24 -483.139)" fill="#514e7f"/>
  <path id="Path_17455" data-name="Path 17455" d="M471.547,554.614a.571.571,0,0,1-.1.372.5.5,0,0,1-.216.128c-1.191.427-2.569-.105-3.757.315-.244.086-.475.211-.721.293a3.924,3.924,0,0,1-.9.159c-.42.04-.843.065-1.264.077a3.041,3.041,0,0,1-.953-.083,1.145,1.145,0,0,1-.731-.579.556.556,0,0,1-.036-.412.444.444,0,0,1,.078-.128c.069.145.119.338.163.407a.834.834,0,0,0,.557.4,1.385,1.385,0,0,0,.514-.066,25.86,25.86,0,0,0,3.263-.676,7.539,7.539,0,0,1,1.069-.411,8.4,8.4,0,0,1,1.156-.094c.609-.049,1.2-.232,1.8-.329A1.306,1.306,0,0,1,471.547,554.614Z" transform="translate(-414.24 -498.016)" fill="#464353"/>
  <path id="Path_17456" data-name="Path 17456" d="M605.467,519.825a2.166,2.166,0,0,1-.658,1.172,7.649,7.649,0,0,0-.921,1.007,8.1,8.1,0,0,1-.848,1.454,2.323,2.323,0,0,1-.514.366,3.583,3.583,0,0,1-.662.3,4.938,4.938,0,0,1-1.869.1,1.684,1.684,0,0,1-.593-.114,1.783,1.783,0,0,1-.247-.152,1.178,1.178,0,0,1-.385-.385.385.385,0,0,1-.037-.28.658.658,0,0,1,.179-.272,4.229,4.229,0,0,1,.452-.407,2.705,2.705,0,0,0,.588-.514,1.658,1.658,0,0,0,.227-.514,4.565,4.565,0,0,0,.166-.983,3.117,3.117,0,0,1,.068-.658c.1-.339.347-.642.319-.993a.248.248,0,0,1,.013-.15.21.21,0,0,1,.118-.073,2.1,2.1,0,0,1,.614-.143.716.716,0,0,1,.57.224c.087.105.145.257.274.3a.434.434,0,0,0,.2.008,1.636,1.636,0,0,0,.9-.276,1.121,1.121,0,0,0,.373-.818c0-.117-.053-.239.128-.257.136-.018.244.128.313.218a3.041,3.041,0,0,1,.6,1.094.325.325,0,0,1,.114-.022.5.5,0,0,1,.41.209A.816.816,0,0,1,605.467,519.825Z" transform="translate(-532.664 -466.447)" fill="#514e7f"/>
  <path id="Path_17457" data-name="Path 17457" d="M605.8,528.463a2.165,2.165,0,0,1-.658,1.172,7.665,7.665,0,0,0-.921,1.007,8.107,8.107,0,0,1-.848,1.454,2.321,2.321,0,0,1-.514.366,3.577,3.577,0,0,1-.662.3,4.937,4.937,0,0,1-1.869.1,1.682,1.682,0,0,1-.593-.114,1.789,1.789,0,0,1-.247-.152,1.177,1.177,0,0,1-.385-.385.937.937,0,0,1,.385-.093c.277.015.48.277.746.358.379.114.757-.153,1.141-.244.25-.059.514-.044.762-.128a1.884,1.884,0,0,0,.564-.342,2.876,2.876,0,0,0,.6-.581,3.741,3.741,0,0,0,.353-.705,10.079,10.079,0,0,1,.714-1.367.964.964,0,0,1,.145-.19,2.009,2.009,0,0,1,.2-.143,1.493,1.493,0,0,0,.453-.827,1.448,1.448,0,0,1,.1-.276.5.5,0,0,1,.41.209A.816.816,0,0,1,605.8,528.463Z" transform="translate(-532.994 -475.086)" fill="#464353"/>
  <path id="Path_17458" data-name="Path 17458" d="M438.14,200.464a2.724,2.724,0,0,1,.771.9,18.554,18.554,0,0,1,1.156,3.48c.338-.34,1.67-.4,2.012-.736.143-.143.912-.854,1.028-1.02s.974-.514,1.067-.688c.351-.628-2.487-3.008-2.123-3.629a.162.162,0,0,0,.03-.1.159.159,0,0,0-.048-.076,4.258,4.258,0,0,0-.821-.561,1.3,1.3,0,0,1-.626-.745,2.7,2.7,0,0,0-.726.491q-.781.669-1.535,1.365c-.2.182-.577.425-.668.686C437.55,200.112,437.953,200.311,438.14,200.464Z" transform="translate(-392.273 -187.135)" fill="#a1616a"/>
  <path id="Path_17459" data-name="Path 17459" d="M453.044,214.13a8.361,8.361,0,0,0-1.215.994,2.418,2.418,0,0,0-.771,1.238c-.036.191-.031.385-.06.579-.128.841-.855,1.458-1.177,2.245a3.891,3.891,0,0,0-.2.751,8.88,8.88,0,0,0-.148,1.475c-.008.479.462.809.635,1.256a7.671,7.671,0,0,1,.306,1.365,16.178,16.178,0,0,0,.771,2.531c.633,1.749,2.686,6.586,3.319,8.337,1.941-.487,7.107-1.606,8.826-2.632.573-.342-3.976-4.2-3.363-4.462a.229.229,0,0,0,.172-.322c-.613-2.68-2.529-4.881-3.4-7.49a22.726,22.726,0,0,0-1.255-2.54c-.373-.78-.572-1.642-1.017-2.383a1.5,1.5,0,0,0-.325-.4,1.914,1.914,0,0,0-.358-.217C453.526,214.328,453.289,214.255,453.044,214.13Z" transform="translate(-402.583 -201.811)" fill="#514e7f"/>
  <circle id="Ellipse_580" data-name="Ellipse 580" cx="3.038" cy="3.038" r="3.038" transform="translate(42.932 6.949)" fill="#a1616a"/>
  <path id="Path_17460" data-name="Path 17460" d="M466.4,205.259a1.019,1.019,0,0,1,1.142-.164.552.552,0,0,1,.339.548l1.507.023a3.024,3.024,0,0,1,.714.066,1.038,1.038,0,0,1,.6.374c.018.024.039.054.069.058a.111.111,0,0,0,.069-.023,1.308,1.308,0,0,1,.75-.128,4.052,4.052,0,0,1,2.205.969.712.712,0,0,1,.257.32c.053.171-.01.385.128.507a18.088,18.088,0,0,0,.809,4.11,1.844,1.844,0,0,0,.456.655,2.642,2.642,0,0,1,.487.727c.275.714-.1,1.554.163,2.271a3.893,3.893,0,0,0,.514.816,2.11,2.11,0,0,1,.439,1.053c.012.172-.01.346,0,.514a3.11,3.11,0,0,0,.128.682q.164.622.344,1.242a2.819,2.819,0,0,0,1.048,1.744,8.556,8.556,0,0,1-4.346-.017,2.253,2.253,0,0,1-.542-.271,3.123,3.123,0,0,1-.952-1.534,7.244,7.244,0,0,1-.531-1.979,2.273,2.273,0,0,0-.091-.642,1.829,1.829,0,0,0-.853-.8,4.1,4.1,0,0,1-1.028-.8,1.6,1.6,0,0,1-.416-1.2c.026-.212.109-.416.117-.629a.493.493,0,0,0-.292-.514c-1.052-.319-1.554-1.565-1.788-2.638a8.466,8.466,0,0,1-.135-1.683l-.014-1.1a1.446,1.446,0,0,1-.473-1.039,1.237,1.237,0,0,0-.006-.344.949.949,0,0,0-.242-.366,3.269,3.269,0,0,1-.577-.808Z" transform="translate(-417.339 -193.845)" fill="#464353"/>
  <path id="Path_17461" data-name="Path 17461" d="M439.775,228a8.419,8.419,0,0,1-.033,1.02c-.03.128-.081.257-.118.376a2.209,2.209,0,0,0,.14,1.43,7.962,7.962,0,0,0,.731,1.265,2.055,2.055,0,0,1,.234.438,2.268,2.268,0,0,1,.09.5,15.51,15.51,0,0,0,.357,2.019A50.86,50.86,0,0,0,443.333,241a.484.484,0,0,0,.293.2.533.533,0,0,0,.249-.051l.771-.3a.5.5,0,0,0,.179-.1.46.46,0,0,0,.11-.3,52.5,52.5,0,0,0-1.791-6.173,47.225,47.225,0,0,1-1.877-5.363,3.9,3.9,0,0,0-.551-1.715c-.155-.17-.1-.1-.289-.009a2.106,2.106,0,0,0-.272.143A.892.892,0,0,0,439.775,228Z" transform="translate(-393.95 -213.116)" fill="#464353"/>
  <path id="Path_17462" data-name="Path 17462" d="M556.62,320.79" transform="translate(-495.97 -294.771)" fill="#464353"/>
  <path id="Path_17463" data-name="Path 17463" d="M458.184,224.868c.207,1.093.42,2.184.632,3.277l3.016-.79a2.12,2.12,0,0,0-.257-.9c-.275-.69-.281-1.458-.5-2.167-.168-.539-.461-1.035-.619-1.579-.091-.316-.137-.642-.227-.962a6.993,6.993,0,0,0-.354-.918,5.751,5.751,0,0,0-.658-1.219,1.918,1.918,0,0,0-1.016.659,1.424,1.424,0,0,0-.188.642c-.053.677.193,1.358.112,2.031a5.973,5.973,0,0,0,.063,1.925Z" transform="translate(-410.02 -206.588)" fill="#d83564"/>
  <path id="Path_17464" data-name="Path 17464" d="M476.839,329.5a3.6,3.6,0,0,1-.276,1.954,15.151,15.151,0,0,0-.614,2.942,2.546,2.546,0,0,1-.151.744c-.1.214-.257.4-.367.6a3.012,3.012,0,0,0-.23,1.806c.044.4.109.808.19,1.206a3.051,3.051,0,0,1,.078,1.471c.239-.053.4.257.385.5a1.333,1.333,0,0,0,.023.723c.3.108.3.514.289.829a6.97,6.97,0,0,0,.206,1.618q.67,3.224,1.423,6.43a4.965,4.965,0,0,0,3.389.221.68.68,0,0,0,.429-.432.753.753,0,0,0-.041-.331l-.491-1.785a3.28,3.28,0,0,1-.176-1.32c.048-.33.191-.686.03-.978-.055-.1-.143-.179-.207-.274-.257-.376-.122-.88-.1-1.336a1.058,1.058,0,0,0-.021-.306,1.521,1.521,0,0,0-.146-.335,5.128,5.128,0,0,1-.565-2.551.631.631,0,0,0-.045-.333,1.063,1.063,0,0,1-.083-.136.373.373,0,0,1,.027-.245,2.25,2.25,0,0,1-.4-.385.554.554,0,0,0,.1-.866.289.289,0,0,0,.137-.5c-.063-.044-.146-.063-.191-.128-.069-.1-.013-.227.044-.329l.3-.541c.223-.4.274-.9.514-1.285a9.628,9.628,0,0,0,.791-1.806l.864-2.385.582.5a1.84,1.84,0,0,1,.478.545,2.351,2.351,0,0,1,.155.653c.213,1.295,1.028,2.417,1.329,3.693a2.431,2.431,0,0,0,.275.825,1.8,1.8,0,0,1,.157.236,1.254,1.254,0,0,1,.065.392,1.828,1.828,0,0,0,.771,1.31c.286.2.642.331.8.642a1.2,1.2,0,0,0,.128.274c.139.167.438.186.5.4.033.117-.028.257.037.36a.34.34,0,0,0,.143.107l.836.418c.935.468,1.413,1.541,2.1,2.324a5.011,5.011,0,0,1,.629.832c.3.533.435,1.2.939,1.541a1.422,1.422,0,0,1,.365.271c.158.208.1.5.114.762s.215.574.464.495a1.829,1.829,0,0,0,0,.97,4.881,4.881,0,0,0,2.962-1.2,1.169,1.169,0,0,0,.482-.809.289.289,0,0,0-.036-.161.458.458,0,0,0-.189-.143c-.782-.424-1.017-1.407-1.413-2.2a19.085,19.085,0,0,0-1.285-1.964c-.93-1.407-1.565-3.109-2.971-4.037a2.022,2.022,0,0,1-.825-.723c-.086-.189-.1-.4-.164-.6a.52.52,0,0,0-.439-.385,2.692,2.692,0,0,0,.1-.933,1.178,1.178,0,0,0-.046-.4,1.961,1.961,0,0,0-.207-.4,3.82,3.82,0,0,1-.529-2.055,3.37,3.37,0,0,0-.036-1.109c-.057-.179-.155-.342-.224-.514a3.214,3.214,0,0,1-.161-.966l-.077-1.234a6.077,6.077,0,0,0-.159-1.22c-.257-.958-.514-4.972-1.394-5.424s-2.392,2.637-3.382,2.7a4.4,4.4,0,0,0-1.284.248,6.26,6.26,0,0,0-1.75,1.156l-1.821,1.53A6.715,6.715,0,0,1,476.839,329.5Z" transform="translate(-424.977 -296.678)" fill="#464353"/>
  <path id="Path_17465" data-name="Path 17465" d="M414.908,163.859a2.29,2.29,0,0,1,1.767-.862,4.117,4.117,0,0,1,1.954.491,2.415,2.415,0,0,0,.57.234c.321.066.678-.022.969.128a1.16,1.16,0,0,1,.426,1.156,2.123,2.123,0,0,0,.116,1.285,2.957,2.957,0,0,1,.222.335,1.108,1.108,0,0,1-.018.714,4.63,4.63,0,0,1-.369-.471.434.434,0,0,0-.532-.137c-.166.112-.163.315-.172.5s-.055.4-.227.46a.369.369,0,0,1-.385-.15c-.294-.36-.176-.934-.468-1.3-.166-.206-.442-.306-.595-.522-.121-.17-.152-.385-.257-.568s-.351-.316-.514-.19a.7.7,0,0,0-.137.184.79.79,0,0,1-.938.283,1.569,1.569,0,0,0-.406-.176.5.5,0,0,0-.464.257,1,1,0,0,0-.128.537,1.237,1.237,0,0,1-.1.736.761.761,0,0,1-.206.2.64.64,0,0,1-.712.073.534.534,0,0,1-.159-.5,4.036,4.036,0,0,1,.152-.527c.113-.4-.035-.846.089-1.222A3.9,3.9,0,0,1,414.908,163.859Z" transform="translate(-371.788 -157.245)" fill="#464353"/>
  <path id="Path_17466" data-name="Path 17466" d="M432.755,203.129a.468.468,0,0,0,.028.279.443.443,0,0,0,.152.145,3.116,3.116,0,0,0,1.431.464.436.436,0,0,1,.2.051.348.348,0,0,1,.083.4,1.036,1.036,0,0,0-.091.424c.037.268.356.385.624.425a1.452,1.452,0,0,0,1.087-.212,1.679,1.679,0,0,0,.448-.672c.737-1.694,1-3.567,1.742-5.256a1.114,1.114,0,0,0,.112-.352.347.347,0,0,0-.139-.324c-.139-.086-.354-.037-.448-.172-.046-.068-.041-.161-.082-.232-.086-.153-.312-.128-.466-.217-.121-.064-.2-.2-.339-.222a.426.426,0,0,0-.351.152,4.516,4.516,0,0,0-.912,1.535,17.989,17.989,0,0,1-1.305,2.42,1.411,1.411,0,0,0-.408-.8c-.23-.046-.524.357-.649.507A3.232,3.232,0,0,0,432.755,203.129Z" transform="translate(-388.007 -187.452)" fill="#d83564"/>
  <path id="Path_17467" data-name="Path 17467" d="M459.432,200.32a.615.615,0,0,0-.477.239,1.358,1.358,0,0,0-.2.642,5.581,5.581,0,0,1-.757,2.032" transform="translate(-410.018 -189.775)" opacity="0.1"/>
  <path id="Path_17468" data-name="Path 17468" d="M464.733,204.31a.734.734,0,0,0-.623.374,2.1,2.1,0,0,0-.157.635,3.481,3.481,0,0,1-.623,1.335" transform="translate(-414.664 -193.253)" opacity="0.1"/>
  <path id="Path_17469" data-name="Path 17469" d="M224.322,358.943v-1.6a4.429,4.429,0,0,0-4.429-4.428h-63a4.429,4.429,0,0,0-4.429,4.428v2.942Z" transform="translate(-143.725 -322.774)" fill="#33323d"/>
  <path id="Path_17470" data-name="Path 17470" d="M323.361,271.628s-.18,11.157,1.8,14.828,2.826,19.642,2.826,19.642,20.737,2.145,35.188-2.569,45.2-6.642,45.2-6.642l-5.182-34.925s-25.6-1.642-40.162,5.3S323.361,271.628,323.361,271.628Z" transform="translate(-292.67 -243.352)" fill="#8dd070"/>
  <path id="Path_17471" data-name="Path 17471" d="M323.361,271.628s-.18,11.157,1.8,14.828,2.826,19.642,2.826,19.642,20.737,2.145,35.188-2.569,45.2-6.642,45.2-6.642l-5.182-34.925s-25.6-1.642-40.162,5.3S323.361,271.628,323.361,271.628Z" transform="translate(-292.67 -243.352)" opacity="0.1"/>
  <path id="Path_17472" data-name="Path 17472" d="M358.254,292.436s-.649,9.206.979,12.148,1.7,16.073,1.7,16.073,18.663.866,31.938-3.653,41.173-7.45,41.173-7.45l-3.17-28.561s-23.083-.238-36.555,6.123S358.254,292.436,358.254,292.436Z" transform="translate(-322.974 -260.084)" fill="#8dd070"/>
  <ellipse id="Ellipse_581" data-name="Ellipse 581" cx="4.845" cy="10.392" rx="4.845" ry="10.392" transform="translate(63.766 31.665) rotate(-7.1)" opacity="0.1"/>
  <path id="Path_17473" data-name="Path 17473" d="M340.213,130.66s-24.869,6.294-36.6,17.373S267.2,164.358,267.2,164.358s3.252,10.673,6.261,13.561,8.714,17.829,8.714,17.829,20.394-4.324,32.7-13.248,40.985-20.2,40.985-20.2Z" transform="translate(-243.727 -129.063)" opacity="0.2"/>
  <path id="Path_17474" data-name="Path 17474" d="M264.29,151.927s3.251,10.674,6.257,13.562,8.714,17.828,8.714,17.828,20.4-4.322,32.7-13.247,40.984-20.193,40.984-20.193L337.3,118.23s-24.868,6.294-36.6,17.373S264.29,151.927,264.29,151.927Z" transform="translate(-241.191 -118.23)" fill="#8dd070"/>
  <path id="Path_17475" data-name="Path 17475" d="M264.29,151.927s3.251,10.674,6.257,13.562,8.714,17.828,8.714,17.828,20.4-4.322,32.7-13.247,40.984-20.193,40.984-20.193L337.3,118.23s-24.868,6.294-36.6,17.373S264.29,151.927,264.29,151.927Z" transform="translate(-241.191 -118.23)" opacity="0.1"/>
  <path id="Path_17476" data-name="Path 17476" d="M308,174.679s2.208,8.962,4.66,11.261,6.551,14.772,6.551,14.772,18.027-4.9,29.275-13.279,36.9-19.713,36.9-19.713l-11.78-26.22s-22.041,6.855-32.912,17.044S308,174.679,308,174.679Z" transform="translate(-279.286 -138.511)" fill="#8dd070"/>
  <ellipse id="Ellipse_582" data-name="Ellipse 582" cx="4.845" cy="10.392" rx="4.845" ry="10.392" transform="translate(55.619 26.773) rotate(-24.97)" opacity="0.1"/>
  <path id="Path_17477" data-name="Path 17477" d="M226.049,381.688V426a3.832,3.832,0,0,1-3.833,3.832h-65.9A3.832,3.832,0,0,1,152.49,426V377.22a6.768,6.768,0,0,0,3.83.642h65.9A3.833,3.833,0,0,1,226.049,381.688Z" transform="translate(-143.751 -343.952)" opacity="0.1"/>
  <path id="Path_17478" data-name="Path 17478" d="M226.049,386.069v44.316a3.833,3.833,0,0,1-3.833,3.832h-65.9a3.832,3.832,0,0,1-3.83-3.832V381.6a6.788,6.788,0,0,0,3.83.642h65.9A3.833,3.833,0,0,1,226.049,386.069Z" transform="translate(-143.751 -347.77)" fill="#504f60"/>
  <path id="Path_17479" data-name="Path 17479" d="M582.351,543.936v14.172H568.607a7.086,7.086,0,1,1,0-14.173Z" transform="translate(-500.241 -489.253)" opacity="0.1"/>
  <path id="Path_17480" data-name="Path 17480" d="M583.811,541v14.175H570.067a7.086,7.086,0,1,1,0-14.173Z" transform="translate(-501.513 -486.694)" fill="#33323d"/>
  <circle id="Ellipse_583" data-name="Ellipse 583" cx="2.763" cy="2.763" r="2.763" transform="translate(66.449 59.007)" opacity="0.1"/>
  <path id="Path_17545" data-name="Path 17545" d="M2.763,0A2.763,2.763,0,1,1,0,2.763,2.763,2.763,0,0,1,2.763,0Z" transform="translate(66.637 58.632)" fill="#d83564"/>
  <path id="Path_17481" data-name="Path 17481" d="M849.83,526.595c.109,1.183-.786,2.331-.525,3.49.057.248.163.482.2.732a2.815,2.815,0,0,1-.694,1.915l-3.365,4.938a3.065,3.065,0,0,1-.48.593,4.975,4.975,0,0,1-2.453.685,4.192,4.192,0,0,0-1.644.727.105.105,0,0,0-.015.144,1.413,1.413,0,0,0,1.223.574c.089.117,0,.288-.128.371-.181.128-.429.159-.465.465a.5.5,0,0,0,.062.308.957.957,0,0,0,.588.41,3.5,3.5,0,0,0,3.3-1.121c.872-.852,1.5-1.927,2.353-2.794.474-.479,1.012-.89,1.5-1.355a17.172,17.172,0,0,0,2.461-3.184,3.551,3.551,0,0,0,.533-1.084c.092-.394.049-.793.153-1.174a4.325,4.325,0,0,1,.807-1.319,4.364,4.364,0,0,0,.917-2.84,2.722,2.722,0,0,0-1.662-2.357,1.477,1.477,0,0,0-.931-.057,2.213,2.213,0,0,0-.948.754l-.642.739a1.73,1.73,0,0,0-.372.565.592.592,0,0,0,.128.628" transform="translate(-743.675 -472.411)" fill="#fbbebe"/>
  <path id="Path_17482" data-name="Path 17482" d="M849.83,526.595c.109,1.183-.786,2.331-.525,3.49.057.248.163.482.2.732a2.815,2.815,0,0,1-.694,1.915l-3.365,4.938a3.065,3.065,0,0,1-.48.593,4.975,4.975,0,0,1-2.453.685,4.192,4.192,0,0,0-1.644.727.105.105,0,0,0-.015.144,1.413,1.413,0,0,0,1.223.574c.089.117,0,.288-.128.371-.181.128-.429.159-.465.465a.5.5,0,0,0,.062.308.957.957,0,0,0,.588.41,3.5,3.5,0,0,0,3.3-1.121c.872-.852,1.5-1.927,2.353-2.794.474-.479,1.012-.89,1.5-1.355a17.172,17.172,0,0,0,2.461-3.184,3.551,3.551,0,0,0,.533-1.084c.092-.394.049-.793.153-1.174a4.325,4.325,0,0,1,.807-1.319,4.364,4.364,0,0,0,.917-2.84,2.722,2.722,0,0,0-1.662-2.357,1.477,1.477,0,0,0-.931-.057,2.213,2.213,0,0,0-.948.754l-.642.739a1.73,1.73,0,0,0-.372.565.592.592,0,0,0,.128.628" transform="translate(-743.675 -472.411)" opacity="0.05"/>
  <path id="Path_17483" data-name="Path 17483" d="M910.773,767.867a3.9,3.9,0,0,1-2.5.371c-.137-.017-.3-.027-.385.08-.128.154.023.385.18.5a3.706,3.706,0,0,0,1.72.708,11.326,11.326,0,0,0,1.683.112,28.441,28.441,0,0,0,4.6-.168.653.653,0,0,0,.257-.075.47.47,0,0,0,.19-.289,1.147,1.147,0,0,0-.4-1.094,3.354,3.354,0,0,0-1.073-.576l-1.336-.52a3.433,3.433,0,0,0-1.156-.42C911.908,766.546,911.3,767.556,910.773,767.867Z" transform="translate(-802.071 -683.228)" fill="#3f3d56"/>
  <path id="Path_17484" data-name="Path 17484" d="M910.773,767.867a3.9,3.9,0,0,1-2.5.371c-.137-.017-.3-.027-.385.08-.128.154.023.385.18.5a3.706,3.706,0,0,0,1.72.708,11.326,11.326,0,0,0,1.683.112,28.441,28.441,0,0,0,4.6-.168.653.653,0,0,0,.257-.075.47.47,0,0,0,.19-.289,1.147,1.147,0,0,0-.4-1.094,3.354,3.354,0,0,0-1.073-.576l-1.336-.52a3.433,3.433,0,0,0-1.156-.42C911.908,766.546,911.3,767.556,910.773,767.867Z" transform="translate(-802.071 -683.228)" opacity="0.05"/>
  <path id="Path_17485" data-name="Path 17485" d="M931.115,587.654a3.554,3.554,0,0,0-.994,2.51,5.592,5.592,0,0,0,.554,1.385,9.771,9.771,0,0,1,.56,1.947c.208.968.417,1.94.545,2.924.145,1.111-.537,4.326-.6,5.445a1.151,1.151,0,0,1-.235.755c-.073.077-.171.139-.2.239a.408.408,0,0,0,.045.283,3.108,3.108,0,0,0,1.67,1.534,13.206,13.206,0,0,0,3.22.846.642.642,0,0,0,.3-.04.591.591,0,0,0,.234-.268c.559-1.069.022-4.868.029-6.075.008-1.006.245-2.005.2-3.01-.036-.807-.257-1.6-.33-2.4a14.161,14.161,0,0,1,.356-3.945c.185-1,.371-2,.609-2.985a5.732,5.732,0,0,1,.642-1.733c.257-.415.618-.762.917-1.156a5.219,5.219,0,0,0,1.028-3.82,10.015,10.015,0,0,0-2.1.557,6.528,6.528,0,0,0-1.868,1.2,15.676,15.676,0,0,0-1.177,1.455q-.821,1-1.621,2.015Q931.991,586.479,931.115,587.654Z" transform="translate(-821.476 -520.748)" fill="#464353"/>
  <path id="Path_17486" data-name="Path 17486" d="M931.115,587.347a3.556,3.556,0,0,0-.994,2.51,5.58,5.58,0,0,0,.554,1.386,9.762,9.762,0,0,1,.56,1.946c.208.97.417,1.941.545,2.924.145,1.112-.537,4.326-.6,5.445a1.154,1.154,0,0,1-.235.757c-.073.076-.171.137-.2.238a.407.407,0,0,0,.045.283,3.146,3.146,0,0,0,1.67,1.541,12.4,12.4,0,0,0,3.22.6.642.642,0,0,0,.3-.04.581.581,0,0,0,.234-.267c.559-1.069.022-4.624.029-5.832.008-1.007.245-2.005.2-3.011-.036-.807-.257-1.6-.33-2.4a14.165,14.165,0,0,1,.356-3.946c.185-1,.371-2,.609-2.985a5.73,5.73,0,0,1,.642-1.733c.257-.415.618-.762.917-1.156a5.215,5.215,0,0,0,1.028-3.82,10,10,0,0,0-2.1.558,6.557,6.557,0,0,0-1.868,1.2A15.514,15.514,0,0,0,934.525,583q-.821,1-1.621,2.017Q931.991,586.172,931.115,587.347Z" transform="translate(-821.476 -520.487)" opacity="0.05"/>
  <circle id="Ellipse_585" data-name="Ellipse 585" cx="3.118" cy="3.118" r="3.118" transform="translate(100.332 44.375)" fill="#fbbebe"/>
  <path id="Path_17487" data-name="Path 17487" d="M891.514,482.9a4.037,4.037,0,0,0,2.588,1.806l-.235.854a8.1,8.1,0,0,1-1.995,4.036,1.875,1.875,0,0,0-.316-1.459,5.5,5.5,0,0,0-1.058-1.106L888.7,485.48a.538.538,0,0,1-.128-.152.456.456,0,0,1,0-.342,4.166,4.166,0,0,1,1.413-1.636,4.893,4.893,0,0,0,.71-.827C891.056,482.012,891.279,482.526,891.514,482.9Z" transform="translate(-785.256 -435.542)" fill="#fbbebe"/>
  <path id="Path_17488" data-name="Path 17488" d="M852.577,446.587l-.071-.586c.492.128.96-.29,1.274-.723s.606-.943,1.085-1.124a2.249,2.249,0,0,1,1.755.421,5.548,5.548,0,0,0,2.013.655,1.323,1.323,0,0,1,.333.054,1.158,1.158,0,0,1,.587,1,3.892,3.892,0,0,0,.217,1.218c.128.279.367.486.514.76.385.737.013,1.746.415,2.469l-1-.916c-.091-.083-.22-.171-.321-.1-.08.057-.086.179-.118.276a.525.525,0,0,1-.712.257,2.04,2.04,0,0,1-.642-.582,3.9,3.9,0,0,0-1.585-1.2,2.034,2.034,0,0,0-1.67.11c-.466.263-.808.877-1.38.9-.784.03-1.11-1.43-1.472-2.006a.707.707,0,0,0,.206-.884C852.058,446.557,852.565,446.5,852.577,446.587Z" transform="translate(-753.234 -402.229)" fill="#464353"/>
  <path id="Path_17489" data-name="Path 17489" d="M550.8,316.658a6.071,6.071,0,0,0-.692.727,1.455,1.455,0,0,0-.319.934.478.478,0,0,0,.09.274.231.231,0,0,0,.257.078.346.346,0,0,0,.128-.113,6.209,6.209,0,0,1,.432-.468c.055-.055.129-.113.2-.092a.217.217,0,0,1,.087.058.592.592,0,0,1,.181.283.666.666,0,0,1-.2.547,1.4,1.4,0,0,0-.335.5.219.219,0,0,0,0,.159.239.239,0,0,0,.1.085,1.433,1.433,0,0,0,1.213.08c.257-.1.486-.283.75-.375a1.735,1.735,0,0,0,.331-.128.688.688,0,0,0,.294-.441,1.812,1.812,0,0,0,.019-.541,6.216,6.216,0,0,0-.442-2.033.258.258,0,0,0-.074-.108.238.238,0,0,0-.128-.035,3.055,3.055,0,0,0-1.186-.081.836.836,0,0,0-.28.249C551.171,316.278,550.8,316.572,550.8,316.658Z" transform="translate(-490.016 -290.526)" fill="#a1616a"/>
  <path id="Path_17490" data-name="Path 17490" d="M525.557,237.958c0-.313-.385-1.07.227-1.12,0-.335-.474-.543-.385-.9.028-.118.128-.215.14-.335.039-.343-.581-.529-.478-.858.039-.128.175-.2.2-.33.069-.3-.461-.429-.471-.733,0-.1.058-.2.053-.3,0-.128-.112-.226-.173-.338-.161-.286-.082-.73-.375-.877.194.017.257-.271.177-.447s-.243-.329-.244-.524a.789.789,0,0,0,0-.213c-.054-.188-.361-.2-.412-.385a1.618,1.618,0,0,1-.006-.211c-.021-.145-.17-.238-.31-.279a1.264,1.264,0,0,1-.414-.148c-.09-.068-.194-.181-.29-.128-.036.022-.054.063-.081.094-.116.135-.337.076-.482-.023a1.978,1.978,0,0,1-.733-1.324c-.091-.51-.089-1.037-.2-1.541a3.3,3.3,0,0,0-.139-.462,2.446,2.446,0,0,1-.216-.46c-.023-.3.588-.094.821-.064a3.655,3.655,0,0,1,.667.128,7.139,7.139,0,0,1,.682.3c.927.41,2.047.46,2.792,1.148a2.341,2.341,0,0,0,.771.626,3.484,3.484,0,0,1,.432.112c.353.166.409.635.6.974a1.912,1.912,0,0,1,.158.283,1.086,1.086,0,0,1,.051.36l.027.89a32.819,32.819,0,0,1-.072,4.469,3.661,3.661,0,0,0,.017,1.463c.038.128.092.249.128.379a2.317,2.317,0,0,1,.049.462l.021.577a.179.179,0,0,1-.028.128.185.185,0,0,1-.155.037c-.8-.072-1.615-.524-2.372-.25" transform="translate(-464.878 -212.116)" fill="#464353"/>
  <ellipse id="Ellipse_586" data-name="Ellipse 586" cx="9.5" cy="1.373" rx="9.5" ry="1.373" transform="translate(87.816 67.411)" fill="#365394"/>
  <path id="Path_17491" data-name="Path 17491" d="M705.214,237.244c-.167-.715-.271-1.344-.271-1.344a2.769,2.769,0,0,0-.311-1.363v-.2h0V232.9a4.9,4.9,0,0,1,.363-.754,5.672,5.672,0,0,0,0-2.109,9.333,9.333,0,0,1-.727-3.819c.232-1.482-1.97-6.582-1.97-6.582a6.5,6.5,0,0,1,.207-1.457,1.108,1.108,0,0,0,.028-.306v-.026a11.317,11.317,0,0,0-.807-2.809l.1-3.491a10.265,10.265,0,0,0-.311-4.823c-.281-.965-.461-1.737-.575-2.333-.013-.067-.026-.128-.036-.194,1.656-.257,2.921-.462,2.921-.462s-.961-4.019-1.61-4.723a9.282,9.282,0,0,1-1.168-2.915s-.338-2.837.208-3.667a5.514,5.514,0,0,0,.623-2.261s1.245-.9,1.4-1.306a6.666,6.666,0,0,0,.415-1.783c0-.477-.155-.9-.1-1.156s-.364-1.206-.155-1.658a1.215,1.215,0,0,0,.082-.435.056.056,0,0,0,0-.013h0a6.1,6.1,0,0,0-.109-1.179,3.345,3.345,0,0,0-1.233-.659l-.027-.108-.071-.283a1.381,1.381,0,0,0-.122-.072v-.1l-.012-.408.2-.917c.385-1.6-1.746-1.833-1.746-1.833a1.124,1.124,0,0,0-.6-.529c-.428-.15-.071,2.4.128,2.569a10.056,10.056,0,0,1,.84,1.315h0l.036.064a.9.9,0,0,0-.1.1l.081.554.013.085a2.3,2.3,0,0,0-.34.579,1.25,1.25,0,0,1,.312.9,2.879,2.879,0,0,0,.128,1.1c-.023-.027-.3-.322-.57-.25s-1.038.3-1.038.3-.57.1-.514.226-.385.678-.385.678l-1.534-1.454c-.015-.044-.032-.087-.045-.128a3.542,3.542,0,0,1-.128-.642,3.506,3.506,0,0,0,.491-.155,1.057,1.057,0,0,0,.424-.272,1.643,1.643,0,0,0,.248-.662,9.721,9.721,0,0,1,.569-1.269,4.126,4.126,0,0,0,.289-2.284,1.491,1.491,0,0,0-.235-.668c-.251-.344-.705-.484-1.035-.759s-.543-.695-.929-.9a1.842,1.842,0,0,0-1.164-.1,6.273,6.273,0,0,0-2.175.791,1.132,1.132,0,0,1-.727.239.95.95,0,0,1-.524-.385.134.134,0,0,1,.006-.021.128.128,0,0,1-.017-.021,2.709,2.709,0,0,0-.239,1.148,1.417,1.417,0,0,0,.008.184v.117h0a.293.293,0,0,1-.012.081.584.584,0,0,1-.144.207,1.392,1.392,0,0,0-.128.171.212.212,0,0,1,.021-.063.913.913,0,0,0-.159.484.5.5,0,0,0,.116.347,1.676,1.676,0,0,0,.251.2,2.913,2.913,0,0,0-.046.514,2.968,2.968,0,0,0,1.446,2.532c.018.042.035.086.051.128a3.656,3.656,0,0,1,.279,1.67.785.785,0,0,1-.018.121c-.006.04-.039.042-.055.064h0s-2.534.026-3.13-.514-1.505,1.319-1.505,1.319-.908.176-1.091,0-1.245-.024-1.245-.024a2.29,2.29,0,0,0-1.584-.578,4.647,4.647,0,0,0-1.156-.642h0l-.028-.01h0a1.3,1.3,0,0,0-.572-.072,11.531,11.531,0,0,1-1.609-1.583c-.364-.555-2.094-2.6-2.1-2.613v-.1l-.019-.3a1.065,1.065,0,0,1-.155.013c-.009-.03-.022-.064-.035-.1a5.742,5.742,0,0,0-.367-.844s0-.376.109-.471a6.494,6.494,0,0,0-.045-1.476s-1.123-2.624-2.128-.665c0,0-1.9,1.268-.306,2.745,0,0,.642.308.727.552.059.158.275.6.42.9l.065.128-.018.015.023.247.01.1c-.3.171-.5.34-.455.468a2.81,2.81,0,0,1,.181.678s2.207,2.764,2.492,3.945c0,0,5.918,3.517,7.864,3.767l-.344,1.753a13.963,13.963,0,0,0-.077,1.432c.026.376-.234,2.085-.234,2.085a13.941,13.941,0,0,1-.623,2.864,4.825,4.825,0,0,0-.234,1.859,12.707,12.707,0,0,1-.385,2.135,5.454,5.454,0,0,0-.078,2.136s-.985,2.261,1.376.728c0,0,1.156-.072,2.495-.118v.128c0,.172,0,.358-.009.554-.018,1.295-.026,3.083.033,4.429.1,2.387.831,7.11.831,7.11v2.378a3.23,3.23,0,0,0-.069.678,4.413,4.413,0,0,0,.642,2.375l.182,1.583a6.175,6.175,0,0,1,.434,1.67.871.871,0,0,1-.018.15,1,1,0,0,0-.021.243,13.667,13.667,0,0,0,.409,2.441s.026,1.733.285,1.834c.222.086-.3,1-.451,1.26a.367.367,0,0,1-.009-.049l-.032.051a1.231,1.231,0,0,0-.081.439.629.629,0,0,0,.288.609c.493.3.758.552.339.653a4.362,4.362,0,0,0-.457.1.2.2,0,0,0-.022-.058.275.275,0,0,0-.171.3,1.285,1.285,0,0,0,.153.583,6.364,6.364,0,0,0,.7,1.285l.2-.022a.969.969,0,0,1-.116.215.826.826,0,0,1-.293.257.906.906,0,0,1-.356.122,1,1,0,0,0-.735.357.766.766,0,0,0,.09,1.192l1.856.642s3.193.415,3.024-.3-.272-1.344-.272-1.344a2.832,2.832,0,0,0-.257-1.27,1.652,1.652,0,0,0-.113-.188l.113-.012a5.878,5.878,0,0,1,.545-1.884c.072-.069.089-.128.072-.164.032-.086-.05-.136-.154-.166l-.023.063a1.514,1.514,0,0,0-.31-.035s-.1-.829.234-1.13a.32.32,0,0,0,.066-.247,1.328,1.328,0,0,0-.036-.338.165.165,0,0,1-.012.021,12.169,12.169,0,0,0-.745-1.949,2.382,2.382,0,0,1,.182-1.055,26.579,26.579,0,0,0-.027-4.1,12.393,12.393,0,0,0-.155-2.687,3.017,3.017,0,0,1,.285-1.86v-.067l-.029-.289a.074.074,0,0,0,0,.018c-.053-.486-.152-1.365-.225-1.771-.1-.578.027-3.34.027-3.34l.466-1.182.831,2.036.882,2.713a2.318,2.318,0,0,1,.447,1.156v.085a1.484,1.484,0,0,0-.01.181,1.614,1.614,0,0,0,.268.967,4.184,4.184,0,0,0,.6,1.607,1.442,1.442,0,0,1,.364.954,16.691,16.691,0,0,0,.642,2.184,3.247,3.247,0,0,1,.182,1.263h0v.067s.062.665.059,1.223v.2a.055.055,0,0,0,0-.014,1.933,1.933,0,0,1-.054.452l-.008.026a.328.328,0,0,1,.009-.094,4.725,4.725,0,0,0-.128,1.156,2.994,2.994,0,0,0,.495,1.927c.7.8,1.142.7,1.142.7s-.337,1-.753,1.206a.194.194,0,0,0-.044.028.428.428,0,0,0-.01-.059.489.489,0,0,0-.128.375,2.7,2.7,0,0,0,.514,1.489.839.839,0,0,0,.351.206.563.563,0,0,1-.065.04,1.4,1.4,0,0,1-.143.068.751.751,0,0,1-.212.055.989.989,0,0,0-.735.357.765.765,0,0,0,.09,1.191l1.856.642S705.381,237.96,705.214,237.244Z" transform="translate(-599.725 -168.393)" fill="url(#linear-gradient)"/>
  <path id="Path_17492" data-name="Path 17492" d="M796.389,639.582l-1.8-.642a.78.78,0,0,1-.087-1.192.96.96,0,0,1,.712-.357.853.853,0,0,0,.343-.122.822.822,0,0,0,.285-.257,1.328,1.328,0,0,0,.2-.695s1.973-.578,2.513,0a1.46,1.46,0,0,1,.239.351,2.934,2.934,0,0,1,.257,1.27s.1.627.263,1.344S796.389,639.582,796.389,639.582Z" transform="translate(-703.091 -569.544)" fill="#2d293d"/>
  <path id="Path_17493" data-name="Path 17493" d="M864.829,632.665l-1.8-.642a.779.779,0,0,1-.087-1.191.949.949,0,0,1,.71-.357.663.663,0,0,0,.205-.055,1.416,1.416,0,0,0,.139-.068,1.137,1.137,0,0,0,.489-.954s1.972-.578,2.513,0a1.417,1.417,0,0,1,.189.257,2.853,2.853,0,0,1,.3,1.364s.1.628.257,1.344S864.829,632.665,864.829,632.665Z" transform="translate(-762.74 -563.513)" fill="#2d293d"/>
  <path id="Path_17494" data-name="Path 17494" d="M809.275,636.3a1.46,1.46,0,0,1,.239.351h0L806.56,637a1.326,1.326,0,0,0,.2-.695S808.736,635.727,809.275,636.3Z" transform="translate(-713.805 -569.533)" opacity="0.1"/>
  <path id="Path_17495" data-name="Path 17495" d="M875.029,629.674v.554c-.46.756-2.683.591-3.329.212a1.377,1.377,0,0,0,.139-.068,1.138,1.138,0,0,0,.489-.954s1.972-.578,2.513,0a1.425,1.425,0,0,1,.189.257Z" transform="translate(-770.578 -563.53)" opacity="0.1"/>
  <path id="Path_17496" data-name="Path 17496" d="M798.468,415.318a5.03,5.03,0,0,0-.351.754v1.985c-.5.828-3.115.552-3.468.1s-.722-1.629-.325-1.833.728-1.206.728-1.206-.428.1-1.106-.7-.477-2.587-.351-3.013a8.9,8.9,0,0,0,0-1.859,3.735,3.735,0,0,0-.175-1.332,16.573,16.573,0,0,1-.628-2.184,1.478,1.478,0,0,0-.352-.954,4.3,4.3,0,0,1-.578-1.608,1.647,1.647,0,0,1-.25-1.08,2.194,2.194,0,0,0-.428-1.306l-.854-2.714-.8-2.035-.452,1.18s-.128,2.763-.024,3.34.257,2.11.257,2.11a3.1,3.1,0,0,0-.276,1.859,12.691,12.691,0,0,1,.144,2.69,27.413,27.413,0,0,1,.024,4.094,2.451,2.451,0,0,0-.176,1.056s1.028,2.209.7,2.511-.226,1.13-.226,1.13.7,0,.4.3a6.052,6.052,0,0,0-.528,1.884l-3.038.356a6.317,6.317,0,0,1-.68-1.285c-.4-.934.074-.829.479-.93s.149-.351-.329-.653-.2-.98-.2-.98.728-1.231.477-1.331-.276-1.834-.276-1.834a11.163,11.163,0,0,1-.376-2.613,5,5,0,0,0-.4-1.883l-.176-1.583a4.355,4.355,0,0,1-.552-2.99v-2.441s-.7-4.722-.8-7.108c-.064-1.529-.046-3.615-.026-4.916.013-.73.026-1.214.026-1.214l10.852-1.13a9.062,9.062,0,0,0,.2,1.612c.112.6.285,1.368.557,2.333a10.6,10.6,0,0,1,.3,4.822l-.1,3.493s.954,2.335.754,3.139a6.7,6.7,0,0,0-.2,1.459s2.135,5.1,1.909,6.582a9.584,9.584,0,0,0,.7,3.819A5.776,5.776,0,0,1,798.468,415.318Z" transform="translate(-693.665 -351.561)" fill="#464353"/>
  <path id="Path_17497" data-name="Path 17497" d="M852.05,509.711l3.3-.441S853.482,511.18,852.05,509.711Z" transform="translate(-753.452 -459.04)" opacity="0.05"/>
  <path id="Path_17498" data-name="Path 17498" d="M869.962,484.14s.113,1.169-.6,1.608C869.36,485.748,870.641,485.548,869.962,484.14Z" transform="translate(-768.538 -437.138)" opacity="0.1"/>
  <path id="Path_17499" data-name="Path 17499" d="M845.973,455.2s-2.762,2.274-3.766,2.085S845.973,455.2,845.973,455.2Z" transform="translate(-744.752 -411.916)" opacity="0.1"/>
  <path id="Path_17500" data-name="Path 17500" d="M805.5,521s-2.1.477-2.161,1.319S805.5,521,805.5,521Z" transform="translate(-710.999 -469.264)" opacity="0.1"/>
  <path id="Path_17501" data-name="Path 17501" d="M808.342,602.56s-2.963.552-2.122.929a14.381,14.381,0,0,0,2.224.678S809.4,604.217,808.342,602.56Z" transform="translate(-713.377 -540.347)" opacity="0.05"/>
  <g id="Group_17152" data-name="Group 17152" transform="translate(89.786 35.441)" opacity="0.05">
    <path id="Path_17502" data-name="Path 17502" d="M799.993,611.539a.585.585,0,0,1-.271-.429l-.031.053s-.276.678.2.979c.054.035.107.069.154.1.089-.017.184-.03.275-.053C800.727,612.091,800.471,611.841,799.993,611.539Z" transform="translate(-797.536 -583.24)"/>
    <path id="Path_17503" data-name="Path 17503" d="M831.359,609.394c.082-.074.08-.267.029-.514a1.445,1.445,0,0,0-.168.727A.626.626,0,0,1,831.359,609.394Z" transform="translate(-825.084 -581.296)"/>
    <path id="Path_17504" data-name="Path 17504" d="M827.39,515.59a3.423,3.423,0,0,0-.2.924,3.728,3.728,0,0,1,.23-.635Z" transform="translate(-821.571 -499.99)"/>
    <path id="Path_17505" data-name="Path 17505" d="M881.215,503.465a1.182,1.182,0,0,0,.027-.275c-.037.188-.063.361-.082.514C881.177,503.625,881.195,503.551,881.215,503.465Z" transform="translate(-868.609 -489.182)"/>
    <path id="Path_17506" data-name="Path 17506" d="M827.721,581.329a1.609,1.609,0,0,0,.074-.559,1.9,1.9,0,0,0-.145.705A.677.677,0,0,1,827.721,581.329Z" transform="translate(-821.972 -556.797)"/>
    <path id="Path_17507" data-name="Path 17507" d="M803.706,622a9.976,9.976,0,0,0-.346,1.541l-3.038.351a6.319,6.319,0,0,1-.679-1.284,2.331,2.331,0,0,1-.086-.221c-.182.083-.257.272-.015.823a6.423,6.423,0,0,0,.681,1.284l3.038-.352a6.043,6.043,0,0,1,.527-1.884C803.941,622.113,803.846,622.037,803.706,622Z" transform="translate(-797.341 -592.731)"/>
    <path id="Path_17508" data-name="Path 17508" d="M785.806,418.9s.024,1.733.276,1.833h0c.128-.286.212-.559.1-.6-.257-.1-.276-1.834-.276-1.834a11.16,11.16,0,0,1-.376-2.613,5,5,0,0,0-.4-1.883l-.176-1.582a4.355,4.355,0,0,1-.552-2.99v-2.441s-.7-4.722-.8-7.109c-.064-1.529-.046-3.615-.026-4.916,0-.235.008-.443.012-.619l-.086.009s-.014.483-.026,1.214c-.021,1.3-.04,3.387.026,4.915.1,2.387.8,7.11.8,7.11v2.441a4.356,4.356,0,0,0,.554,2.989l.175,1.583a5.025,5.025,0,0,1,.4,1.884A11.183,11.183,0,0,0,785.806,418.9Z" transform="translate(-783.448 -394.14)"/>
    <path id="Path_17509" data-name="Path 17509" d="M867.346,623.363a2.938,2.938,0,0,1-.482-1.193c-.31.28.046,1.367.385,1.8.351.452,2.963.728,3.468-.1v-.478C870.034,624.061,867.678,623.791,867.346,623.363Z" transform="translate(-856.046 -592.879)"/>
    <path id="Path_17510" data-name="Path 17510" d="M898.752,609.247a5.065,5.065,0,0,0-.352.754v.356a5.252,5.252,0,0,1,.257-.5,1.54,1.54,0,0,0,.11-.623S898.756,609.242,898.752,609.247Z" transform="translate(-883.634 -581.601)"/>
    <path id="Path_17511" data-name="Path 17511" d="M862.857,587.262a4.96,4.96,0,0,0,.248-.6s-.428.1-1.106-.7a3.569,3.569,0,0,1-.451-2.411c-.128.428-.328,2.211.351,3.015A1.789,1.789,0,0,0,862.857,587.262Z" transform="translate(-851.403 -559.22)"/>
    <path id="Path_17512" data-name="Path 17512" d="M832.317,475.327a13.379,13.379,0,0,1,.05,1.489,2.042,2.042,0,0,1,.052-.233,8.725,8.725,0,0,0,0-1.859,3.715,3.715,0,0,0-.176-1.332,16.219,16.219,0,0,1-.622-2.186,1.478,1.478,0,0,0-.352-.954,4.3,4.3,0,0,1-.578-1.608,1.654,1.654,0,0,1-.257-1.08,2.187,2.187,0,0,0-.427-1.306l-.854-2.713-.8-2.035-.453,1.182s0,.149-.015.385l.367-.96.8,2.031.854,2.713a2.187,2.187,0,0,1,.426,1.306,1.654,1.654,0,0,0,.257,1.08,4.283,4.283,0,0,0,.578,1.608,1.47,1.47,0,0,1,.351.954,16.516,16.516,0,0,0,.628,2.184A3.715,3.715,0,0,1,832.317,475.327Z" transform="translate(-822.173 -452.856)"/>
  </g>
  <path id="Path_17513" data-name="Path 17513" d="M862.09,193.226l-.189.917.012.408.008.3-1.048.108-.117-.217h0a9.73,9.73,0,0,0-.813-1.315c-.194-.162-.54-2.713-.128-2.561a1.1,1.1,0,0,1,.583.528S862.461,191.63,862.09,193.226Z" transform="translate(-760.05 -181.53)" fill="#ffcdd3"/>
  <path id="Path_17514" data-name="Path 17514" d="M869.615,219.068l-1.048.108-.117-.217h0a.923.923,0,0,1,1.156-.19Z" transform="translate(-767.745 -205.746)" opacity="0.1"/>
  <path id="Path_17515" data-name="Path 17515" d="M869.47,220.211l-1.382.32-.03-.206-.078-.554a.951.951,0,0,1,1.339-.182l.069.281Z" transform="translate(-767.336 -206.392)" fill="#e6e6e6"/>
  <path id="Path_17516" data-name="Path 17516" d="M682.684,180.145l-1.476.791-.128-.277c-.14-.294-.349-.737-.407-.9-.087-.244-.7-.552-.7-.552-1.542-1.476.3-2.745.3-2.745.974-1.959,2.055.665,2.055.665a6.651,6.651,0,0,1,.045,1.476c-.107.092-.107.471-.107.471a5.8,5.8,0,0,1,.356.844C682.66,180.059,682.684,180.145,682.684,180.145Z" transform="translate(-602.939 -168.349)" fill="#ffcdd3"/>
  <path id="Path_17517" data-name="Path 17517" d="M694.394,208.478l-1.476.791-.128-.277c.208-.175.947-.771,1.189-.746a1.778,1.778,0,0,0,.349.009C694.37,208.391,694.394,208.478,694.394,208.478Z" transform="translate(-614.649 -196.682)" opacity="0.1"/>
  <path id="Path_17518" data-name="Path 17518" d="M694.815,209.611l-1.658.817-.033-.356-.023-.247s.961-.823,1.245-.791a1.51,1.51,0,0,0,.433,0l.019.3Z" transform="translate(-614.919 -197.369)" fill="#e6e6e6"/>
  <path id="Path_17519" data-name="Path 17519" d="M806.526,218.691s-7.229.816-5.878.376a1.807,1.807,0,0,0,1.392-1.567,3.764,3.764,0,0,0-.268-1.67,7.282,7.282,0,0,0-.642-1.306s5.523-3.039,4.42-.276a4.453,4.453,0,0,0-.313,1.309,3.7,3.7,0,0,0,.143,1.326A3.947,3.947,0,0,0,806.526,218.691Z" transform="translate(-708.506 -200.903)" fill="#ffcdd3"/>
  <path id="Path_17520" data-name="Path 17520" d="M809.956,214.217a4.455,4.455,0,0,0-.313,1.309,2.541,2.541,0,0,1-1.824.408,3.264,3.264,0,0,1-1.636-.135,7.289,7.289,0,0,0-.642-1.306S811.062,211.454,809.956,214.217Z" transform="translate(-712.916 -200.877)" opacity="0.1"/>
  <circle id="Ellipse_587" data-name="Ellipse 587" cx="2.989" cy="2.989" r="2.989" transform="translate(91.816 9.273)" fill="#ffcdd3"/>
  <path id="Path_17521" data-name="Path 17521" d="M806.526,242.3s-7.229.816-5.878.376a1.807,1.807,0,0,0,1.392-1.567,4.033,4.033,0,0,1,1.542-.821,2.163,2.163,0,0,1,1.31-.022,1.864,1.864,0,0,1,.477.221A3.947,3.947,0,0,0,806.526,242.3Z" transform="translate(-708.506 -224.508)" opacity="0.1"/>
  <path id="Path_17522" data-name="Path 17522" d="M870,223.171l-1.382.32-.03-.206a1.223,1.223,0,0,1,1.33-.455Z" transform="translate(-767.867 -209.352)" opacity="0.1"/>
  <path id="Path_17523" data-name="Path 17523" d="M694.972,211.63l-1.658.817-.033-.356a12.1,12.1,0,0,1,1.67-.741Z" transform="translate(-615.076 -199.389)" opacity="0.1"/>
  <path id="Path_17524" data-name="Path 17524" d="M794.674,387.582c-2.8.447-6.784,1.017-7.415.825a18.531,18.531,0,0,0-3.658-.092c.013-.73.026-1.214.026-1.214l10.852-1.13A9.065,9.065,0,0,0,794.674,387.582Z" transform="translate(-693.794 -351.578)" opacity="0.1"/>
  <path id="Path_17525" data-name="Path 17525" d="M715.8,235.406s-9.219,1.582-10.208,1.285-6.069.024-6.069.024c-2.286,1.532-1.332-.728-1.332-.728a5.62,5.62,0,0,1,.076-2.135,13.044,13.044,0,0,0,.379-2.137,4.977,4.977,0,0,1,.226-1.86,14.328,14.328,0,0,0,.6-2.863s.25-1.708.226-2.085.074-1.432.074-1.432l.328-1.759c-1.884-.25-7.612-3.767-7.612-3.767-.276-1.18-2.411-3.943-2.411-3.943a2.9,2.9,0,0,0-.176-.678c-.15-.4,2.111-1.206,2.111-1.206s1.683,2.055,2.035,2.613a11.2,11.2,0,0,0,1.557,1.583,1.211,1.211,0,0,1,.552.072l.03.009h0a4.477,4.477,0,0,1,1.124.642,2.184,2.184,0,0,1,1.532.578s1.028-.152,1.206.024,1.055,0,1.055,0,.879-1.859,1.457-1.319,3.03.514,3.03.514a3.548,3.548,0,0,1,1.618-.9,2.172,2.172,0,0,1,1.31-.022,1.661,1.661,0,0,1,.514.257l1.491,1.457s.426-.554.376-.678.5-.226.5-.226.728-.226,1-.3.529.224.552.25a3,3,0,0,1-.128-1.1,1.3,1.3,0,0,0-.3-.9c.879-2.161,2.863-.352,2.863-.352a4.143,4.143,0,0,1,.026,1.633c-.2.452.2,1.407.15,1.658s.1.678.1,1.156a7.066,7.066,0,0,1-.4,1.783c-.145.4-1.356,1.306-1.356,1.306a5.67,5.67,0,0,1-.6,2.261c-.528.829-.2,3.662-.2,3.662a9.466,9.466,0,0,0,1.13,2.915C714.868,231.394,715.8,235.406,715.8,235.406Z" transform="translate(-612.125 -200.06)" fill="#3f3d56"/>
  <path id="Path_17526" data-name="Path 17526" d="M778.406,254.3s-.276-.828-.528-.9a5.821,5.821,0,0,1-.728-.326l.162-.31s.943.257,1.094.536A2.132,2.132,0,0,1,778.406,254.3Z" transform="translate(-688.173 -235.488)" opacity="0.1"/>
  <path id="Path_17527" data-name="Path 17527" d="M732.106,246c-.05.257-2.286.477-2.286.477l1.13-1.133h0l.028.01h0A4.478,4.478,0,0,1,732.106,246Z" transform="translate(-646.923 -229.013)" opacity="0.1"/>
  <circle id="Ellipse_588" data-name="Ellipse 588" cx="0.2" cy="0.2" r="0.2" transform="translate(78.515 13.336)" fill="#575988"/>
  <circle id="Ellipse_589" data-name="Ellipse 589" cx="0.2" cy="0.2" r="0.2" transform="translate(78.772 13.738)" fill="#575988"/>
  <circle id="Ellipse_590" data-name="Ellipse 590" cx="0.2" cy="0.2" r="0.2" transform="translate(79.023 14.109)" fill="#575988"/>
  <circle id="Ellipse_591" data-name="Ellipse 591" cx="0.2" cy="0.2" r="0.2" transform="translate(79.287 14.51)" fill="#575988"/>
  <circle id="Ellipse_592" data-name="Ellipse 592" cx="0.163" cy="0.163" r="0.163" transform="translate(103.003 14.525)" fill="#575988"/>
  <circle id="Ellipse_593" data-name="Ellipse 593" cx="0.163" cy="0.163" r="0.163" transform="translate(103.028 14.897)" fill="#575988"/>
  <circle id="Ellipse_594" data-name="Ellipse 594" cx="0.163" cy="0.163" r="0.163" transform="translate(103.05 15.266)" fill="#575988"/>
  <path id="Path_17528" data-name="Path 17528" d="M787,317.719c-.024-.03,5.639,7.121,10.035,2.989C797.038,320.71,790.093,321.651,787,317.719Z" transform="translate(-696.757 -292.095)" opacity="0.1"/>
  <path id="Path_17529" data-name="Path 17529" d="M761.7,346.66s3.389.092,3.743,1.067v1.015a.65.65,0,0,1-.631,0c-.342-.185-2.39-1.225-3.112-.724Z" transform="translate(-674.707 -317.318)" opacity="0.1"/>
  <path id="Path_17530" data-name="Path 17530" d="M762.19,346.66s3.241.089,3.58,1.019v.966a.621.621,0,0,1-.6,0c-.326-.175-2.285-1.168-2.976-.69Z" transform="translate(-675.135 -317.318)" fill="#3f3d56"/>
  <path id="Path_17531" data-name="Path 17531" d="M776.1,289.38a10.9,10.9,0,0,0,1.314,2.254,8.848,8.848,0,0,0,2.055,1.987S776.156,289.845,776.1,289.38Z" transform="translate(-687.258 -267.396)" opacity="0.1"/>
  <path id="Path_17532" data-name="Path 17532" d="M767.47,258.73s.565,2.441,2.022,3.269Z" transform="translate(-679.736 -240.683)" opacity="0.1"/>
  <path id="Path_17533" data-name="Path 17533" d="M760.378,260.645c-.014-.045-.5,1.927,1.878,3.022C762.256,263.667,761.245,263.324,760.378,260.645Z" transform="translate(-673.511 -242.351)" opacity="0.1"/>
  <path id="Path_17534" data-name="Path 17534" d="M875.9,247.9a16.946,16.946,0,0,1,1.5,1.13S876.62,247.848,875.9,247.9Z" transform="translate(-774.241 -231.241)" opacity="0.1"/>
  <path id="Path_17535" data-name="Path 17535" d="M799.363,189a.471.471,0,0,0,.514.466,5.977,5.977,0,0,0,2.7-.257,1.027,1.027,0,0,0,.411-.272,1.69,1.69,0,0,0,.239-.661,9.621,9.621,0,0,1,.551-1.269,4.251,4.251,0,0,0,.3-2.28,1.54,1.54,0,0,0-.229-.667c-.241-.346-.682-.486-1-.76s-.525-.695-.9-.9a1.726,1.726,0,0,0-1.128-.1,5.92,5.92,0,0,0-2.1.79,1.073,1.073,0,0,1-.7.239.941.941,0,0,1-.514-.4,2.782,2.782,0,0,0-.215,1.3.558.558,0,0,1-.006.2.591.591,0,0,1-.14.207.76.76,0,0,0-.143.939c.1.114.245.177.339.294.168.209.112.514.108.781a.4.4,0,0,0,.067.265.385.385,0,0,0,.369.089,1,1,0,0,1,.393-.037.659.659,0,0,1,.342.257A4.827,4.827,0,0,1,799.363,189Z" transform="translate(-705.366 -174.033)" fill="#2d293d"/>
  <g id="Group_17153" data-name="Group 17153" transform="translate(91.511 8.876)" opacity="0.1">
    <path id="Path_17536" data-name="Path 17536" d="M803.092,205.659a1.028,1.028,0,0,1-.411.272,6.063,6.063,0,0,1-2.7.257.473.473,0,0,1-.515-.468,4.686,4.686,0,0,0-.762-1.767.66.66,0,0,0-.342-.263,1.054,1.054,0,0,0-.393.037.385.385,0,0,1-.369-.087.4.4,0,0,1-.067-.265c0-.27.06-.572-.108-.781-.094-.117-.243-.18-.339-.3a.586.586,0,0,1-.058-.6.685.685,0,0,0-.042.8c.1.114.245.177.339.294.168.211.112.514.108.781a.4.4,0,0,0,.066.265.385.385,0,0,0,.37.089,1,1,0,0,1,.393-.037.658.658,0,0,1,.342.257,4.694,4.694,0,0,1,.762,1.769.642.642,0,0,0,.222.407.623.623,0,0,0,.283.062,5.959,5.959,0,0,0,2.7-.257,1.019,1.019,0,0,0,.411-.272.787.787,0,0,0,.128-.241A.063.063,0,0,1,803.092,205.659Z" transform="translate(-796.877 -199.854)"/>
    <path id="Path_17537" data-name="Path 17537" d="M799.943,188.779a.441.441,0,0,0,.091-.152.562.562,0,0,0,0-.2,2.786,2.786,0,0,1,.14-1.082l-.017-.019a2.76,2.76,0,0,0-.215,1.3A.931.931,0,0,1,799.943,188.779Z" transform="translate(-799.542 -187.33)"/>
  </g>
  <path id="Path_17538" data-name="Path 17538" d="M812.08,248.436s3.734.5,4.069-.065" transform="translate(-718.616 -231.653)" opacity="0.1"/>
  <path id="Path_17539" data-name="Path 17539" d="M868.59,236.85s2.076,0,2.532.781" transform="translate(-767.867 -221.613)" opacity="0.1"/>
  <path id="Path_17540" data-name="Path 17540" d="M940.375,764.806a3.292,3.292,0,0,1-2.241.838c-.211,0-.5.04-.5.25a.352.352,0,0,0,.062.172,2.062,2.062,0,0,0,1.156.908,4.086,4.086,0,0,0,1.4.089l1.368-.071c.257-.014.514-.027.771-.059s.537-.085.805-.128a10.522,10.522,0,0,1,1.992-.093.6.6,0,0,0,.491-.128c.105-.128.051-.374.012-.566-.082-.4,0-.813-.076-1.211a2.127,2.127,0,0,0-1.4-1.487,2.937,2.937,0,0,0-2.292-.112A15.092,15.092,0,0,0,940.375,764.806Z" transform="translate(-828.039 -680.186)" fill="#3f3d56"/>
  <path id="Path_17541" data-name="Path 17541" d="M950.942,575.389c.121.574.677,1.013.692,1.6a2.5,2.5,0,0,1-.562,1.266,8.443,8.443,0,0,0-.574,1.3,19.87,19.87,0,0,1-1.685,3.353,2.682,2.682,0,0,0-.608,1.66,2.489,2.489,0,0,0,.292.794l.964,1.914a5.542,5.542,0,0,1,.492,1.209c.083.363.091.74.14,1.11.152,1.174.7,2.356.376,3.494-.028.1-.128.216-.207.148a3.661,3.661,0,0,1,.55,1.868,2.6,2.6,0,0,0,.009,1.051,1.147,1.147,0,0,1,.15.414,2.678,2.678,0,0,1-.055.284.626.626,0,0,0,.48.583c.258.086.539.08.8.158a4.908,4.908,0,0,1,1.284.881,2.735,2.735,0,0,0,1.48.482.373.373,0,0,0,.218-.044.353.353,0,0,0,.121-.265,1.469,1.469,0,0,0-.529-1.277.579.579,0,0,1-.2-.205.5.5,0,0,1-.018-.23,17.317,17.317,0,0,0-.057-3.16,4.8,4.8,0,0,1-.05-1.006,4.1,4.1,0,0,0,.081-.836,4.435,4.435,0,0,0-.257-.8,5.772,5.772,0,0,1-.128-1.491,13.082,13.082,0,0,0-.423-2.569,1.943,1.943,0,0,0-.4-.927c-.2-.209-.524-.41-.448-.689a.82.82,0,0,1,.184-.274,1.1,1.1,0,0,0,.229-.838.376.376,0,0,0,.433-.2,6.772,6.772,0,0,0,3.388-3.854,1.275,1.275,0,0,1,.152-.344,1.551,1.551,0,0,1,.62-.4,4.711,4.711,0,0,0,1.63-1.662,2.939,2.939,0,0,0,.716-2.075l.04-1.509a.816.816,0,0,0-.028-.3.74.74,0,0,0-.163-.239,2.9,2.9,0,0,0-1.6-.863c-.411-.073-.831-.059-1.247-.094a15.493,15.493,0,0,0-2.41-.257,3.857,3.857,0,0,0-2.994,2.1C951.613,575.038,951.392,575.382,950.942,575.389Z" transform="translate(-837.247 -514.181)" fill="#464353"/>
  <path id="Path_17542" data-name="Path 17542" d="M905.275,495.725a1.687,1.687,0,0,1-.093.687.48.48,0,0,1-.564.289c.066-.148-.108-.316-.27-.3a.5.5,0,0,0-.356.306,1.137,1.137,0,0,0-.1.7,2.83,2.83,0,0,1,.177.876c-.036.247-.217.492-.121.721a1.166,1.166,0,0,0,.232.279.786.786,0,0,1-.083,1.079l2.43.049a1.716,1.716,0,0,0,.3,1.182,7.45,7.45,0,0,0,5.554,3.626.483.483,0,0,0-.117.739.686.686,0,0,0,.781.045,5.569,5.569,0,0,0,.668-.5,2.054,2.054,0,0,1,1.373-.37c.3.029.6.128.906.144.9.048,1.67-.6,2.536-.864a5.854,5.854,0,0,0,1.875-.588.748.748,0,0,0,.349-.723,1.207,1.207,0,0,0-.257-.425,7.354,7.354,0,0,1-.7-1.317A7.876,7.876,0,0,0,918.038,499a15.711,15.711,0,0,0-1.742-1.32,2.967,2.967,0,0,0-.47-.284,5.263,5.263,0,0,1-.642-.257,3.425,3.425,0,0,1-.669-.753,10.033,10.033,0,0,0-1.815-1.263,4.3,4.3,0,0,0-1.225-.83c-.231-.071-.477-.076-.708-.145-.525-.159-.908-.626-1.423-.814a5.712,5.712,0,0,0-1.284-.163,3.007,3.007,0,0,1-1.342-.511,1.594,1.594,0,0,0-.428-.249c-.651-.2-.7,1.015-.771,1.435A13.839,13.839,0,0,0,905.275,495.725Z" transform="translate(-798.619 -444.33)" fill="#605d82"/>
  <path id="Path_17543" data-name="Path 17543" d="M858.64,536.568c.109,1.184-.785,2.331-.524,3.491.055.247.162.482.2.732a2.807,2.807,0,0,1-.694,1.914l-3.365,4.939a3.115,3.115,0,0,1-.48.593,4.974,4.974,0,0,1-2.453.683,4.238,4.238,0,0,0-1.644.727.106.106,0,0,0-.021.148,1.413,1.413,0,0,0,1.222.574c.089.116,0,.288-.122.371-.18.128-.429.158-.465.465a.514.514,0,0,0,.062.308.959.959,0,0,0,.588.408,3.492,3.492,0,0,0,3.3-1.121c.872-.852,1.5-1.927,2.353-2.793.474-.48,1.012-.89,1.5-1.355a17.163,17.163,0,0,0,2.461-3.184,3.523,3.523,0,0,0,.533-1.084c.091-.394.049-.794.153-1.175a4.319,4.319,0,0,1,.807-1.318,4.359,4.359,0,0,0,.917-2.841,2.724,2.724,0,0,0-1.662-2.357,1.494,1.494,0,0,0-.931-.057,2.206,2.206,0,0,0-.948.755l-.642.737a1.718,1.718,0,0,0-.361.566.592.592,0,0,0,.128.629" transform="translate(-751.349 -481.106)" fill="#fbbebe"/>
  <path id="Path_17544" data-name="Path 17544" d="M918.235,511.888a1.841,1.841,0,0,0-1.241.385,1.768,1.768,0,0,0-.313.491,4.887,4.887,0,0,0-.62,1.952,8.936,8.936,0,0,0,.225,1.631,6.236,6.236,0,0,1-.14,1.37,9.5,9.5,0,0,0,1.77-.681,5.923,5.923,0,0,1,1.037-.538,3.118,3.118,0,0,1,1.915.372c.027-.352-.238-.966-.209-1.319a1.473,1.473,0,0,1,.078-.437,2.65,2.65,0,0,1,.266-.423,1.729,1.729,0,0,0-.156-2.026,2.82,2.82,0,0,0-1.809-.771,7.827,7.827,0,0,0-1.263-.044" transform="translate(-809.239 -461.284)" fill="#605d82"/>
</svg>
