<svg xmlns="http://www.w3.org/2000/svg" width="50.125" height="50.125" viewBox="0 0 50.125 50.125">
  <g id="MIM_Logo_512px_x_512px_circle_" data-name="MIM Logo 512px x 512px (circle)" transform="translate(0.063 0.063)">
    <circle id="Ellipse_670" data-name="Ellipse 670" cx="25" cy="25" r="25" fill="#365495" stroke="#d83764" stroke-miterlimit="10" stroke-width="0.125"/>
    <g id="Group_18754" data-name="Group 18754" transform="translate(3.499 12.013)">
      <path id="Path_20114" data-name="Path 20114" d="M78.605,133.214c-1.523-3.113-3.149-6.1-4.68-8.859a1.815,1.815,0,0,0-1.581-.945h-.018a1.759,1.759,0,0,0-1.61,1.1c-.716,1.735-1.48,3.52-2.309,5.4q-1.276-2.7-2.586-5.392a1.773,1.773,0,0,0-3.329.326c-1.1,4.181-2.306,8.37-3.5,12.491-1.3-2.483-2.612-4.964-3.9-7.458a1.8,1.8,0,0,0-1.676-.993,1.83,1.83,0,0,0-1.551,1.071q-1.711,3.618-3.4,7.252c-1.028-2.459-1.963-4.758-2.835-6.965a1.781,1.781,0,0,0-3.223-.264c-2.024,3.358-4.171,6.935-6.213,10.535a1.992,1.992,0,0,0,.433,2.453,1.789,1.789,0,0,0,1.486.417,1.769,1.769,0,0,0,1.235-.89c1.269-2.26,2.649-4.645,4.264-7.367.958,2.328,1.994,4.787,3.141,7.446a1.838,1.838,0,0,0,1.576,1.134,1.776,1.776,0,0,0,1.728-1.081c1.2-2.682,2.422-5.327,3.5-7.638q1.349,2.579,2.707,5.147l1.431,2.715a1.817,1.817,0,0,0,1.576.989h.016c.033,0,.064-.016.1-.018l.1.018h.039a1.813,1.813,0,0,0,1.674-1.326l.161-.546c1.109-3.758,2.247-7.613,3.329-11.479q1.069,2.268,2.108,4.548a1.713,1.713,0,0,0,1.678,1.051,1.809,1.809,0,0,0,1.569-1.068c.916-2,1.751-3.858,2.524-5.629,1.021,1.932,1.952,3.745,2.816,5.487a1.763,1.763,0,0,0,2.531.713A1.864,1.864,0,0,0,78.605,133.214Z" transform="translate(-35.95 -123.41)" fill="#fff"/>
      <circle id="Ellipse_671" data-name="Ellipse 671" cx="1.61" cy="1.61" r="1.61" transform="translate(22.239 22.592)" fill="#d83764"/>
    </g>
  </g>
</svg>
