<svg xmlns="http://www.w3.org/2000/svg" width="24.3" height="23.256" viewBox="0 0 24.3 23.256">
  <g id="network_1_" data-name="network (1)" transform="translate(0.15 -10.517)">
    <g id="Group_1734" data-name="Group 1734" transform="translate(16.696 25.276)">
      <g id="Group_1733" data-name="Group 1733">
        <path id="Path_9165" data-name="Path 9165" d="M344.985,309.333a3.652,3.652,0,1,0,3.652,3.652A3.656,3.656,0,0,0,344.985,309.333Zm0,6.261a2.609,2.609,0,1,1,2.609-2.609A2.611,2.611,0,0,1,344.985,315.594Z" transform="translate(-341.333 -309.333)" fill="#ccc" stroke="#ccc" stroke-width="0.3"/>
      </g>
    </g>
    <g id="Group_1736" data-name="Group 1736" transform="translate(8.348 10.667)">
      <g id="Group_1735" data-name="Group 1735" transform="translate(0 0)">
        <path id="Path_9166" data-name="Path 9166" d="M174.318,10.667a3.652,3.652,0,1,0,3.652,3.652A3.656,3.656,0,0,0,174.318,10.667Zm0,6.261a2.609,2.609,0,1,1,2.609-2.609A2.611,2.611,0,0,1,174.318,16.928Z" transform="translate(-170.666 -10.667)" fill="#ccc" stroke="#ccc" stroke-width="0.3"/>
      </g>
    </g>
    <g id="Group_1738" data-name="Group 1738" transform="translate(0 25.276)">
      <g id="Group_1737" data-name="Group 1737">
        <path id="Path_9167" data-name="Path 9167" d="M3.652,309.333A3.652,3.652,0,1,0,7.3,312.985,3.656,3.656,0,0,0,3.652,309.333Zm0,6.261a2.609,2.609,0,1,1,2.609-2.609A2.611,2.611,0,0,1,3.652,315.594Z" transform="translate(0 -309.333)" fill="#ccc" stroke="#ccc" stroke-width="0.3"/>
      </g>
    </g>
    <g id="Group_1740" data-name="Group 1740" transform="translate(5.51 30.436)">
      <g id="Group_1739" data-name="Group 1739">
        <path id="Path_9168" data-name="Path 9168" d="M125.511,415.031a.52.52,0,0,0-.735-.07,8.87,8.87,0,0,1-11.275,0,.522.522,0,0,0-.665.8,9.915,9.915,0,0,0,12.6,0A.522.522,0,0,0,125.511,415.031Z" transform="translate(-112.647 -414.841)" fill="#ccc" stroke="#ccc" stroke-width="0.3"/>
      </g>
    </g>
    <g id="Group_1742" data-name="Group 1742" transform="translate(14.613 14.333)">
      <g id="Group_1741" data-name="Group 1741">
        <path id="Path_9169" data-name="Path 9169" d="M299.443,85.641a.522.522,0,1,0-.349.985,8.885,8.885,0,0,1,5.667,10.432.521.521,0,0,0,.386.629.486.486,0,0,0,.121.015.522.522,0,0,0,.507-.4,9.928,9.928,0,0,0-6.333-11.66Z" transform="translate(-298.746 -85.611)" fill="#ccc" stroke="#ccc" stroke-width="0.3"/>
      </g>
    </g>
    <g id="Group_1744" data-name="Group 1744" transform="translate(2.087 14.316)">
      <g id="Group_1743" data-name="Group 1743" transform="translate(0 0)">
        <path id="Path_9170" data-name="Path 9170" d="M49.988,85.615a.525.525,0,0,0-.665-.322,9.928,9.928,0,0,0-6.386,11.674.52.52,0,0,0,.507.4.484.484,0,0,0,.121-.015.522.522,0,0,0,.386-.629A8.886,8.886,0,0,1,49.666,86.28.523.523,0,0,0,49.988,85.615Z" transform="translate(-42.667 -85.264)" fill="#ccc" stroke="#ccc" stroke-width="0.3"/>
      </g>
    </g>
  </g>
</svg>
