<svg xmlns="http://www.w3.org/2000/svg" width="27.209" height="28.368" viewBox="0 0 27.209 28.368">
  <g id="Group_18227" data-name="Group 18227" transform="translate(-1751.679 -429.708)">
    <g id="Group_18213" data-name="Group 18213" transform="translate(1751.679 429.708)">
      <g id="donation">
        <path id="Path_9447" data-name="Path 9447" d="M19.743,110.1l-.151,3.34H13.472a6.059,6.059,0,0,0-1.661-4.433,17.949,17.949,0,0,1-3.9-5.569,2.769,2.769,0,0,1-.189-1.061V96.724a1.1,1.1,0,0,1,.87-1.06,1.027,1.027,0,0,1,1.154.847l.8,5.241a7.2,7.2,0,0,0,2.888,3.536c.341.234.72.493,1.155.215a.709.709,0,0,0-.063-.935l-1.787-1.414a1.524,1.524,0,0,1-.632-1.722.658.658,0,0,1,1.024-.38l3.6,2.57a4.707,4.707,0,0,1,1.591,1.446A7.942,7.942,0,0,1,19.743,110.1Z" transform="translate(-7.72 -88.474)" fill="#e64b30"/>
        <path id="Path_9448" data-name="Path 9448" d="M72.024,330.142h6.833a.438.438,0,0,1,.438.438v2.662a.438.438,0,0,1-.438.438H72.024a.438.438,0,0,1-.438-.438V330.58A.438.438,0,0,1,72.024,330.142Z" transform="translate(-66.792 -305.361)" fill="#e64b30"/>
        <circle id="Ellipse_177" data-name="Ellipse 177" cx="0.538" cy="0.538" r="0.538" transform="translate(10.463 26.012)" fill="#e64b30"/>
        <path id="Path_9449" data-name="Path 9449" d="M209.862,110.1l.151,3.34h6.119a6.059,6.059,0,0,1,1.661-4.433,17.949,17.949,0,0,0,3.9-5.569,2.769,2.769,0,0,0,.189-1.061V96.724a1.1,1.1,0,0,0-.87-1.06,1.027,1.027,0,0,0-1.154.847l-.8,5.241a7.2,7.2,0,0,1-2.886,3.536c-.341.234-.72.493-1.155.215a.709.709,0,0,1,.063-.935l1.787-1.414a1.524,1.524,0,0,0,.632-1.722.658.658,0,0,0-1.024-.38l-3.6,2.57a4.706,4.706,0,0,0-1.591,1.446,7.943,7.943,0,0,0-1.421,5.033Z" transform="translate(-194.675 -88.474)" fill="#e64b30"/>
        <path id="Path_9450" data-name="Path 9450" d="M201.284,330.142h6.926a.444.444,0,0,1,.444.444v2.7a.444.444,0,0,1-.444.444h-6.926a.444.444,0,0,1-.444-.444v-2.7A.444.444,0,0,1,201.284,330.142Z" transform="translate(-186.344 -305.361)" fill="#e64b30"/>
        <circle id="Ellipse_178" data-name="Ellipse 178" cx="0.545" cy="0.545" r="0.545" transform="translate(15.473 26.084)" fill="#e64b30"/>
        <path id="Path_9451" data-name="Path 9451" d="M93.744,0a4.774,4.774,0,0,0-3.189,1.22A4.792,4.792,0,0,0,82.569,4.8c0,4.97,7.986,10.265,7.986,10.265s8-5.278,7.986-10.265a4.8,4.8,0,0,0-4.8-4.8Z" transform="translate(-76.951 0)" fill="#e64b30"/>
      </g>
    </g>
  </g>
</svg>
