<svg xmlns="http://www.w3.org/2000/svg" width="20.342" height="21.208" viewBox="0 0 20.342 21.208">
  <g id="Group_16254" data-name="Group 16254" transform="translate(-130.659 -285.792)">
    <g id="donation" transform="translate(122.938 285.792)">
      <path id="Path_9447" data-name="Path 9447" d="M16.708,106.454l-.113,2.5H12.021a4.53,4.53,0,0,0-1.241-3.314,13.419,13.419,0,0,1-2.917-4.164,2.07,2.07,0,0,1-.141-.793V96.454a.819.819,0,0,1,.651-.793.768.768,0,0,1,.863.633l.6,3.918a5.381,5.381,0,0,0,2.159,2.643c.255.175.538.368.864.161a.53.53,0,0,0-.047-.7l-1.336-1.057A1.14,1.14,0,0,1,11,99.973a.492.492,0,0,1,.765-.284l2.691,1.921a3.519,3.519,0,0,1,1.19,1.081A5.938,5.938,0,0,1,16.708,106.454Z" transform="translate(0 -90.286)" fill="#fff"/>
      <path id="Path_9448" data-name="Path 9448" d="M71.913,330.142h5.109a.327.327,0,0,1,.327.327v1.99a.327.327,0,0,1-.327.327H71.913a.327.327,0,0,1-.327-.327v-1.99A.327.327,0,0,1,71.913,330.142Z" transform="translate(-60.282 -311.615)" fill="#fff"/>
      <circle id="Ellipse_177" data-name="Ellipse 177" cx="0.402" cy="0.402" r="0.402" transform="translate(15.543 19.447)" fill="#fff"/>
      <path id="Path_9449" data-name="Path 9449" d="M209.858,106.454l.113,2.5h4.574a4.53,4.53,0,0,1,1.241-3.314,13.419,13.419,0,0,0,2.917-4.164,2.07,2.07,0,0,0,.141-.793V96.454a.819.819,0,0,0-.651-.793.768.768,0,0,0-.863.633l-.6,3.918a5.381,5.381,0,0,1-2.157,2.643c-.255.175-.538.368-.864.161a.53.53,0,0,1,.047-.7l1.336-1.057a1.14,1.14,0,0,0,.472-1.288.492.492,0,0,0-.765-.284l-2.69,1.921a3.519,3.519,0,0,0-1.19,1.081,5.938,5.938,0,0,0-1.062,3.762Z" transform="translate(-190.785 -90.286)" fill="#fff"/>
      <path id="Path_9450" data-name="Path 9450" d="M201.172,330.142h5.178a.332.332,0,0,1,.332.332v2.018a.332.332,0,0,1-.332.332h-5.178a.332.332,0,0,1-.332-.332v-2.018A.332.332,0,0,1,201.172,330.142Z" transform="translate(-182.282 -311.615)" fill="#fff"/>
      <circle id="Ellipse_178" data-name="Ellipse 178" cx="0.408" cy="0.408" r="0.408" transform="translate(19.288 19.501)" fill="#fff"/>
      <path id="Path_9451" data-name="Path 9451" d="M90.923,0A3.569,3.569,0,0,0,88.54.912a3.583,3.583,0,0,0-5.971,2.675c0,3.716,5.971,7.674,5.971,7.674s5.98-3.946,5.97-7.674A3.59,3.59,0,0,0,90.923,0Z" transform="translate(-70.648 0)" fill="#fff"/>
    </g>
  </g>
</svg>
