<svg xmlns="http://www.w3.org/2000/svg" width="20.2" height="24.2" viewBox="0 0 20.2 24.2">
  <g id="Group_4102" data-name="Group 4102" transform="translate(-339.9 -39.9)">
    <g id="bell" transform="translate(335.97 40)">
      <path id="Path_25" data-name="Path 25" d="M158.418,420.5a3.754,3.754,0,0,1-3.75-3.75.75.75,0,0,1,1.5,0,2.25,2.25,0,0,0,4.5,0,.75.75,0,1,1,1.5,0A3.754,3.754,0,0,1,158.418,420.5Zm0,0" transform="translate(-144.388 -396.5)" fill="#fff" stroke="#fff" stroke-width="0.2"/>
      <path id="Path_26" data-name="Path 26" d="M39.582,82h-16.5a1.75,1.75,0,0,1-1.138-3.08,6.7,6.7,0,0,0,2.388-5.132V71a7,7,0,0,1,14,0v2.788a6.7,6.7,0,0,0,2.378,5.125A1.749,1.749,0,0,1,39.582,82Zm-8.25-16.5a5.506,5.506,0,0,0-5.5,5.5v2.788a8.2,8.2,0,0,1-2.91,6.27.249.249,0,0,0-.09.192.253.253,0,0,0,.25.25h16.5a.253.253,0,0,0,.25-.25.246.246,0,0,0-.088-.19,8.2,8.2,0,0,1-2.912-6.272V71a5.506,5.506,0,0,0-5.5-5.5Zm0,0" transform="translate(-17.302 -61)" fill="#fff" stroke="#fff" stroke-width="0.2"/>
      <path id="Path_27" data-name="Path 27" d="M219.418,4.5a.75.75,0,0,1-.75-.75v-3a.75.75,0,0,1,1.5,0v3A.75.75,0,0,1,219.418,4.5Zm0,0" transform="translate(-205.388)" fill="#fff" stroke="#fff" stroke-width="0.2"/>
    </g>
    <circle id="Ellipse_1" data-name="Ellipse 1" cx="4" cy="4" r="4" transform="translate(352 40)" fill="#d83563"/>
  </g>
</svg>
