<svg xmlns="http://www.w3.org/2000/svg" width="6.111" height="9.076" viewBox="0 0 6.111 9.076">
  <g id="quality" transform="translate(-77.056)">
    <path id="Path_9405" data-name="Path 9405" d="M129.112,274.406a3.135,3.135,0,0,1-.5.312.59.59,0,0,1-.08.04h-.01a.035.035,0,0,1-.02.01l-.06.03c-.01,0-.01.01-.02.01l-.151.06c-.01,0-.02.01-.03.01l-.09.03c-.04.01-.08.03-.121.04a2.82,2.82,0,0,1-.774.1,2.771,2.771,0,0,1-.774-.1,1.443,1.443,0,0,1-.251-.08l-.141-.06c-.01,0-.01-.01-.02-.01l-.06-.03a.035.035,0,0,0-.02-.01h-.01c-.01-.01-.04-.02-.07-.04a2.109,2.109,0,0,1-.523-.332,1.066,1.066,0,0,1-.121-.1l-.141,3.377v.01a.406.406,0,0,0,.241.372.4.4,0,0,0,.432-.06l1.467-1.266,1.467,1.266a.39.39,0,0,0,.261.1.355.355,0,0,0,.171-.04.423.423,0,0,0,.241-.372v-.01l-.141-3.377c-.05.04-.091.07-.151.121Z" transform="translate(-47.141 -269.008)" fill="#333"/>
    <path id="Path_9406" data-name="Path 9406" d="M82.845,4.432a3.135,3.135,0,0,0,.322-1.367,3.055,3.055,0,1,0-5.045,2.312c.04.03.08.07.121.1a2.108,2.108,0,0,0,.523.332c.03.02.06.03.07.04h.01a.035.035,0,0,1,.02.01l.06.03c.01,0,.01.01.02.01l.141.06a1.443,1.443,0,0,0,.251.08,2.769,2.769,0,0,0,.774.1,2.819,2.819,0,0,0,.774-.1c.04-.01.08-.03.121-.04l.09-.03c.01,0,.02-.01.03-.01l.151-.06c.01,0,.01-.01.02-.01l.06-.03a.035.035,0,0,0,.02-.01h.01a.592.592,0,0,0,.08-.04,3.13,3.13,0,0,0,.5-.312.01.01,0,0,0,.01-.01l.141-.111A3.2,3.2,0,0,0,82.845,4.432Z" transform="translate(0)" fill="#fc0"/>
    <path id="Path_9407" data-name="Path 9407" d="M157.9,109.143a.291.291,0,0,0,.422,0l1.528-1.528a.3.3,0,0,0-.422-.422l-1.317,1.317-.613-.623a.3.3,0,0,0-.422.422Z" transform="translate(-78.395 -105.042)" fill="#fff"/>
  </g>
</svg>
