<svg xmlns="http://www.w3.org/2000/svg" width="10.698" height="13" viewBox="0 0 10.698 13">
  <g id="Group_2103" data-name="Group 2103" transform="translate(-459.947 -2891.774)">
    <path id="Path_9500" data-name="Path 9500" d="M1193.763-266.687c.014-.086.032-.168.04-.252a1.588,1.588,0,0,0-.357-1.208,1.633,1.633,0,0,0-1.125-.611,1.632,1.632,0,0,0-.964.188.076.076,0,0,1-.084,0,1.557,1.557,0,0,0-.739-.2,1.675,1.675,0,0,0-1.671,1.27,1.637,1.637,0,0,0,0,.772c0,.012,0,.024.008.044-.089-.012-.172-.021-.255-.036-.309-.056-.619-.11-.927-.174a12.029,12.029,0,0,1-1.417-.379c-.029-.01-.058-.02-.086-.032a.287.287,0,0,1-.191-.262,5.043,5.043,0,0,1-.011-.943,2.723,2.723,0,0,1,.48-1.355,2.208,2.208,0,0,1,.464-.441,7.367,7.367,0,0,1,1.551-.888c.22-.1.445-.179.662-.282a2.227,2.227,0,0,0,.335-.214.628.628,0,0,0,.24-.435c.02-.12.04-.24.063-.359a.1.1,0,0,0-.018-.085,3.235,3.235,0,0,1-.466-.845.1.1,0,0,0-.018-.034,1.43,1.43,0,0,1-.274-.611c-.032-.12-.067-.24-.09-.363a.4.4,0,0,1,.042-.292.056.056,0,0,0,0-.04,2.748,2.748,0,0,1-.118-.956,1.774,1.774,0,0,1,.2-.745c.043-.081.067-.172.107-.254a1.557,1.557,0,0,1,.822-.759c.1-.042.2-.1.3-.133a2.632,2.632,0,0,1,.7-.143,4,4,0,0,1,.734,0,2.408,2.408,0,0,1,.895.244,3.018,3.018,0,0,1,.414.225,1.482,1.482,0,0,1,.55.754.214.214,0,0,0,.017.04,1.83,1.83,0,0,1,.22.951,2.778,2.778,0,0,1-.122.776.054.054,0,0,0,0,.04.381.381,0,0,1,.045.278,3.24,3.24,0,0,1-.214.74,1.9,1.9,0,0,1-.143.236.331.331,0,0,0-.03.055,3.25,3.25,0,0,1-.463.836.1.1,0,0,0-.019.085c.023.113.048.226.061.34a.729.729,0,0,0,.358.545,2.483,2.483,0,0,0,.5.251,7.749,7.749,0,0,1,1.693.868,4.752,4.752,0,0,1,.555.443,1.944,1.944,0,0,1,.484.822,3.26,3.26,0,0,1,.148.731,5.2,5.2,0,0,1-.011.919.275.275,0,0,1-.193.26c-.155.056-.312.107-.471.154a15.476,15.476,0,0,1-1.666.383c-.161.029-.323.052-.485.078C1193.8-266.689,1193.784-266.689,1193.763-266.687Z" transform="translate(-726.019 3169.537)" fill="#365394" fill-rule="evenodd"/>
    <path id="Path_9501" data-name="Path 9501" d="M1531.825,696.086a1.182,1.182,0,0,1,.619-.325,1.17,1.17,0,0,1,1.328.8,1.15,1.15,0,0,1-.252,1.135c-.155.181-.332.342-.5.511-.3.3-.6.6-.9.9a.374.374,0,0,1-.431.111.392.392,0,0,1-.128-.086c-.183-.181-.363-.366-.546-.549-.256-.256-.512-.512-.771-.765a1.273,1.273,0,0,1-.4-.714,1.115,1.115,0,0,1,.443-1.125,1.164,1.164,0,0,1,1.517.085Z" transform="translate(-1066.528 2205.525)" fill="#d83563" fill-rule="evenodd"/>
  </g>
</svg>
